<svg version="1.2" xmlns="http://www.w3.org/2000/svg" viewBox="0 0 1000 1000" width="500" height="500">
	<title>3867309-ai</title>
	<style>
		.s0 { fill: #37474f } 
		.s1 { opacity: .1;fill: #27debf } 
		.s2 { fill: #27debf } 
		.s3 { opacity: .5;fill: #000000 } 
		.s4 { fill: #263238 } 
		.s5 { opacity: .1;fill: #000000 } 
		.s6 { opacity: .3;fill: #000000 } 
		.s7 { fill: #455a64 } 
		.s8 { opacity: .4;fill: #000000 } 
		.s9 { fill: #ffa8a7 } 
		.s10 { fill: #f0f0f0 } 
		.s11 { fill: #f28f8f } 
		.s12 { fill: #b16668 } 
		.s13 { fill: #ffffff } 
		.s14 { fill: #000000 } 
		.s15 { fill: #ebebeb } 
		.s16 { opacity: .6;fill: #ffffff } 
		.s17 { fill: #ffbda7 } 
		.s18 { fill: #f0997a } 
		.s19 { opacity: .3;fill: #ffffff } 
		.s20 { fill: #fafafa } 
		.s21 { fill: #f5f5f5 } 
	</style>
	<g id="Background">
		<path id="Background 1 " fill-rule="evenodd" class="s0" d="m865.3 826.4c-73.9 64.2-178.2 140.2-396.6 133.4-247.4-7.8-349.9-112.1-397.3-215.9-49.7-108.7-55.1-448.9 135-582.1 217.6-152.5 500.4-118.6 674.8 132.9 114.5 165.1 128.7 406.4-15.9 531.7zm-754-645.6c10-51.8 46.7-89.1 92.6-103.9 11.6-3.8 23.7-6.4 36-6.6 10.8-0.2 23.9 0.7 33 8.2 1.6 1.3 3.4 4 3.1 5.9-0.3 1.7-2.2 2.7-3.7 3.3-8.3 3.8-15.7 6.3-26.2 11.5-26.4 12.9-43.1 21.4-62.2 36.2-17.5 13.6-31.6 27.4-45.4 45.4-10.7 14-17.4 23.7-22.9 22.5-6.3-1.4-6.7-9.7-4.3-22.5z"/>
	</g>
	<g id="Light">
		<path id="&lt;Path&gt;" class="s1" d="m755 368.3v-0.1l-240-90.6v-1l-113.3-41.8-109.5 233.7 111.3 122.2 112.6-65 260.2-150z"/>
	</g>
	<g id="Character">
		<g id="Character 9 ">
			<g id="Character 22 ">
				<g id="&lt;Group&gt;">
					<g id="&lt;Group&gt;">
						<g id="&lt;Group&gt;">
							<path id="&lt;Path&gt;" class="s2" d="m179.1 635.3c0-6.4 3.4-12.4 9-15.6l125.6-72.5c5.5-3.2 12.4-3.2 17.9 0l125.6 72.5c5.6 3.2 9 9.2 9 15.6l-143.6 82.9z"/>
						</g>
						<path id="&lt;Path&gt;" class="s3" d="m179.1 635.3c0-6.4 3.4-12.4 9-15.6l125.6-72.5c5.5-3.2 12.4-3.2 17.9 0l125.6 72.5c5.6 3.2 9 9.2 9 15.6l-143.6 82.9z"/>
						<g id="&lt;Group&gt;">
							<path id="&lt;Path&gt;" class="s4" d="m179.1 635.3v10.3l134.7 77.8c2.7 1.6 5.8 2.4 8.8 2.4 3.1 0 6.2-0.8 8.9-2.4l134.7-77.8v-10.3l-134.7 77.7c-2.7 1.6-5.8 2.4-8.9 2.4-3 0-6.1-0.8-8.8-2.4z"/>
						</g>
						<path id="&lt;Path&gt;" class="s5" d="m466.2 635.3l-134.7 77.7c-2.8 1.6-5.8 2.4-8.9 2.4-3 0-6.1-0.8-8.8-2.4q0 0 0 0l-7.2-4.1-127.5-73.6c0-4.8 1.9-9.3 5.1-12.6l131.9 76.2c4 2.3 9 2.3 13.1 0l131.9-76.2c3.2 3.3 5.1 7.8 5.1 12.6z"/>
					</g>
					<g id="&lt;Group&gt;">
						<g id="&lt;Group&gt;">
							<path id="&lt;Path&gt;" class="s4" d="m327.9 298.9q0-0.2 0-0.4-0.1-1-0.3-2 0-0.2-0.1-0.4-0.1-0.9-0.4-1.8 0-0.1 0-0.1-0.3-0.9-0.6-1.8-0.1-0.1-0.2-0.3c-2.7-6.2-8.6-9.8-14.8-11.8-3.2-1-6.4-1.6-9.6-2.3q-2.5-0.4-4.9-0.9c-0.9-0.2-3.7-0.4-4.2-1q-0.7-0.8-1.4-1.7 0-0.1-0.1-0.2-0.6-0.8-1.1-1.6-0.1-0.2-0.3-0.4-0.4-0.8-0.9-1.6-0.1-0.3-0.2-0.6-0.4-0.7-0.8-1.6-0.1-0.3-0.3-0.6-0.3-0.8-0.6-1.6-0.2-0.4-0.3-0.8-0.3-0.8-0.5-1.7-0.1-0.4-0.3-0.8-0.2-0.9-0.4-1.9-0.1-0.4-0.2-0.8-0.3-1.3-0.5-2.7l-3.1-19.7q-0.2-1.1-0.4-2.1-0.1-0.4-0.2-0.7-0.2-0.7-0.4-1.2-0.2-0.5-0.3-0.9-0.2-0.5-0.4-0.9-0.2-0.5-0.4-0.9c-1.5-2.7-4-4.3-6.4-6.1-2.6-2-5.7-3.5-8.9-4.5-6.4-1.8-13.4-1.4-19.2 1.9q-15.5 9-31.1 18c-10.1 5.8-18.7 20.3-20.6 34.6l-3.1 23.2c-2.2 16.8-9.4 34.4-19.7 48.3l-14.5 19.5c-5.5 7.4-8.9 17.2-8.9 25.7 0 0 0 18.3 0 18.3 0 8.4 3.2 14.2 8.7 20.3 3.1 3.3 6.3 6.7 8.4 10.8 2.2 4.5 1.3 9.1 0.5 13.9l-11.4 93.3c-1.7 11.7-2 23.9 0.4 35.6 2 9.9 5.6 20.2 14.7 25.5q1.9 1.1 3.9 1.8c5 1.9 11.9 2.7 16.8 0.2 2.3-1.3 4.6-2.7 7-4.1q8.8-5 17.6-10.1 21.1-12.2 42.3-24.5 18.6-10.7 37.2-21.5 7.4-4.2 14.8-8.5 0.9-1.9 1.8-3.8c2.8-6.5 5.2-13 7.2-19.6 1.5-5.2 2.8-10.5 3.7-15.7q0.7-3.8 1.2-7.7c0.6-5.1 1-10 1-14.9q0-6.3-0.8-12.1-0.2-2-0.6-3.9l-5.6-40.1-5.7-40c-1.5-7.6-1.3-16.5 1.3-25 1.6-5.1 4-10.1 7.4-14.7q2.1-2.8 3.7-6c2.2-4.1 3.8-8.7 4.6-13.1q0.6-3.4 0.6-6.6v-18.3q0-1.2-0.1-2.3z"/>
						</g>
						<path id="&lt;Path&gt;" class="s2" d="m336.1 303.9q0-0.2 0-0.4-0.1-1.1-0.3-2 0-0.2-0.1-0.4-0.1-0.9-0.4-1.8 0-0.1 0-0.1-0.3-0.9-0.6-1.8-0.1-0.1-0.2-0.3c-2.7-6.2-8.6-9.8-14.8-11.8-3.2-1-6.4-1.6-9.6-2.3q-2.5-0.4-4.9-0.9c-0.9-0.2-3.7-0.4-4.2-1q-0.7-0.8-1.4-1.7-0.1-0.1-0.1-0.2-0.6-0.8-1.1-1.6-0.2-0.2-0.3-0.4-0.4-0.8-0.9-1.6-0.1-0.3-0.3-0.6-0.3-0.7-0.7-1.6-0.1-0.3-0.3-0.6-0.3-0.8-0.6-1.7-0.2-0.3-0.3-0.7-0.3-0.8-0.5-1.7-0.1-0.4-0.3-0.8-0.2-0.9-0.4-1.9-0.1-0.4-0.2-0.8-0.3-1.3-0.5-2.7l-3.1-19.7q-0.2-1.1-0.4-2.1-0.1-0.4-0.3-0.7-0.1-0.7-0.3-1.2-0.2-0.5-0.3-0.9-0.2-0.5-0.4-0.9-0.2-0.5-0.5-0.9c-1.4-2.7-3.9-4.3-6.3-6.1-2.7-2-5.7-3.5-9-4.5-6.3-1.8-13.3-1.4-19.1 1.9q-15.6 9-31.1 18c-10.1 5.8-18.7 20.3-20.6 34.6l-3.1 23.2c-2.3 16.8-9.4 34.4-19.7 48.3l-14.5 19.5c-5.5 7.4-8.9 17.2-8.9 25.7 0 0 0 18.3 0 18.3 0 8.4 3.2 14.2 8.7 20.3 3.1 3.3 6.3 6.7 8.4 10.8 2.2 4.5 1.3 9.1 0.5 13.9l-11.4 93.3c-1.7 11.7-2 23.9 0.4 35.6 2 9.9 5.6 20.2 14.7 25.5q1.9 1.1 3.9 1.8c5 1.9 11.9 2.7 16.8 0.2 2.3-1.3 4.6-2.7 6.9-4.1q8.9-5 17.7-10.1 21.1-12.2 42.3-24.5 18.6-10.7 37.2-21.5 7.4-4.2 14.8-8.5 0.9-1.9 1.8-3.9c2.8-6.4 5.2-13 7.2-19.5 1.5-5.2 2.8-10.5 3.7-15.7q0.7-3.8 1.2-7.7c0.6-5.1 1-10 1-14.9q0-6.3-0.8-12.2-0.2-1.9-0.6-3.8l-5.6-40.1-5.7-40c-1.5-7.6-1.3-16.5 1.3-25 1.6-5.1 4-10.1 7.4-14.7q2.1-2.8 3.7-6c2.2-4.1 3.8-8.7 4.6-13.1q0.6-3.4 0.6-6.6v-18.3q0-1.2-0.1-2.3z"/>
						<path id="&lt;Path&gt;" class="s3" d="m336.1 303.9q0-0.2 0-0.4-0.1-1.1-0.3-2 0-0.2-0.1-0.4-0.1-0.9-0.4-1.8 0-0.1 0-0.1-0.3-0.9-0.6-1.8-0.1-0.1-0.2-0.3c-2.7-6.2-8.6-9.8-14.8-11.8-3.2-1-6.4-1.6-9.6-2.3q-2.5-0.4-4.9-0.9c-0.9-0.2-3.7-0.4-4.2-1q-0.7-0.8-1.4-1.7-0.1-0.1-0.1-0.2-0.6-0.8-1.1-1.6-0.2-0.2-0.3-0.4-0.4-0.8-0.9-1.6-0.1-0.3-0.3-0.6-0.3-0.7-0.7-1.6-0.1-0.3-0.3-0.6-0.3-0.8-0.6-1.7-0.2-0.3-0.3-0.7-0.3-0.8-0.5-1.7-0.1-0.4-0.3-0.8-0.2-0.9-0.4-1.9-0.1-0.4-0.2-0.8-0.3-1.3-0.5-2.7l-3.1-19.7q-0.2-1.1-0.4-2.1-0.1-0.4-0.3-0.7-0.1-0.7-0.3-1.2-0.2-0.5-0.3-0.9-0.2-0.5-0.4-0.9-0.2-0.5-0.5-0.9c-1.4-2.7-3.9-4.3-6.3-6.1-2.7-2-5.7-3.5-9-4.5-6.3-1.8-13.3-1.4-19.1 1.9q-15.6 9-31.1 18c-10.1 5.8-18.7 20.3-20.6 34.6l-3.1 23.2c-2.3 16.8-9.4 34.4-19.7 48.3l-14.5 19.5c-5.5 7.4-8.9 17.2-8.9 25.7 0 0 0 18.3 0 18.3 0 8.4 3.2 14.2 8.7 20.3 3.1 3.3 6.3 6.7 8.4 10.8 2.2 4.5 1.3 9.1 0.5 13.9l-11.4 93.3c-1.7 11.7-2 23.9 0.4 35.6 2 9.9 5.6 20.2 14.7 25.5q1.9 1.1 3.9 1.8c5 1.9 11.9 2.7 16.8 0.2 2.3-1.3 4.6-2.7 6.9-4.1q8.9-5 17.7-10.1 21.1-12.2 42.3-24.5 18.6-10.7 37.2-21.5 7.4-4.2 14.8-8.5 0.9-1.9 1.8-3.9c2.8-6.4 5.2-13 7.2-19.5 1.5-5.2 2.8-10.5 3.7-15.7q0.7-3.8 1.2-7.7c0.6-5.1 1-10 1-14.9q0-6.3-0.8-12.2-0.2-1.9-0.6-3.8l-5.6-40.1-5.7-40c-1.5-7.6-1.3-16.5 1.3-25 1.6-5.1 4-10.1 7.4-14.7q2.1-2.8 3.7-6c2.2-4.1 3.8-8.7 4.6-13.1q0.6-3.4 0.6-6.6v-18.3q0-1.2-0.1-2.3z"/>
						<path id="&lt;Path&gt;" class="s5" d="m219.6 361.1c26.3-21 50.7-35 72.9-41.8z"/>
						<path id="&lt;Path&gt;" class="s2" d="m212.7 386.2l-7.5-36.4c-1.6-7.7-6.2-14.4-12.9-18.6l-1.3-0.9c-3.3 7.5-7.4 14.8-12.1 21.2l-9.2 12.4 1.4 0.8c6.7 4 11.5 10.5 13.4 18l10.2 40.8 12.5-5.9c0 0-18.3 120.3-9.6 198.7q0 0 0 0l0.4-0.2c1-19.4 9.2-152.7 39.8-232.9z"/>
						<path id="&lt;Path&gt;" class="s6" d="m212.7 386.2l-7.5-36.4c-1.6-7.7-6.2-14.4-12.9-18.6l-1.3-0.9c-3.3 7.5-7.4 14.8-12.1 21.2l-9.2 12.4 1.4 0.8c6.7 4 11.5 10.5 13.4 18l10.2 40.8 12.5-5.9c0 0-18.3 120.3-9.6 198.7q0 0 0 0l0.4-0.2c1-19.4 9.2-152.7 39.8-232.9z"/>
						<path id="&lt;Path&gt;" class="s2" d="m317.1 285.6l-2-1.5c-1.8-0.4-5.1-1.2-7.9-1.7-3-0.5-5.6-0.8-6.2-1.3l-6.1 64.1-22.2 29.9c30.5 44.9 32.5 160.3 33.6 178.5l0.3-0.2c8.7-88.5-13.2-183.2-13.2-183.2l16.2-13 11.7-60.5c0.8-4.2-0.8-8.5-4.2-11.1z"/>
						<path id="&lt;Path&gt;" class="s6" d="m317.1 285.6l-2-1.5c-1.8-0.4-5.1-1.2-7.9-1.7-3-0.5-5.6-0.8-6.2-1.3l-6.1 64.1-22.2 29.9c30.5 44.9 32.5 160.3 33.6 178.5l0.3-0.2c8.7-88.5-13.2-183.2-13.2-183.2l16.2-13 11.7-60.5c0.8-4.2-0.8-8.5-4.2-11.1z"/>
						<g id="&lt;Group&gt;">
							<g id="&lt;Group&gt;">
								<path id="&lt;Path&gt;" class="s4" d="m264.1 278.1l13 0.3c1.2 0 1.2 2.5 0 3.9l-12.9 15.2c-0.9 1-1.9 0.6-1.9-0.9l-0.1-15.4c0-1.5 1-3.1 1.9-3.1z"/>
							</g>
							<g id="&lt;Group&gt;">
								<path id="&lt;Path&gt;" class="s4" d="m242.9 290.3l-13 15.3c-1.2 1.4-1.2 3.9 0 3.9l12.9 0.3c0.9 0 1.9-1.5 1.9-3l0.1-15.6c0-1.5-1-1.9-1.9-0.9z"/>
							</g>
						</g>
						<path id="&lt;Compound Path&gt;" class="s5" d="m171 558.5c2.8-22.9 8.9-75.3 10-89.1 0.6-9.1-3.9-16.8-8.3-22.9 2 4.3 1.1 8.9 0.4 13.5l-11.4 93.3c-1.7 11.7-2 23.9 0.4 35.6 2 9.9 5.6 20.2 14.7 25.5q1.9 1.1 3.9 1.8c1.5 0.6 3.2 1.1 5 1.4-12.2-8.7-17.5-36.3-14.7-59.1zm110.5-328.5c-2.7-2-5.7-3.5-9-4.5-6.3-1.8-13.3-1.4-19.1 1.9q-15.6 9-31.1 18c-10.1 5.8-18.7 20.3-20.6 34.6l-3.1 23.2c-2.3 16.8-9.4 34.4-19.7 48.3l-14.5 19.5c-5.5 7.4-8.9 17.2-8.9 25.7 0 0 0 18.3 0 18.3 0 8.4 3.2 14.2 8.7 20.3q1.3 1.4 2.7 2.9-0.1 0-0.1 0c-4.1-7-2.2-17.4-1.9-36.2 0.3-18.9 14.7-33.1 25.7-45.5 11.1-12.4 18.8-38.5 22.5-64.3 3.7-25.9 8.8-32.2 32.7-46.4 20-11.9 34.1-16.1 39.7-12.6-1.2-1.2-2.6-2.2-4-3.2z"/>
						<path id="&lt;Path&gt;" class="s5" d="m219.5 567.8c-6.2-41.2-9.8-121.3 0-188-8.1 21.7-12.4 80.8-8.1 129.2 4.3 47.5 8.1 58.8 8.1 58.8z"/>
						<path id="&lt;Path&gt;" class="s5" d="m292.2 525.8c6.2-48.4 9.8-132.6 0-188 8.1 12.4 12.4 66.5 8.1 119.9-4.3 52.4-8.1 68.1-8.1 68.1z"/>
					</g>
				</g>
				<path id="&lt;Path&gt;" class="s5" d="m401.9 618.6c5.7-9.5 2.9-21.8-1.9-31.7q-0.1-0.1-0.1-0.3l-68.3-39.4c-4.4-2.5-9.5-3-14.2-1.6q0.4-0.9 0.8-1.8c2.8-6.4 5.2-13 7.2-19.5 1.5-5.2 2.8-10.5 3.7-15.7q0.7-3.8 1.2-7.7c0.6-5.1 1-10 1-14.9q0-6.3-0.8-12.2-0.2-1.9-0.6-3.8l-5.6-40.1-5.7-40c-1.5-7.6-1.3-16.5 1.3-25 1.6-5.1 4-10.1 7.4-14.7q2.1-2.8 3.7-6c2.2-4.1 3.8-8.7 4.6-13.1q0.6-3.4 0.6-6.6v-18.3q0-1.2-0.1-2.3 0-0.2 0-0.4-0.1-1.1-0.3-2 0-0.2-0.1-0.4-0.1-0.9-0.4-1.8 0-0.1 0-0.1-0.3-0.9-0.6-1.8-0.1-0.1-0.2-0.3c-2.3-5.4-7.1-8.8-12.4-10.9-3-2.8-6.7-4.6-10.6-5.9-3.2-1-6.4-1.6-9.6-2.3q-1.9-0.3-3.7-0.7 0-0.1-0.1-0.1-0.4-0.8-0.9-1.6-0.1-0.3-0.3-0.6-0.3-0.7-0.7-1.6-0.1-0.3-0.3-0.6-0.3-0.8-0.6-1.7-0.2-0.3-0.3-0.7-0.3-0.8-0.5-1.7-0.1-0.4-0.3-0.8-0.2-0.9-0.4-1.9-0.1-0.4-0.2-0.8-0.3-1.3-0.5-2.7l-1.5-9.3c-9.3 3.8-14.5 7.2-19.7 17-6.4 12.3-9.1 39.8-7.6 53.6 1.5 15 7.1 22.4 7.1 22.4l-4.4 18.1c-5.8 2.3-30.1 8.9-39.5 15.2-10 6.8-14.9 13.8-18.6 25.5-13.9 43.8-20.8 89.6-21.9 135.4-0.4 16.5-1.2 41.9 10.8 54.7 24.5 26.1 60.9 39.6 92.5 54.6 12 5.7 24.7 11.5 37.8 10.2 17.5-1.8 30.9-15.6 46.6-23.5 9.8-5 21.6-8.3 27.2-17.8z"/>
				<g id="&lt;Group&gt;">
					<g id="&lt;Group&gt;">
						<path id="&lt;Path&gt;" class="s7" d="m469.6 644.7l-45.1 26.1-5.3 3-29.6 17.1-16.3 9.4-44-65.7 9-35.5q0 0 0 0l0.1-0.2 16.2-64c18.2 15.6 82.4 59.5 107.7 86.8 5.2 5.6 7.6 12.2 7.3 23z"/>
						<path id="&lt;Path&gt;" class="s0" d="m424.5 670.8l-5.3 3-29.6 17.1c-24.5-41.4-49.4-88.1-51.3-91.8q0 0 0 0-0.1-0.2-0.1-0.2 0 0 0.2 0c0.7-0.1 3.1-0.4 3.1-0.5 18.5-7.6 25.1-29.8 25.1-29.8 2 10.2-5.3 24.2-12.8 29.3 5.8 5.9 36.5 36.2 59.6 57.5 4.3 4 8.6 8.7 11.1 15.4z"/>
					</g>
					<g id="&lt;Group&gt;">
						<path id="&lt;Path&gt;" class="s7" d="m373.3 700.3l-12.7 7.4c-1.3-3.3-2.9-5.7-5.1-6.9-8-4.6-48.6-25.2-81.6-44.7-34.2-20.3-42.8-34.5-48.5-48.5-5-12.2-3.3-27.1-3.5-53.4l132.7-19.3c12.3 34.5-13.1 63.5-13.1 63.5 0 0 54.5 48.2 66.6 60.7 5.8 6 9.1 10.5 11.1 14.7l-29.6 17.1z"/>
					</g>
				</g>
				<g id="&lt;Group&gt;">
					<path id="&lt;Path&gt;" class="s4" d="m221.2 670l-9.6 5.5c-1.1 0.6-2.3 0.9-3.4 0.9-1.2 0-2.4-0.3-3.4-0.9-2.2-1.2-3.5-3.5-3.5-5.9v-53.8l6.3 3.6v50.2q0 0.3 0.3 0.5 0.3 0.2 0.6 0l6.5-3.8z"/>
					<path id="&lt;Path&gt;" class="s4" d="m251.7 687.5l-9.7 5.5c-1.1 0.6-2.3 1-3.5 1-1.1 0-2.3-0.4-3.4-1-2.1-1.2-3.4-3.4-3.4-5.9v-53.8l6.2 3.5v50.3q0 0.4 0.3 0.5 0.3 0.2 0.6 0l6.5-3.7z"/>
					<path id="&lt;Path&gt;" class="s4" d="m318.3 637.2l-101-58.7c-8.9-5.1-23.4-5.1-32.4 0l-0.7 0.5c-4.4 2.6-6.7 6-6.7 9.3 0 1.4 0 6.9 0 8.3 0 3.3 2.2 6.7 6.7 9.3l101.2 58.4c8.9 5.2 23.4 5.2 32.4 0l0.5-0.3c4.5-2.5 6.7-5.9 6.7-9.3 0-1.4 0-6.8 0-8.2 0-3.4-2.2-6.8-6.7-9.3z"/>
					<path id="&lt;Path&gt;" class="s2" d="m184.2 597.7l101.2 58.5c8.9 5.1 23.4 5.1 32.4 0l0.5-0.3c9-5.2 9-13.6 0-18.7l-101-58.7c-8.9-5.1-23.4-5.1-32.4 0l-0.7 0.5c-8.9 5.2-8.9 13.6 0 18.7z"/>
					<path id="&lt;Path&gt;" class="s8" d="m184.2 597.7l101.2 58.5c8.9 5.1 23.4 5.1 32.4 0l0.5-0.3c9-5.2 9-13.6 0-18.7l-101-58.7c-8.9-5.1-23.4-5.1-32.4 0l-0.7 0.5c-8.9 5.2-8.9 13.6 0 18.7z"/>
					<path id="&lt;Path&gt;" class="s5" d="m318.3 637.2l-101-58.7c-1.7-1-3.6-1.7-5.7-2.4-6.7 1.9-13 6.5-11.4 12.9 0.6 2.5 2.5 4.5 4.5 6.1 6.7 5.8 14.3 10.3 21.9 14.7q36.4 21.3 72.7 42.7c3.8 2.2 7.6 4.4 11.6 6.4 2.5-0.7 4.8-1.6 6.9-2.7l0.5-0.3c9-5.2 9-13.6 0-18.7z"/>
					<path id="&lt;Path&gt;" class="s5" d="m184.2 579c-8.9 5.2-8.9 13.6 0 18.7l101.2 58.5c8.9 5.1 23.4 5.1 32.4 0l0.5-0.3c1.8-1.1 3.2-2.2 4.3-3.5v-0.3c0 0-7.5 6.4-23.7 3.4-7.5-1.4-13.4-5.5-25.4-12-26-14.1-60.6-34.8-72.2-42.2-20-12.9-25.3-16.9-17.1-22.3z"/>
				</g>
				<g id="&lt;Group&gt;">
					<path id="&lt;Path&gt;" class="s9" d="m387.5 546.7c-19.4-3.3-25.6-9.4-30.6-35.9-5.4-28.4-8.5-68.1-9.8-93.9-2.1-42.4 12.1-46.2 12.1-46.2 22.6 3.4 36.1 14.3 38.2 43.6 2.1 27.9 8.2 88.6 8.2 88.6"/>
					<path id="&lt;Path&gt;" class="s0" d="m359.2 370.7c0 0 17-0.4 27.5 11.8 10.4 12.1 12.5 24 14.5 51 1.9 26.9 3.1 42.2 3.1 42.2 0 0-20.5 18.8-53.7 13-0.7-1.1-7.7-36.8-7-66.9 0.7-30.1 1.9-46.2 15.6-51.1z"/>
					<path id="&lt;Path&gt;" class="s10" d="m378.9 433c-1.3 7.6-4.1 26-6.1 44.8-1.8 16.2-2.2 26.1-1.6 40.8 0.3 6 1.3 11.8 1.3 31.8-15.9 16.2-35.2 29.3-61.1 33.8-36.7 5.4-76.6 5.4-91.7-11.5-1.6-114.8 7.2-184.6 43.8-196.8 29.2-9.8 54.9-10.8 58.3-10.4 28.7 3 40.3 5.8 40.3 5.8 25.4 5.7 20.3 45.9 16.8 61.7z"/>
					<path id="Heart" class="s7" d="m320.5 450.9l6-2.3-0.7 4.1 6.1-2.2-1.5 8.6 6-2.2 1.5-8.7 6-2.2 0.7-4.1 6.1-2.2-0.7 4 6-2.2-1.4 8.6 6-2.2-2.1 12.7-6.1 2.2-1.1 6.4-6 2.2-1.1 6.4-6 2.2-1.1 6.4-6 2.3-1.1 6.3-6.1 2.3 1.1-6.4-6 2.2 1-6.3-6 2.2 1.1-6.3-6.1 2.2 1.1-6.3-6 2.2 2.1-12.7 6.1-2.2 1.4-8.7 6.1-2.2z"/>
				</g>
				<g id="&lt;Group&gt;">
					<g id="&lt;Group&gt;">
						<g id="&lt;Group&gt;">
							<path id="&lt;Compound Path&gt;" fill-rule="evenodd" class="s4" d="m415.9 268.6c0.8 4.8-3 10.3-7.9 10.1 4.5 4.5 6.1 11.8 3.7 17.7-2.4 5.9-8.5 10.2-14.9 10.3 0.4 0-2.3 8-2.6 8.7-1.6 3.1-3.7 5.8-6.3 8-5.3 4.7-11.7 8.2-18.7 9.6-3.9 0.7-8 0.8-12.2 0.3q-1.3-0.1-2.6-0.4c-13.6-2.5-24.5-11.7-29.7-23.8q-1-2.5-1.8-5.2c-0.4-1.3-0.7-2.7-0.9-4.1-0.6 1.3-1.2 2.7-1.9 4q-1.4 2.5-3 4.8c-3.6 5.4-7.3 9.4-7.3 9.4l-1.1 15.1-9.4 26c-0.2-0.1-4.8-2.3-6.2-7.7-2.8-11.3-4.5-43.6-4.7-46.8-0.6-8.3-0.9-20.5 0.5-28.8 1.2-6.2 3.5-12.4 9.3-15.1-1-7.9 1.9-11.8 6.3-15.5 4.4-3.7 11.9-5.1 17.7-5.5 4.2-0.3 8.5 0.2 12.6 0.9 4 0.8 7.8 1 11.8 1.4 6.8-1.5 12.8-2.9 22.7-1.4 4.9-1.4 8.7-3.2 13.3-5.2 4.7-1.9 9.8-3.3 14.8-2.3 5.3 1.1 9.9 5.2 11.7 10.4 1.7 5.1 0.5 11.2-3 15.3q1.3 0.3 2.5 0.9c3.6 1.7 6.7 5 7.3 8.9zm-91.7 7.2c0 0 0.2 0.6 0.4 1.7q0.3-0.6 0.6-1.2 0-0.1 0-0.2-0.4-0.1-1-0.3z"/>
							<path id="&lt;Path&gt;" class="s9" d="m396.2 330.2c-1.8 10.2-4.8 19.9-7.3 26-4.3 10.3-11.4 17.4-21.4 17.7-6.1 0.2-21.3-4.2-21.3-4.2l-5.9 13.9c7.6 10 3.7 13-5.7 14.1-5.1 0.6-14.9-2.4-19.8-4.8-17.8-8.9-19.5-18.3-19.5-18.3l0.2-2.1 10.4-36.2c0 0-1.5 4.1-9 2.6q-2.1-0.3-4.6-1.8c-7-4.4-14.7-20-8.4-29.9 2.2-3.5 4.9-5.1 7.5-5.5 4.1-0.5 8.1 1.6 10.6 4.8 1.2 1.7 2.1 3.5 3 5.3 0.7 1.4 1.6 3.4 3.1 4.2 0.9 0.4 1.8 0.2 2.6-0.3 1.6-1.1 3.9-3.1 6.2-7.1q1.1-2 2.2-4.9c2.3-5.9 4.3-14.7 5.1-27.9q0.5 0.2 1 0.5c16.3 8.5 31.9 12.1 44.4 12.1 12.4 0.1 23.6-1.2 27.6-6.6 3.5 7.6 1.6 32.4-1 48.4z"/>
							<path id="&lt;Path&gt;" class="s7" d="m392.3 318c1.8 1.9 1.8 5.6-0.5 7.5-0.8 0.6-1.9 0.9-2.9 0.9-0.9 0.1-1.7-0.1-2.4-0.5-0.7-0.4-1.3-1-1.6-1.7-0.7-1.8 0.5-4.2 2.6-4.2 0.5 0 1 0.2 1.3 0.5 0.3 0.3 0.5 0.9 0.3 1.4-0.1 0.5-0.5 0.8-0.7 1.2-0.3 0.4-0.2 1 0.4 1.1 0.3 0 0.6-0.2 0.8-0.4 0.7-0.7 1.2-1.5 1.1-2.6-0.1-1.2-1.2-2.3-2.3-2.7-1.5-0.4-3.1 0.2-4 1.3-0.7 0.8-1.2 2.4-1.2 3.6 0 0.9 0.3 1.5 1 2.4 0.9 1.3 3.2 2.5 5.4 2.3 2.7-0.2 4.9-2.5 5.5-5 0.4-1.7 0.1-3.5-0.7-5-0.9-1.7-3-3-4.7-3.6-1.7-0.6-3.5-0.3-5.1 0.5-1.5 0.7-2.9 2-3 3.8 0 0.4 0.1 0.9 0.5 0.8 0.2 0 0.4-0.1 0.5-0.2 1.3-2.9 3.4-3.7 5.8-3.5 1.4 0.1 2.8 0.8 3.9 2.1z"/>
							<path id="&lt;Path&gt;" class="s7" d="m355.8 314.8c1.8 1.9 1.8 5.6-0.5 7.5-0.8 0.6-1.9 0.9-2.9 1-0.8 0-1.7-0.2-2.4-0.6-0.7-0.4-1.3-1-1.6-1.7-0.7-1.8 0.6-4.2 2.6-4.2 0.5 0 1 0.2 1.3 0.5 0.3 0.3 0.5 1 0.4 1.4-0.2 0.5-0.6 0.8-0.8 1.2-0.2 0.5-0.2 1 0.4 1.1 0.3 0 0.6-0.1 0.8-0.4 0.7-0.7 1.2-1.5 1.1-2.6-0.1-1.2-1.1-2.3-2.3-2.7-1.5-0.4-3.1 0.2-4 1.3-0.7 0.8-1.2 2.4-1.2 3.6 0.1 0.9 0.3 1.5 1 2.4 0.9 1.3 3.2 2.5 5.5 2.3 2.6-0.2 4.8-2.5 5.4-5 0.4-1.7 0.1-3.5-0.7-5-0.9-1.7-2.9-3-4.7-3.6-1.7-0.6-3.5-0.3-5 0.5-1.6 0.7-2.9 2-3.1 3.8 0 0.4 0.2 0.9 0.5 0.9 0.2-0.1 0.4-0.1 0.5-0.3 1.4-2.9 3.4-3.7 5.9-3.5 1.3 0.1 2.7 0.8 3.8 2.1z"/>
							<path id="&lt;Path&gt;" class="s11" d="m346.2 369.7c0 0-14.3-5.4-21.5-10.4-4.8-3.4-7.7-12.4-8.6-15.6 0 0-1.8 11 2.1 17.4 4.7 7.9 25.4 14.8 25.4 14.8z"/>
						</g>
						<g id="&lt;Group&gt;">
							<path id="&lt;Path&gt;" class="s4" d="m355.9 298.6l-10.8 1.4c-0.3-3.1 1.9-5.9 4.9-6.3 2.9-0.3 5.6 1.8 5.9 4.9z"/>
							<path id="&lt;Path&gt;" class="s12" d="m349.2 341.4l18.1 7.3c-2.2 5.1-8.1 7.5-13.1 5.5-5-2-7.2-7.8-5-12.8z"/>
							<path id="&lt;Path&gt;" class="s11" d="m359.6 354.7c-1.1-5-5.8-8.6-11.1-8.1 0.4 3.3 2.4 6.3 5.7 7.6 1.8 0.7 3.6 0.8 5.4 0.5z"/>
							<path id="&lt;Path&gt;" class="s4" d="m396.2 305.7l-10.1-4.3c1.1-2.8 4.3-4.2 7-3 2.8 1.2 4.2 4.5 3.1 7.3z"/>
						</g>
					</g>
					<g id="&lt;Group&gt;">
						<path id="&lt;Compound Path&gt;" fill-rule="evenodd" class="s0" d="m407.4 313.3c-0.3 1.6-1.5 3.1-2.2 3.7-0.3 0.3-0.6 0.7-0.8 1.3-1 2.5-2 7.5-3.6 10.1-1.1 1.9-2.9 4.3-6.3 5.6-1.6 0.6-3.6 0.9-6.1 0.7q-2.3-0.2-4-0.7c-0.1 0-0.2-0.1-0.3-0.1q-1.6-0.6-2.8-1.4-0.1-0.1-0.3-0.2-0.1 0-0.1-0.1c-0.1 0-0.2-0.1-0.3-0.2-0.1 0-0.1-0.1-0.3-0.2-0.1-0.1-0.2-0.2-0.3-0.3q-0.2-0.2-0.3-0.3c-0.1-0.1-0.3-0.2-0.4-0.4q-0.2-0.3-0.5-0.6-0.1-0.1-0.2-0.2c-0.9-1.3-1.5-2.7-2-4.1-0.4-1-0.5-2.1-0.7-3.1-0.4-3-0.4-6-2.4-6.6q-0.1-0.1-0.3-0.1-0.2 0-0.4 0-0.3-0.1-0.5 0-0.2 0-0.3 0 0 0-0.1 0c-2.9 0.6-4.9 5.2-7.2 8.6-2.2 3.3-5.4 6.4-11.7 6.7q-1.3 0-2.8-0.1-0.6 0-1.1-0.1c-0.3-0.1-0.6-0.1-0.8-0.1q-1.1-0.2-2-0.5-0.3-0.1-0.6-0.2-0.3-0.1-0.5-0.2-0.2-0.1-0.4-0.2-1.2-0.5-2.1-1.2-0.4-0.3-0.7-0.6-0.7-0.5-1.2-1.2c-1.1-1.3-1.7-2.8-2.1-3.9-1-2.9-0.8-7.9-1.2-10.6-0.1-0.7-0.2-1.2-0.4-1.6-0.2-0.3-0.5-0.7-0.8-1.2-0.4-0.8-0.8-1.7-0.7-2.7 0.1-1 0.7-2 1.4-2.5 0.4-0.3 0.8-0.5 1.2-0.5q1-0.1 2-0.1c6.6-0.1 13.5 0.4 19.2 2 1 0.3 2.5 0.7 2.9 0.8 5.8 2.2 7.8 4.3 11.1 4.6 3.3 0.2 5.6-1.6 11.8-2.8 3-0.7 7-0.6 11.1-0.2q1.4 0.1 2.9 0.3 2.5 0.4 4.7 0.8 1 0.2 1.9 0.4c1 0.2 1.9 1.8 1.6 3.5zm-42.2-0.5c-3.9-5.3-20.1-7.2-23.5-4.3-2.4 2.7-1.7 12 0.4 15.6 2.1 4.3 9.4 5.7 14.5 4 3.9-1.4 6-4.7 7.1-6.7 1.8-3.5 2.5-6.8 1.5-8.6zm36.3 0.8q-0.4-0.5-1.3-1-0.1-0.1-0.1-0.1-0.3-0.2-0.7-0.3-0.2-0.1-0.4-0.2c-0.1 0-0.2-0.1-0.3-0.1q-0.1 0-0.2-0.1-0.1 0-0.1 0-0.2-0.1-0.3-0.1-0.2 0-0.3-0.1-0.5-0.1-1.1-0.3-0.2 0-0.5 0-0.1-0.1-0.3-0.1-0.2 0-0.4-0.1-0.2 0-0.4 0c-0.2-0.1-0.6-0.1-0.9-0.1q-0.2-0.1-0.4-0.1-0.1 0-0.3 0c-0.9 0-1.8-0.1-2.8 0-4.4 0.1-9.1 1.6-10.5 3.2-1.3 1.6-1.4 5.2-1.2 8.3 0.1 0.6 0.2 1.4 0.4 2.1q0 0.1 0 0.2 0 0.1 0.1 0.2 0 0 0 0.1 0.1 0.1 0.1 0.3 0.1 0.3 0.2 0.5 0.1 0.3 0.2 0.5c0 0 0 0.1 0 0.1q0.1 0.2 0.2 0.3 0 0.2 0.1 0.3 0 0 0.1 0.1c0.2 0.5 0.6 1 1 1.5 1.5 1.7 3.8 3.1 7.5 3.3 1.9 0.1 3.4-0.1 4.7-0.6 0.5-0.2 1-0.4 1.4-0.6 3.5-2 4.8-5.9 5.4-7.7 0.9-2.7 2.3-8 1.1-9.4z"/>
						<path id="&lt;Path&gt;" class="s0" d="m338.7 304.3l-43.4-2.5c3.1 1.5 4.4 2.9 6 5.3l36.2 2.6z"/>
					</g>
					<g id="&lt;Group&gt;">
						<path id="&lt;Path&gt;" class="s11" d="m370.6 317l-0.8 22.6 13.8-2.8-11.3-20.7c-0.8 0.1-1.6 0.7-1.7 0.9z"/>
					</g>
				</g>
				<g id="&lt;Group&gt;">
					<path id="&lt;Path&gt;" class="s2" d="m321.4 245.2c-12.7 7.5-27.5 22.4-28.2 56.2-5.6 2.9-9.2 9.3-9 16.9 0.4 10.6 8.2 19.5 17.5 19.9 9.2 0.4 16.4-7.9 16.1-18.5-0.3-7.9-6.4-17.1-13-18.3 0 0-1.8-14.6 7.1-33.5 11.8-24.9 35.6-26.4 57.4-27.3-7.3-3.9-30.7-5.7-47.9 4.6z"/>
					<path id="&lt;Path&gt;" class="s8" d="m321.4 245.2c-12.7 7.5-27.5 22.4-28.2 56.2-5.6 2.9-9.2 9.3-9 16.9 0.4 10.6 8.2 19.5 17.5 19.9 9.2 0.4 16.4-7.9 16.1-18.5-0.3-7.9-6.4-17.1-13-18.3 0 0-1.8-14.6 7.1-33.5 11.8-24.9 35.6-26.4 57.4-27.3-7.3-3.9-30.7-5.7-47.9 4.6z"/>
					<path id="&lt;Path&gt;" class="s2" d="m319.8 319.7c-0.4-11.7-9.1-21.6-19.3-22q-2.5-0.1-4.7 0.5c-1.2 0.3-5.1 1.7-5.9 2-7.2 2.5-12.3 10.2-11.9 19.6 0.4 11.8 9 21.6 19.3 22.1 1.9 0 3.8-0.2 5.5-0.8 0.9-0.3 4.6-1.6 5.5-1.9 7-2.7 11.8-10.3 11.5-19.5z"/>
					<path id="&lt;Path&gt;" class="s6" d="m319.8 319.7c-0.4-11.7-9.1-21.6-19.3-22q-2.5-0.1-4.7 0.5c-1.2 0.3-5.1 1.7-5.9 2-7.2 2.5-12.3 10.2-11.9 19.6 0.4 11.8 9 21.6 19.3 22.1 1.9 0 3.8-0.2 5.5-0.8 0.9-0.3 4.6-1.6 5.5-1.9 7-2.7 11.8-10.3 11.5-19.5z"/>
					<path id="&lt;Path&gt;" class="s2" d="m315.1 321.4c-0.4-11.8-9-21.6-19.3-22.1-10.3-0.4-18.3 8.8-17.8 20.5 0.4 11.8 9 21.6 19.3 22.1 10.2 0.4 18.2-8.8 17.8-20.5z"/>
					<path id="&lt;Path&gt;" class="s5" d="m315.1 321.4c-0.4-11.8-9-21.6-19.3-22.1-10.3-0.4-18.3 8.8-17.8 20.5 0.4 11.8 9 21.6 19.3 22.1 10.2 0.4 18.2-8.8 17.8-20.5z"/>
					<path id="&lt;Path&gt;" class="s0" d="m305.3 321c-0.2-5.6-4.3-10.2-9.1-10.4-4.9-0.2-8.6 4.1-8.4 9.6 0.2 5.6 4.2 10.2 9.1 10.4 4.8 0.2 8.6-4.1 8.4-9.6z"/>
				</g>
				<g id="&lt;Group&gt;">
					<path id="&lt;Path&gt;" class="s4" d="m394.2 339.6c0 0 5.4 3.4 10 8.3 4.7 4.9 3.3 11.1 0 14.5l-4.1-2c0 0 3.6-4.5 1.6-7.9-1.9-3.4-8.9-7.7-8.9-7.7z"/>
					<path id="&lt;Path&gt;" class="s2" d="m403.2 359.1c-3.1-2.6-5.4-0.9-9.4 4.5-4 5.3-2.7 7.4 0 9.3 2.7 2 5.6 0.6 8.7-3.9 3.5-5 4-7.1 0.7-9.9z"/>
					<path id="&lt;Path&gt;" class="s5" d="m403.4 359.2c-3.1-2.6-5.3-0.8-9.3 4.5-4 5.3-2.7 7.4 0 9.4 2.7 1.9 5.5 0.5 8.7-3.9 3.5-5.1 4-7.2 0.6-10z"/>
				</g>
			</g>
			<g id="Desk 4 ">
				<g id="&lt;Group&gt;">
					<path id="&lt;Path&gt;" class="s2" d="m413.4 892.8l-266.6-153.8 484.7-279.8 266.6 153.9z"/>
				</g>
				<g id="&lt;Group&gt;" style="opacity: .8">
					<path id="&lt;Path&gt;" class="s13" d="m413.4 892.8l-266.6-153.8 484.7-279.8 266.6 153.9z"/>
				</g>
				<g id="&lt;Group&gt;">
					<path id="&lt;Path&gt;" class="s2" d="m146.8 738.9v28l266.6 153.9v-28z"/>
				</g>
				<g id="&lt;Group&gt;" style="opacity: .5">
					<path id="&lt;Path&gt;" class="s13" d="m146.8 738.9v28l266.6 153.9v-28z"/>
				</g>
				<g id="&lt;Group&gt;">
					<path id="&lt;Path&gt;" class="s2" d="m413.4 920.8l484.7-279.7v-28.1l-484.7 279.8z"/>
				</g>
				<g id="&lt;Group&gt;" style="opacity: .7">
					<path id="&lt;Path&gt;" class="s13" d="m413.4 920.8l484.7-279.7v-28.1l-484.7 279.8z"/>
				</g>
			</g>
			<g id="Mouse">
				<path id="&lt;Path&gt;" class="s5" d="m389.6 706q0-0.3 0-0.7 0 0 0-0.1c-0.7-17.6-23.7-34-43.1-37.3-19.8-3.3-31.4 10.9-31.4 19.9 0 0 0 0.1 0 0.1-0.4 6.6 5.8 14.3 17.8 20.3 18.4 9.2 41.5 12 51.5 6.2 3.5-2 5.1-5 5.2-8.4 0 0 0 0 0 0z"/>
				<path id="&lt;Path&gt;" class="s0" d="m388.5 702q0-0.4-0.1-0.7 0 0 0-0.1c-0.6-16.8-22.5-32.4-41-35.5-18.9-3.2-30 10.3-30 18.9 0 0 0 0.1 0.1 0.1-0.5 6.3 5.5 13.6 16.9 19.3 17.6 8.8 39.6 11.5 49.1 5.9 3.4-1.9 4.9-4.7 4.9-7.9q0.1 0 0.1 0z"/>
				<path id="&lt;Path&gt;" class="s2" d="m376.8 680.2c-17.6 4.3-26.2 19.5-28.8 29.2q0.9 0.3 1.9 0.5c2.6-9.4 11-24.4 28.6-28.1q-0.8-0.8-1.7-1.6z"/>
				<path id="&lt;Path&gt;" class="s2" d="m385.7 708.3c-0.2-13.4-9-21.4-17.2-24.4l-0.7 1.9c8.2 2.9 16.4 10.8 15.9 24q1.2-0.7 2-1.5z"/>
			</g>
			<g id="Arm 1 ">
				<path id="&lt;Path&gt;" class="s9" d="m308 654.9c-13.1-12.5-65.6-41.3-85.7-57.5-20.9-16.9-22.6-21-20.6-47.8 1.7-23.5 11.2-102 16.1-127.3 5.2-27 14-39.9 42.7-45.4 8.8 9.2 19.1 36.5 8.3 80.9-4.5 21.7-15.4 93.7-15.4 93.7 0 0 19.2 19.5 45.2 44.7 11.8 11.4 28.7 26.1 42.8 35.5 7.8 5.2 21.8 16.1 24.8 19.9 3 3.9 16.6 25.5 19 31.5 2.3 5.9 8.3 18.2-3.4 19.8-10.7 1.5-18.2-4.2-25.4-11.3-4.7-4.5-9.5-10.9-9.5-10.9 0 0-12.4-0.2-22.9-8.8-5.7-4.6-16-17-16-17z"/>
				<path id="&lt;Path&gt;" class="s0" d="m263.5 375.9c-19.1 3.9-36.7 5.9-45.6 40.3-8.8 34.4-14.6 86.7-14.6 86.7 0 0 31.9 20.8 58.3 6l14.4-73.1c0 0 7.1-38.9-12.5-59.9z"/>
			</g>
			<g id="Keyboard 1 ">
				<path id="Shadow 11 " class="s5" d="m381.8 658.2l54.5 31.6c1.6 0.9 4.2 0.9 5.9 0l156.4-90.2c1.6-0.9 1.6-2.5 0-3.4l-54.5-31.6c-1.6-0.9-4.3-1-5.9 0l-156.4 90.2c-1.7 0.9-1.7 2.4 0 3.4z"/>
				<g id="Keyboard 4 ">
					<g id="&lt;Group&gt;">
						<path id="&lt;Path&gt;" class="s4" d="m592.2 591.5c0-0.6-0.4-1.2-1.2-1.6l-48.7-28.2c-1.6-0.9-4.2-0.9-5.8 0l-148.8 86c-0.8 0.5-1.2 1.1-1.2 1.7 0 0.6 0 4.5 0 5.1 0 0.6 0.4 1.2 1.2 1.7l48.7 28.1c1.6 1 4.2 1 5.8 0l148.8-85.8c0.8-0.5 1.2-1.1 1.2-1.7 0-0.6 0-4.7 0-5.3z"/>
						<path id="&lt;Path&gt;" class="s0" d="m436.4 679.1l-48.7-28c-1.6-0.9-1.6-2.4 0-3.4l148.7-86c1.7-0.9 4.3-0.9 5.9 0l48.7 28.2c1.6 0.9 1.6 2.4 0 3.3l-148.8 85.9c-1.6 0.9-4.2 0.9-5.8 0z"/>
						<path id="&lt;Path&gt;" class="s4" d="m439.1 679.8v5.2c-0.9 0-1.9-0.2-2.7-0.6l-48.7-28.2c-0.8-0.5-1.2-1.1-1.2-1.7v-5.1c0 0.6 0.4 1.2 1.2 1.7l48.7 28c0.8 0.4 1.8 0.7 2.7 0.7z"/>
					</g>
					<path id="&lt;Compound Path&gt;" fill-rule="evenodd" class="s2" d="m539 566.2q0.1 0 0.1 0l4.8 2.8-6.5 3.7-5-2.8 6.5-3.7zm7.6 4.3q0.1 0 0.1 0l4.8 2.8-5.1 3-5-2.8 5.1-3zm-16.7 0.9q0.1 0.1 0.1 0.1l4.9 2.8-5.2 2.9-5-2.8 5.2-2.9zm24.2 3.4q0.1 0 0.1 0l4.9 2.8-8.4 4.8-4.9-2.8 8.3-4.8zm-15.3 0.1q0.1 0 0.1 0l4.8 2.8-4.1 2.4-5-2.8 4.1-2.4zm-16.7 0.9q0.1 0 0.1 0l4.8 2.8-5.1 3-5-2.8 5.1-3zm10.1 3q0 0 0.1 0l4.8 2.8-4.1 2.3-5-2.8 4.1-2.3zm29.5 0.4q0.1 0 0.1 0l4.9 2.8-6.6 3.8-5-2.8 6.6-3.8zm-47.3 1.1q0.1 0 0.1 0l4.8 2.8-37.1 21.5-5-2.8 37.1-21.5zm28.8 0.8q0.1 0 0.2 0l4.8 2.8-4.1 2.4-5-2.8 4.1-2.4zm-17.8 1.6q0.1 0 0.1 0l4.9 2.8-4.1 2.3-5-2.8 4.1-2.3zm43.7 0.9q0.1 0 0.1 0l4.9 2.8-4.1 2.3-5-2.8 4.1-2.3zm-16.7 0.9q0.1 0 0.1 0l4.8 2.8-4.1 2.3-5-2.8 4.1-2.3zm-16 0.5q0.1 0 0.1 0l4.9 2.8-4.1 2.4-5-2.8 4.1-2.4zm-17.8 1.5q0.1 0 0.1 0l4.8 2.8-4 2.4-5-2.8 4-2.4zm43.8 0.9q0.1 0 0.1 0.1l4.8 2.7-4 2.4-5-2.8 4-2.4zm-16.6 1q0 0 0.1 0l4.8 2.8-4.1 2.3-5-2.8 4.1-2.3zm-16 0.5q0.1 0 0.1 0l4.8 2.8-4.1 2.3-4.9-2.8 4-2.3zm48.6 0q0.1 0 0.1 0l4.8 2.8-5.1 3-5-2.9 5.1-2.9zm-66.3 1.5q0.1 0 0.1 0l4.9 2.8-4.1 2.4-5-2.8 4.1-2.4zm43.7 0.9q0.1 0 0.1 0l4.9 2.8-4.1 2.4-5-2.8 4.1-2.4zm-16.7 0.9q0.1 0 0.1 0.1l4.8 2.7-4.1 2.4-5-2.8 4.1-2.4zm-16 0.6q0.1 0 0.1 0l4.8 2.8-4 2.3-5-2.8 4.1-2.3zm-17.8 1.5q0.1 0 0.1 0l4.8 2.8-4.1 2.3-4.9-2.8 4-2.3zm62.4 0.8q0.1 0 0.1 0l4.8 2.8-4.1 2.3-5-2.8 4.1-2.3zm-18.6 0.1q0.1 0 0.1 0l4.9 2.8-4.1 2.4-5-2.8 4.1-2.4zm-16.7 0.9q0.1 0 0.1 0l4.8 2.8-4.1 2.4-5-2.8 4.1-2.4zm-16 0.5q0.1 0 0.1 0.1l4.9 2.7-4.1 2.4-5-2.8 4.1-2.4zm-17.8 1.6q0.1 0 0.1 0l4.9 2.8-4.1 2.3-5-2.8 4.1-2.3zm62.3 0.7q0.1 0 0.1 0.1l4.8 2.7-4.1 2.4-5-2.8 4.1-2.4zm-18.5 0.2q0 0 0.1 0l4.8 2.8-4.1 2.3-5-2.8 4.1-2.3zm-16.7 0.9q0.1 0 0.1 0l4.8 2.8-4.1 2.4-4.9-2.8 4-2.4zm-16 0.5q0.1 0 0.2 0l4.8 2.8-4.1 2.4-5-2.8 4.1-2.4zm-17.8 1.6q0.1 0 0.1 0l4.9 2.8-4.1 2.3-5-2.8 4.1-2.3zm62.3 0.7q0.1 0 0.1 0l4.8 2.8-4.1 2.4-4.9-2.8 4-2.4zm-18.5 0.2q0.1 0 0.1 0l4.8 2.8-4.1 2.3-5-2.8 4.1-2.3zm-61.2 0.4q0.1 0 0.2 0l4.8 2.8-5.2 3-4.9-2.8 5.1-3zm44.4 0.5q0.1 0 0.2 0l4.8 2.8-4.1 2.4-5-2.8 4.1-2.4zm-16 0.5q0.1 0 0.1 0l4.8 2.8-4.1 2.4-4.9-2.8 4-2.4zm-17.7 1.5q0.1 0 0.1 0.1l4.8 2.7-4.1 2.4-5-2.8 4.1-2.4zm62.4 0.8q0 0 0.1 0l4.8 2.8-4.1 2.4-5-2.8 4.1-2.4zm-18.6 0.1q0.1 0.1 0.1 0.1l4.9 2.8-4.1 2.3-5-2.8 4.1-2.3zm-16.7 0.9q0.1 0 0.1 0l4.8 2.8-4.1 2.3-5-2.8 4.1-2.3zm-45.5 0.1q0.1 0 0.1 0l4.8 2.8-5.1 3-5-2.8 5.1-3zm29.6 0.4q0 0 0.1 0l4.8 2.8-4.1 2.4-5-2.8 4.1-2.4zm-17.8 1.5q0.1 0 0.2 0.1l4.8 2.7-4.1 2.4-5-2.8 4.1-2.4zm43.7 0.9q0.1 0 0.2 0.1l4.8 2.7-4.1 2.4-5-2.8 4.1-2.4zm-16.7 1q0.1 0 0.1 0l4.8 2.8-4.1 2.3-5-2.8 4.1-2.3zm-16 0.5q0.1 0 0.1 0l4.9 2.8-4.1 2.3-5-2.8 4.1-2.3zm48.3 0.1q0.1 0 0.1 0l4.9 2.8-4.1 2.4-5-2.8 4.1-2.4zm-79 0.1q0.1 0 0.1 0l4.9 2.8-5.2 3-5-2.8 5.2-3zm12.8 1.3q0.1 0 0.1 0l4.8 2.8-4.1 2.4-4.9-2.8 4-2.4zm43.8 0.9q0.1 0 0.1 0.1l4.8 2.7-4.1 2.4-4.9-2.8 4-2.4zm-16.7 1q0.1 0 0.1 0l4.9 2.8-4.1 2.3-5-2.8 4.1-2.3zm-16 0.5q0.1 0 0.1 0l4.8 2.8-4.1 2.3-5-2.8 4.1-2.3zm48.4 0.1q0.1 0 0.1 0l4.8 2.8-4.1 2.4-5-2.9 4.1-2.3zm-80 0.7q0.1 0 0.1 0l4.9 2.8-6.6 3.8-5-2.8 6.6-3.8zm13.8 0.7q0.1 0 0.1 0l4.9 2.8-12.9 7.5-5-2.8 12.9-7.5zm43.7 0.9q0.1 0 0.2 0l4.8 2.8-4.1 2.4-5-2.8 4.1-2.4zm-16.7 0.9q0.1 0.1 0.1 0.1l4.8 2.8-4.1 2.3-5-2.8 4.1-2.3zm-16 0.5q0.1 0 0.1 0l4.9 2.8-4.1 2.3-5-2.8 4.1-2.3zm48.3 0.1q0.1 0 0.1 0l4.9 2.8-4.1 2.3-5-2.8 4.1-2.3zm-22.4 2.3q0.1 0 0.1 0l4.9 2.8-4.1 2.4-5-2.8 4.1-2.4zm-61.6 0.6q0.1 0 0.1 0.1l4.9 2.7-4.1 2.4-5-2.8 4.1-2.4zm44.8 0.3q0.1 0 0.1 0.1l4.8 2.7-4.1 2.4-4.9-2.8 4-2.4zm-16 0.5q0.1 0.1 0.1 0.1l4.9 2.8-3.8 2.1c-0.2 0.2-0.4 0.4-0.4 0.7 0 0.3 0.2 0.5 0.5 0.7l6.3 3.7-4.8 2.7-12.5-7.1 9.7-5.6zm48.3 0.1q0.1 0 0.1 0l4.9 2.8-4.1 2.3-5-2.8 4.1-2.3zm-22.4 2.3q0.1 0 0.1 0l4.9 2.8-4.1 2.3-5-2.8 4.1-2.3zm-61.5 0.6q0 0 0.1 0l4.8 2.8-4.1 2.4-5-2.8 4.1-2.4zm44.8 0.3q0.1 0 0.1 0l4.8 2.8-4 2.4-5-2.8 4-2.4zm29.5 2.3q0.1 0 0.1 0l4.8 2.8-4 2.4-5-2.8 4-2.4zm-19.4 0.7q0.1 0 0.1 0l4.8 2.8-4 2.3-5-2.8 4-2.3zm-61.5 0.6q0.1 0 0.1 0l4.9 2.8-4.1 2.4-5-2.8 4.1-2.4zm14.2 0.5q0.1 0 0.1 0l4.8 2.8-4 2.4-5-2.8 4-2.4zm60.1 2.1q0.1 0 0.1 0l4.8 2.8-4.1 2.4-5-2.8 4.1-2.4zm-19.4 0.6q0.1 0 0.1 0.1l4.8 2.7-7.2 4.2-5-2.8 7.2-4.1zm-62.9 1.4q0.1 0 0.1 0l4.8 2.8-10.7 6.2-5-2.8 10.7-6.2zm44.1 0.7q0.1 0 0.2 0l4.8 2.8-4.1 2.4-5-2.8 4.1-2.4zm31.5 1.1q0.1 0 0.2 0l4.8 2.8-4.1 2.3-5-2.8 4.1-2.3zm-68.1 2.6q0.1 0 0.1 0l4.8 2.8-4.1 2.3-5-2.8 4.1-2.3zm29.9 0.2q0.1 0 0.1 0l4.8 2.8-4.1 2.3-5-2.8 4.1-2.3zm14.3 0.5q0 0 0.1 0l4.8 2.8-4.1 2.3-5-2.8 4.1-2.3zm17.3 0.6q0.1 0 0.1 0l4.9 2.8-4.1 2.3-5-2.8 4.1-2.3zm-82.4 2q0.1 0 0.1 0.1l4.8 2.7-4.1 2.4-4.9-2.8 4-2.4zm14.3 0.5q0.1 0.1 0.1 0.1l4.8 2.8-4.1 2.3-5-2.8 4.1-2.3zm29.9 0.1q0.1 0 0.1 0.1l4.8 2.7-4.1 2.4-5-2.8 4.1-2.4zm-15.6 0.4q0.1 0 0.1 0l4.8 2.8-4.1 2.3-5-2.8 4.1-2.3zm29.9 0.2q0.1 0 0.1 0l4.8 2.8-4 2.3-5-2.8 4-2.3zm15.9 1.4q0.1 0 0.1 0l4.8 2.8-4.1 2.4-4.9-2.8 4-2.4zm-80.9 1.2q0.1 0 0.2 0l12.3 7.2-4 2.3-12.6-7.1 4.1-2.4zm14.2 0.5q0.1 0 0.1 0.1l4.9 2.7-4.1 2.4-5-2.8 4.1-2.4zm14.2 0.5q0.1 0 0.1 0.1l4.8 2.7-4.1 2.4-4.9-2.8 4-2.4zm29.9 0.2q0.1 0 0.1 0.1l4.8 2.7-4 2.4-5-2.8 4.1-2.4zm-15.7 0.3q0.1 0.1 0.1 0.1l4.8 2.8-4 2.3-5-2.8 4-2.3zm31.5 1.1q0.1 0 0.1 0l4.9 2.8-4.1 2.3-5-2.8 4.1-2.3zm-52.4 2.2q0.1 0 0.1 0l4.8 2.8-4.1 2.4-5-2.8 4.1-2.4zm14.2 0.5q0.1 0 0.1 0l4.9 2.8-4.1 2.4-5-2.8 4.1-2.4zm14.2 0.5q0.1 0 0.1 0.1l4.9 2.7-4.1 2.4-5-2.8 4.1-2.4zm17.2 0.7q0.1 0 0.1 0l4.8 2.8-4 2.3-5-2.8 4.1-2.3zm-52.5 2.2q0.1 0 0.2 0l12.3 7.2-4.1 2.3-12.5-7.1 4.1-2.4zm14.2 0.5q0.1 0 0.1 0l4.9 2.8-4.1 2.4-5-2.8 4.1-2.4zm14.2 0.5q0.1 0 0.1 0l4.8 2.8-4.1 2.4-4.9-2.8 4-2.4zm17.8 2.6q0.1 0 0.1 0l2.1 1.2-4.1 2.3-2.2-1.2 4.1-2.3zm-24.5 1.3q0.1 0 0.1 0l4.8 2.8-4.1 2.3-5-2.8 4.1-2.3zm17.8 2.5q0.1 0 0.1 0.1l2.1 1.1-4.1 2.4-2.2-1.2 4.1-2.4zm-24.5 1.4q0.1 0 0.1 0l4.8 2.8-4.1 2.3-5-2.8 4.1-2.3zm17.8 2.5q0.1 0 0.1 0l2.1 1.2-4.1 2.4-2.2-1.2 4-2.4zm-6.6 3.9q0.1 0 0.1 0l2.1 1.2-4.1 2.3-2.3-1.2 4.1-2.3z"/>
				</g>
			</g>
			<path id="Hand" class="s9" d="m405.6 502.9c0 0 8.6 2.8 49.1 15.5 17.6 5.5 37.3 11.2 52.3 19.1 8.3 4.4 23.4 13.7 26.8 17.2 3.3 3.5 19.2 23.6 22.1 29.3 3 5.7 10.2 17.3-1.3 20.1-10.4 2.6-18.5-2.3-26.4-8.5-5.2-4.1-10.6-9.9-10.6-9.9 0 0-13.2 2.3-23.7-6.3-4.8-4-10-11.8-15.3-14.6-16.1-5.2-46.7-8.2-91.1-18.1"/>
		</g>
	</g>
	<g id="Device">
		<g id="&lt;Group&gt;">
			<path id="&lt;Path&gt;" class="s5" d="m777.2 625.7l-11-6.1c-3.4-2.1-9-2.2-12.4-0.2l-54.7 31.6-7.2-4.2c-3-1.8-8-1.8-11.1-0.1l-66.3 38.6c-3.1 1.8-3.1 4.7 0 6.4l7 4.1-79 45.6c-3.5 2-3.5 5.2 0 7.2l11 6.4c3.4 2 9 2 12.5 0l79-45.6c3.1 1.7 8 1.7 11.1 0l66.1-38.5c3-1.7 3.1-4.5 0.2-6.2l54.7-31.6c3.4-2 3.5-5.3 0.1-7.4z"/>
			<g id="&lt;Group&gt;">
				<g id="&lt;Group&gt;">
					<g id="&lt;Group&gt;">
						<path id="&lt;Path&gt;" class="s4" d="m763.3 571.6l15.4-183.2c0.4-5.2-2.6-11.3-6.8-13.8-4.2-2.4-11.3-2.3-15.7 0.3l-230.3 133c-4.5 2.5-8.4 8.8-8.9 14l-15.4 183.2c-0.4 5.1 2.7 11.3 6.9 13.7 4.2 2.4 11.2 2.3 15.7-0.3l230.2-132.9c4.5-2.6 8.5-8.9 8.9-14z"/>
					</g>
					<g id="&lt;Group&gt;">
						<path id="&lt;Path&gt;" class="s7" d="m763.3 571.6l15.4-183.2c0.4-5.2-2.6-11.3-6.8-13.8-4.2-2.4-11.3-2.3-15.7 0.3l-230.3 133c-2.2 1.2-4.3 3.4-5.9 5.9l28.2 16.3-1.7 175.5 207.9-120c4.5-2.6 8.5-8.9 8.9-14z"/>
					</g>
					<g id="&lt;Group&gt;">
						<path id="&lt;Path&gt;" class="s0" d="m516.8 713.9l15.5-183.2c0.4-5.2 4.4-11.5 8.8-14.1l227.5-131.4c4.4-2.6 6.3-0.6 5.9 4.5l-11.2 181.9c-0.4 5.1-4.4 11.4-8.9 14l-230.2 132.9c-4.5 2.6-7.8 0.5-7.4-4.6z"/>
					</g>
					<g id="&lt;Group&gt;">
						<path id="&lt;Path&gt;" class="s2" d="m642 552.6c0.7-8.5 6.7-18.5 13.3-22.4 6.7-3.8 11.5-0.1 10.8 8.4-0.7 8.5-6.7 18.5-13.3 22.4-6.6 3.8-11.5 0-10.8-8.4z"/>
					</g>
				</g>
				<g id="&lt;Group&gt;">
					<g id="&lt;Group&gt;">
						<path id="&lt;Path&gt;" class="s7" d="m640.5 616.2l44.6-26-7.6-4.4-44.6 26z"/>
					</g>
					<g id="&lt;Group&gt;">
						<path id="&lt;Path&gt;" class="s0" d="m705.8 666.3l-54.3 31.4c-1 0.6-2.3 0.8-3.5 0.8-1.1 0-2.2-0.3-3-0.7 0 0 0-0.1-0.1-0.1l-23.9-13.8c0 0-0.1 0-0.1-0.1-1.8-1-3.1-3.5-3.1-5.5v-1.3c0-2.1 1.4-2.9 3.2-1.9l14.5 8.3 3.2 1.9-0.7-3.6-5.1-69.9 7.6 4.4 44.6-26 23.3 70.6c0.3 2-0.8 4.5-2.6 5.5z"/>
					</g>
					<g id="&lt;Group&gt;">
						<path id="&lt;Path&gt;" class="s14" d="m618.8 674.9l18.5-10.7 3.8 24.9z"/>
					</g>
					<g id="&lt;Group&gt;">
						<path id="&lt;Path&gt;" class="s4" d="m640.5 616.2l-7.6-4.4 5.1 69.9c0.4 2-0.8 2.8-2.5 1.7l-14.5-8.3c-1.8-1-3.2-0.2-3.2 1.9v1.3c0 2 1.3 4.5 3.1 5.5 0 0.1 0.1 0.1 0.1 0.1l23.9 13.8c0.1 0 0.1 0.1 0.1 0.1 0.8 0.4 1.9 0.7 3 0.7z"/>
					</g>
				</g>
			</g>
		</g>
		<g id="Text Boxes">
			<g id="&lt;Group&gt;">
				<g id="&lt;Group&gt;">
					<g id="&lt;Group&gt;">
						<g id="&lt;Group&gt;">
							<g id="&lt;Group&gt;">
								<path id="&lt;Path&gt;" class="s2" d="m563.1 413c-5.1 2.9-9.2 10-9.2 15.8 0 5.9 4.1 8.3 9.2 5.3 5-2.9 9.1-10 9.1-15.8 0-5.9-4.1-8.3-9.1-5.3z"/>
							</g>
							<g id="&lt;Group&gt;">
								<path id="&lt;Path&gt;" class="s15" d="m557.8 424.9c0-1 0.2-2.1 0.6-3v-0.1c0.5-1.1 1.2-2 1.9-2.4 1.4-0.8 2.5 0.8 2.6 2.6 0.2-2 1.3-4.9 2.6-5.7 0.8-0.4 1.5-0.3 1.9 0.2h0.1c0.4 0.5 0.6 1.3 0.6 2.3 0 3.2-1.9 6-3.4 9l-1.7 3.2-1.7-1.2c-1.6-1.1-3.5-1.8-3.5-4.9z"/>
							</g>
						</g>
						<g id="&lt;Group&gt;">
							<g id="&lt;Group&gt;">
								<path id="&lt;Path&gt;" class="s2" d="m587.5 398.9c-5.1 2.9-9.2 10-9.2 15.9 0 5.8 4.1 8.2 9.2 5.2 5.1-2.9 9.2-10 9.2-15.8 0-5.9-4.1-8.2-9.2-5.3z"/>
							</g>
							<g id="&lt;Group&gt;">
								<path id="&lt;Path&gt;" class="s15" d="m582.2 410.8c0-1 0.2-2.1 0.6-3h0.1c0.4-1.1 1.1-2.1 1.9-2.5 1.3-0.8 2.4 0.8 2.6 2.7 0.1-2.1 1.2-5 2.5-5.7 0.8-0.5 1.5-0.4 2 0.2 0.4 0.4 0.7 1.2 0.7 2.2 0 3.2-1.9 6-3.5 9l-1.7 3.2-1.7-1.2c-1.6-1.1-3.5-1.7-3.5-4.9z"/>
							</g>
						</g>
						<g id="&lt;Group&gt;">
							<g id="&lt;Group&gt;">
								<path id="&lt;Path&gt;" class="s2" d="m611.9 384.8c-5 2.9-9.1 10-9.1 15.9 0 5.8 4.1 8.2 9.1 5.3 5.1-3 9.2-10.1 9.2-15.9 0-5.8-4.1-8.2-9.2-5.3z"/>
							</g>
							<g id="&lt;Group&gt;">
								<path id="&lt;Path&gt;" class="s0" d="m606.6 396.7c0-1 0.3-2.1 0.7-3 0.5-1.1 1.2-2 1.9-2.5 1.3-0.8 2.4 0.8 2.6 2.7 0.2-2.1 1.3-4.9 2.6-5.7 0.8-0.5 1.4-0.4 1.9 0.2 0.4 0.5 0.7 1.2 0.7 2.2 0 3.2-1.9 6.1-3.5 9.1l-1.6 3.1-1.7-1.2c-1.6-1.1-3.5-1.7-3.6-4.9z"/>
							</g>
						</g>
						<g id="&lt;Group&gt;">
							<g id="&lt;Group&gt;">
								<path id="&lt;Path&gt;" class="s2" d="m636.4 370.7c-5.1 2.9-9.2 10.1-9.2 15.9 0 5.8 4.1 8.2 9.2 5.3 5-2.9 9.2-10 9.2-15.9 0-5.8-4.2-8.2-9.2-5.3z"/>
							</g>
							<g id="&lt;Group&gt;">
								<path id="&lt;Path&gt;" class="s0" d="m631.1 382.7c0-1.1 0.2-2.1 0.6-3.1 0.5-1.1 1.2-2 2-2.5 1.3-0.8 2.4 0.8 2.6 2.7 0.1-2.1 1.2-4.9 2.5-5.7 0.8-0.5 1.5-0.3 2 0.2 0.4 0.5 0.6 1.2 0.6 2.3 0.1 3.1-1.8 6-3.4 9l-1.7 3.1-1.7-1.1c-1.6-1.2-3.5-1.8-3.5-4.9z"/>
							</g>
						</g>
						<g id="&lt;Group&gt;">
							<g id="&lt;Group&gt;">
								<path id="&lt;Path&gt;" class="s2" d="m660.8 356.6c-5 3-9.1 10.1-9.1 15.9 0 5.9 4.1 8.2 9.1 5.3 5.1-2.9 9.2-10 9.2-15.9 0-5.8-4.1-8.2-9.2-5.3z"/>
							</g>
							<g id="&lt;Group&gt;">
								<path id="&lt;Path&gt;" class="s0" d="m655.5 368.6c0-1 0.3-2.1 0.7-3.1 0.4-1.1 1.1-2 1.9-2.5 1.3-0.7 2.4 0.8 2.6 2.7 0.2-2 1.2-4.9 2.6-5.7 0.7-0.4 1.4-0.3 1.9 0.2 0.4 0.5 0.7 1.3 0.7 2.3 0 3.1-1.9 6-3.5 9l-1.7 3.2-1.6-1.2c-1.6-1.2-3.6-1.8-3.6-4.9z"/>
							</g>
						</g>
					</g>
					<g id="&lt;Group&gt;">
						<g id="&lt;Group&gt;">
							<path id="&lt;Path&gt;" class="s2" d="m583.4 330.7c0 11.7-7.1 25.3-15.9 30.4-8.8 5-15.9-0.4-15.9-12.1 0-11.7 7.1-25.3 15.9-30.4 8.8-5 15.9 0.3 15.9 12.1z"/>
						</g>
						<g id="&lt;Group&gt;">
							<path id="&lt;Path&gt;" class="s0" d="m573.8 327.9c0 4.6-2.8 10-6.3 12-3.5 2.1-6.3-0.1-6.3-4.7 0-4.7 2.8-10.1 6.3-12.1 3.5-2 6.3 0.1 6.3 4.8z"/>
						</g>
						<g id="&lt;Group&gt;">
							<path id="&lt;Path&gt;" class="s0" d="m576.6 346.4v0.9c-2.3 4.4-5.6 8.2-9.1 10.3-3.6 2-6.8 2-9.2 0.3v-1c0-5.6 3.5-12.2 7.7-14.7l2.9-1.6c4.3-2.5 7.7 0.1 7.7 5.8z"/>
						</g>
					</g>
					<g id="&lt;Group&gt;">
						<path id="&lt;Compound Path&gt;" class="s2" d="m596.5 313.5q0-0.3 0.1-0.6 0.2-0.2 0.4-0.3l1.4-0.8q0.2-0.2 0.4-0.1 0.1 0.1 0.1 0.4 0 1-0.4 2.2-0.3 1.1-0.9 2.3-0.7 1.2-1.6 2.2-1 1.1-2.4 1.9-1.3 0.7-2.2 0.8-1 0-1.6-0.5-0.7-0.4-1-1.4-0.4-1.1-0.5-2.4 0-0.9 0-2 0-1.1 0-2.1 0.1-1.4 0.5-2.9 0.3-1.4 1-2.6 0.6-1.3 1.6-2.3 0.9-1.1 2.2-1.8 1.4-0.8 2.4-0.8 0.9-0.1 1.6 0.3 0.6 0.4 0.9 1.2 0.4 0.8 0.4 1.8 0 0.2-0.1 0.5-0.2 0.3-0.4 0.4l-1.4 0.8q-0.2 0.1-0.4 0.1-0.1-0.1-0.2-0.4 0-0.4-0.2-0.8-0.2-0.3-0.5-0.5-0.4-0.1-0.9-0.1-0.5 0.1-1.2 0.5-0.7 0.4-1.2 1-0.6 0.6-0.9 1.3-0.4 0.6-0.5 1.4-0.2 0.8-0.3 1.6 0 0.9 0 2 0 1.1 0 2 0.1 0.7 0.3 1.3 0.1 0.5 0.5 0.8 0.3 0.3 0.9 0.2 0.5 0 1.2-0.4 0.7-0.4 1.2-0.9 0.5-0.5 0.9-1.1 0.3-0.6 0.5-1.1 0.2-0.6 0.3-1.1z"/>
						<path id="&lt;Compound Path&gt;" class="s2" d="m605.2 304.2q-1.1 0.6-1.6 1.5-0.4 1-0.4 2.4v6.2q0 0.2-0.2 0.5-0.1 0.3-0.3 0.4l-1.4 0.8q-0.2 0.1-0.3 0-0.2-0.1-0.2-0.4v-11.1q0-0.3 0.2-0.5 0.1-0.3 0.3-0.4l1.4-0.8q0.2-0.1 0.3 0 0.2 0.1 0.2 0.4v0.5q0.4-0.8 1-1.4 0.5-0.7 1.3-1.2l0.8-0.4q0.2-0.1 0.4 0 0.1 0.1 0.1 0.4v1.5q0 0.3-0.1 0.6-0.2 0.2-0.4 0.3z"/>
						<path id="&lt;Compound Path&gt;" fill-rule="evenodd" class="s2" d="m608.2 302.7q0-0.6 0.3-1.3 0.3-0.7 0.7-1.5 0.5-0.8 1.2-1.5 0.7-0.7 1.6-1.2 0.9-0.5 1.7-0.6 0.7-0.1 1.2 0.2 0.5 0.3 0.8 1.1 0.3 0.7 0.3 2v7q0 0.2-0.1 0.5-0.2 0.3-0.4 0.4l-1.3 0.8q-0.2 0.1-0.4 0-0.1-0.1-0.1-0.4v-0.8q-0.4 0.9-1.1 1.8-0.7 0.9-1.8 1.6-0.8 0.4-1.4 0.5-0.6 0.1-1-0.2-0.4-0.3-0.6-0.8-0.2-0.6-0.2-1.4 0-1.6 0.8-3.1 0.9-1.4 2.4-2.6l2.9-2.3q0-1-0.5-1.1-0.5-0.2-1.2 0.2-0.4 0.3-0.7 0.6-0.2 0.3-0.5 0.7-0.1 0.3-0.3 0.5-0.1 0.1-0.3 0.2l-1.6 1q-0.2 0.1-0.3 0-0.2-0.1-0.1-0.3zm3 5q0.6-0.4 1-0.9 0.5-0.5 0.8-1 0.4-0.6 0.5-1.2 0.2-0.5 0.2-1v-0.3l-2.4 2q-0.8 0.6-1.1 1.1-0.3 0.5-0.3 1.1 0 0.5 0.4 0.5 0.3 0 0.9-0.3z"/>
						<path id="&lt;Compound Path&gt;" class="s2" d="m625.7 299.1q0.2-0.1 0.3 0 0.2 0.1 0.2 0.3v1.6q0 0.3-0.2 0.5-0.1 0.3-0.3 0.4l-7.3 4.2q-0.2 0.1-0.3 0-0.2-0.1-0.2-0.3v-1.7q0-0.2 0.1-0.5 0.1-0.2 0.2-0.4l4.4-9.1-4 2.4q-0.2 0.1-0.4 0-0.1-0.1-0.1-0.4v-1.6q0-0.2 0.1-0.5 0.2-0.3 0.4-0.4l6.7-3.9q0.2-0.1 0.4 0 0.1 0.1 0.1 0.4v1.6q0 0.2-0.1 0.5-0.1 0.3-0.2 0.5l-4.4 9z"/>
						<path id="&lt;Compound Path&gt;" class="s2" d="m630.7 298.4l-3.6-8.9q0-0.1 0-0.2 0-0.2 0.2-0.5 0.1-0.3 0.3-0.4l1.3-0.8q0.3-0.1 0.4 0 0.2 0.1 0.2 0.3l2.4 6 2.4-8.8q0.1-0.2 0.2-0.5 0.2-0.3 0.4-0.4l1.3-0.8q0.2-0.1 0.4 0 0.1 0.1 0.1 0.4 0 0.1 0 0.2l-5 18.4q-0.1 0.3-0.2 0.5-0.2 0.3-0.4 0.4l-1.4 0.8q-0.2 0.1-0.3 0-0.2-0.1-0.2-0.3 0.1-0.1 0.1-0.2z"/>
						<path id="&lt;Compound Path&gt;" fill-rule="evenodd" class="s2" d="m643.8 274.8q2.2-1.3 3.4-0.6 1.2 0.6 1.2 3.3 0 2.6-1.2 4.7-1.2 2-3.4 3.3l-2.8 1.6v5.4q0 0.2-0.2 0.5-0.1 0.3-0.3 0.4l-1.5 0.8q-0.2 0.1-0.3 0-0.1-0.1-0.1-0.3v-15.5q0-0.2 0.1-0.5 0.1-0.3 0.3-0.4zm-2.8 9.4l2.7-1.6q1.1-0.6 1.7-1.5 0.6-0.8 0.6-2.2 0-1.3-0.6-1.5-0.6-0.1-1.7 0.5l-2.7 1.6z"/>
						<path id="&lt;Compound Path&gt;" class="s2" d="m652.5 285.8q0 0.3-0.1 0.5-0.2 0.3-0.4 0.4l-1.3 0.8q-0.2 0.1-0.4 0-0.1-0.1-0.1-0.4v-15.6q0-0.3 0.1-0.5 0.2-0.3 0.4-0.4l1.3-0.8q0.2-0.1 0.4 0 0.1 0.1 0.1 0.3z"/>
						<path id="&lt;Compound Path&gt;" fill-rule="evenodd" class="s2" d="m655 275.7q0-0.6 0.3-1.3 0.3-0.7 0.7-1.5 0.5-0.8 1.2-1.5 0.7-0.7 1.6-1.2 0.9-0.6 1.7-0.7 0.7-0.1 1.2 0.3 0.5 0.3 0.8 1 0.3 0.8 0.3 2v7q0 0.3-0.1 0.6-0.2 0.3-0.4 0.4l-1.3 0.8q-0.2 0.1-0.4 0-0.1-0.1-0.1-0.4v-0.8q-0.4 0.9-1.1 1.8-0.7 0.9-1.8 1.5-0.8 0.5-1.4 0.6-0.6 0-1-0.2-0.4-0.3-0.6-0.8-0.2-0.6-0.2-1.4-0.1-1.7 0.8-3.1 0.9-1.4 2.4-2.6l2.9-2.4q0-0.9-0.5-1.1-0.5-0.1-1.2 0.3-0.4 0.3-0.7 0.6-0.2 0.3-0.5 0.7-0.1 0.3-0.3 0.5-0.1 0.1-0.3 0.2l-1.6 1q-0.2 0.1-0.3 0-0.2-0.1-0.1-0.3zm3 5q0.6-0.4 1-0.9 0.5-0.5 0.8-1.1 0.4-0.5 0.5-1.1 0.2-0.6 0.2-1.1v-0.2l-2.4 2q-0.8 0.6-1.1 1.1-0.3 0.5-0.3 1 0 0.5 0.4 0.5 0.3 0.1 0.9-0.2z"/>
						<path id="&lt;Compound Path&gt;" class="s2" d="m667.8 277l-3.6-8.9q0-0.1 0-0.2 0-0.2 0.1-0.5 0.2-0.3 0.4-0.4l1.3-0.8q0.2-0.1 0.4 0 0.2 0.1 0.2 0.3l2.4 6 2.4-8.8q0-0.2 0.2-0.5 0.1-0.3 0.4-0.4l1.3-0.8q0.2-0.1 0.3 0 0.2 0.1 0.2 0.4 0 0.1 0 0.2l-5.1 18.4q0 0.3-0.2 0.5-0.1 0.3-0.4 0.4l-1.3 0.8q-0.2 0.1-0.3 0-0.2-0.1-0.2-0.3 0-0.1 0-0.2z"/>
						<path id="&lt;Compound Path&gt;" fill-rule="evenodd" class="s2" d="m674.6 267.5q0-1.4 0.3-2.7 0.3-1.4 0.9-2.6 0.6-1.2 1.4-2.1 0.8-1 1.8-1.6 1-0.6 1.8-0.5 0.8 0 1.4 0.5 0.6 0.5 0.9 1.4 0.3 0.9 0.3 2.1v1.1q0 0.3-0.2 0.5-0.1 0.3-0.3 0.4l-6 3.5q0 0.5 0.2 0.8 0.2 0.4 0.5 0.5 0.2 0.1 0.6 0 0.4 0 0.8-0.3 0.6-0.3 0.9-0.7 0.4-0.3 0.6-0.7 0.2-0.3 0.3-0.4 0.2-0.2 0.4-0.3l1.4-0.8q0.2-0.2 0.3 0 0.2 0.1 0.2 0.3 0 0.4-0.3 1-0.3 0.7-0.8 1.5-0.5 0.8-1.3 1.6-0.7 0.8-1.7 1.4-1 0.6-1.8 0.6-0.8 0-1.4-0.5-0.6-0.6-0.9-1.6-0.3-1-0.3-2.4zm4.4-6.1q-0.5 0.3-0.9 0.7-0.4 0.4-0.6 0.9-0.3 0.4-0.4 0.9-0.1 0.5-0.2 0.9l4.1-2.4q-0.1-0.3-0.2-0.7-0.1-0.3-0.3-0.5-0.2-0.2-0.6-0.2-0.3 0-0.9 0.4z"/>
						<path id="&lt;Compound Path&gt;" class="s2" d="m689.7 255.4q-1.1 0.7-1.6 1.6-0.4 0.9-0.4 2.3v6.2q0 0.3-0.2 0.5-0.1 0.3-0.3 0.4l-1.4 0.8q-0.2 0.1-0.3 0-0.2-0.1-0.2-0.4v-11.1q0-0.2 0.2-0.5 0.1-0.3 0.3-0.4l1.4-0.8q0.2-0.1 0.3 0 0.2 0.1 0.2 0.4v0.5q0.4-0.8 1-1.4 0.5-0.6 1.3-1.1l0.8-0.5q0.2-0.1 0.4 0 0.1 0.1 0.1 0.4v1.5q0 0.3-0.1 0.6-0.2 0.2-0.4 0.4z"/>
						<path id="&lt;Compound Path&gt;" fill-rule="evenodd" class="s2" d="m692.5 258.4q0-1.2 0.3-2.4 0.4-1.2 1.2-2.3-1.1-0.6-1.1-2.6 0-1.1 0.3-2.2 0.4-1.1 1-2.1 0.6-1 1.4-1.8 0.8-0.9 1.8-1.4 1-0.6 1.8-0.7 0.8-0.1 1.4 0.2 0.6 0.3 0.9 1 0.4 0.7 0.4 1.8 0 1-0.3 2-0.3 0.9-0.8 1.8 0.7 0.3 1.1 1 0.4 0.8 0.4 2 0 1.2-0.3 2.3-0.4 1.2-1 2.2-0.7 1.1-1.6 2-0.9 0.9-2 1.6-1.1 0.6-2 0.8-1 0.1-1.6-0.2-0.6-0.3-1-1.1-0.3-0.7-0.3-1.9zm2.4-1.4q0 0.6 0.2 0.9 0.2 0.3 0.6 0.3 0.3 0.1 0.8 0 0.4-0.1 0.9-0.4 0.5-0.3 0.9-0.7 0.5-0.4 0.8-0.9 0.4-0.5 0.6-1 0.2-0.5 0.2-1.1 0-0.5-0.2-0.8-0.2-0.3-0.6-0.4-0.3-0.1-0.8 0.1-0.4 0.1-0.9 0.4-0.5 0.2-0.9 0.7-0.5 0.4-0.8 0.8-0.4 0.5-0.6 1-0.2 0.6-0.2 1.1zm0.4-7.3q0 0.5 0.2 0.7 0.2 0.3 0.5 0.3 0.3 0.1 0.6 0 0.4-0.1 0.8-0.3 0.4-0.2 0.8-0.6 0.3-0.3 0.6-0.7 0.3-0.4 0.5-0.9 0.2-0.4 0.2-0.9 0-0.5-0.2-0.8-0.2-0.2-0.5-0.3-0.3-0.1-0.6 0-0.4 0.1-0.8 0.4-0.4 0.2-0.8 0.5-0.3 0.4-0.6 0.8-0.3 0.4-0.5 0.8-0.2 0.5-0.2 1z"/>
						<path id="&lt;Compound Path&gt;" class="s2" d="m705 240.1q0-0.3 0.1-0.5 0.2-0.3 0.4-0.4l6.7-3.9q0.2-0.1 0.3 0 0.2 0.1 0.2 0.4v1.6q0 0.3-0.2 0.6-0.1 0.3-0.3 0.4l-5 2.9-0.2 3.1q0.4-0.5 0.9-0.8 0.5-0.3 0.8-0.5 1-0.6 1.9-0.7 0.8-0.2 1.4 0.2 0.7 0.3 1 1.1 0.4 0.8 0.4 2.2 0 1.5-0.4 2.8-0.3 1.3-1 2.4-0.6 1-1.5 1.9-0.8 0.8-1.8 1.3-1.2 0.7-2.1 0.9-0.9 0.1-1.5-0.2-0.6-0.3-0.9-1-0.3-0.7-0.3-1.6 0-0.3 0.1-0.5 0.2-0.3 0.4-0.4l1.4-0.9q0.2-0.1 0.4 0 0.1 0.1 0.2 0.3 0.1 0.5 0.3 0.7 0.2 0.2 0.5 0.3 0.3 0 0.7-0.2 0.4-0.1 0.8-0.3 1-0.6 1.6-1.7 0.7-1.1 0.7-2.4 0-1.1-0.7-1.4-0.6-0.4-1.6 0.2-0.5 0.3-0.8 0.6-0.4 0.2-0.6 0.5-0.2 0.3-0.3 0.5-0.2 0.2-0.4 0.3l-1.7 1q-0.2 0.1-0.3 0-0.2-0.1-0.2-0.4z"/>
					</g>
					<g id="&lt;Group&gt;">
						<path id="&lt;Compound Path&gt;" fill-rule="evenodd" class="s2" d="m591.9 346.1q-1 0-1.8-0.5c-1.2-0.7-1.9-2.1-1.9-4v-2c0-3.5 2.4-7.6 5.4-9.4l85.1-49.1c1.6-1 3.2-1.1 4.5-0.4 1.2 0.8 1.9 2.2 1.9 4.1v1.9c0 3.6-2.4 7.7-5.4 9.4l-85.1 49.2q-1.4 0.8-2.7 0.8zm89.5-63.9q-0.8 0-1.7 0.6l-85.1 49.1c-2.4 1.4-4.5 4.9-4.5 7.7v2c0 1.1 0.4 2 1 2.3 0.6 0.4 1.5 0.3 2.5-0.3l85.1-49.2c2.4-1.3 4.5-4.9 4.5-7.7v-1.9c0-1.2-0.4-2-1-2.4q-0.3-0.2-0.8-0.2z"/>
					</g>
					<g id="&lt;Group&gt;">
						<path id="&lt;Path&gt;" class="s2" d="m655.8 299.9l-1.3 5.2-59.9 34.5c-0.9 0.5-1.6 0.1-1.6-0.9v-0.6c0-1.1 0.7-2.3 1.6-2.9z"/>
					</g>
					<g id="&lt;Group&gt;">
						<path id="&lt;Compound Path&gt;" class="s2" d="m695.4 282.4q0.1-0.1 0.2 0 0 0.1 0 0.3v1q0 0.2 0 0.3-0.1 0.2-0.2 0.3l-3.7 2.1q-0.1 0-0.1-0.1-0.1 0-0.1-0.2v-9.6q0-0.2 0.1-0.3 0-0.2 0.1-0.2l0.7-0.4q0.1-0.1 0.2 0 0 0.1 0 0.3v8.1z"/>
						<path id="&lt;Compound Path&gt;" class="s2" d="m697 283.2q-0.1-0.1-0.1-0.2l-1.7-5.9q0 0 0-0.1 0-0.1 0.1-0.3 0.1-0.1 0.2-0.2l0.6-0.4q0.1 0 0.2 0.1 0 0 0.1 0.1l1.1 4 1.1-5.2q0-0.2 0.1-0.3 0-0.2 0.1-0.3l0.7-0.3q0.1-0.1 0.1 0 0.1 0.1 0.1 0.3 0 0 0 0.1l-1.7 7.8q0 0.1-0.1 0.3 0 0.1-0.2 0.2l-0.5 0.3q-0.1 0.1-0.2 0z"/>
						<path id="&lt;Compound Path&gt;" class="s2" d="m701.6 280.3q0 0.1-0.1 0.3-0.1 0.2-0.2 0.2l-0.6 0.4q-0.1 0-0.1 0-0.1-0.1-0.1-0.3v-9.7q0-0.2 0.1-0.3 0-0.2 0.1-0.2l0.6-0.4q0.1-0.1 0.2 0 0.1 0.1 0.1 0.3z"/>
						<path id="&lt;Compound Path&gt;" fill-rule="evenodd" class="s2" d="m705.4 278.1q0-0.1 0-0.1 0-0.1 0-0.1l1.1-3.5q-0.5 0.3-0.9 0.3-0.4 0-0.6-0.3-0.3-0.3-0.5-0.9-0.2-0.6-0.2-1.4 0-0.8 0.2-1.5 0.2-0.8 0.5-1.4 0.3-0.7 0.7-1.2 0.4-0.4 0.8-0.7 0.5-0.3 0.9-0.3 0.4 0.1 0.7 0.3 0.3 0.3 0.5 0.9 0.2 0.6 0.2 1.4 0 0.4-0.1 0.8 0 0.4-0.1 0.8-0.1 0.4-0.2 0.7-0.1 0.4-0.2 0.7l-1.6 4.9q0 0.1-0.1 0.2 0 0.2-0.2 0.2l-0.7 0.5q-0.1 0-0.2-0.1 0 0 0-0.2zm0-6.6q0 0.8 0.4 1.1 0.3 0.2 0.7 0 0.5-0.3 0.8-0.9 0.3-0.7 0.3-1.5 0-0.8-0.3-1.1-0.3-0.2-0.8 0-0.4 0.3-0.7 0.9-0.4 0.7-0.4 1.5z"/>
						<path id="&lt;Compound Path&gt;" fill-rule="evenodd" class="s2" d="m710.4 275.2q0-0.1 0-0.1 0-0.1 0-0.1l1.1-3.5q-0.4 0.3-0.8 0.3-0.4-0.1-0.7-0.3-0.3-0.3-0.5-0.9-0.1-0.6-0.1-1.4 0-0.8 0.1-1.5 0.2-0.8 0.5-1.4 0.3-0.7 0.7-1.2 0.4-0.4 0.9-0.7 0.4-0.3 0.9-0.3 0.4 0 0.7 0.3 0.3 0.3 0.4 0.9 0.2 0.6 0.2 1.4 0 0.4 0 0.8-0.1 0.4-0.2 0.8-0.1 0.4-0.2 0.7-0.1 0.4-0.2 0.7l-1.6 4.9q0 0.1 0 0.2-0.1 0.2-0.2 0.2l-0.8 0.5q-0.1 0-0.1-0.1-0.1-0.1-0.1-0.2zm0.1-6.6q0 0.8 0.3 1.1 0.3 0.2 0.8 0 0.5-0.3 0.8-0.9 0.3-0.7 0.3-1.5 0-0.8-0.3-1.1-0.3-0.2-0.8 0-0.5 0.3-0.8 0.9-0.3 0.7-0.3 1.5z"/>
					</g>
					<g id="&lt;Group&gt;">
						<path id="&lt;Compound Path&gt;" class="s2" d="m684.5 331.9v2.9q0 0.2-0.1 0.3-0.1 0.2-0.2 0.3l-0.6 0.4q-0.1 0-0.2-0.1-0.1-0.1-0.1-0.2v-2.9l-1.6 0.9q-0.1 0.1-0.1 0-0.1-0.1-0.1-0.3v-1q0-0.2 0.1-0.4 0-0.1 0.1-0.2l1.6-0.9v-2.9q0-0.1 0.1-0.3 0.1-0.2 0.2-0.2l0.6-0.4q0.1-0.1 0.2 0 0.1 0.1 0.1 0.3v2.8l1.6-0.9q0.1 0 0.1 0 0.1 0.1 0.1 0.3v1q0 0.2-0.1 0.4 0 0.2-0.1 0.2z"/>
						<path id="&lt;Compound Path&gt;" class="s2" d="m686.7 327q-0.1-0.1-0.1-0.3 0-0.2 0.1-0.4l1.9-3.8q0.1-0.1 0.2-0.2 0.1-0.2 0.1-0.2l0.7-0.4q0.1-0.1 0.2 0 0.1 0.1 0.1 0.3v10.2q0 0.2-0.1 0.3-0.1 0.2-0.2 0.2l-0.7 0.5q-0.1 0-0.1-0.1-0.1-0.1-0.1-0.2v-7.8l-1.3 2.4q-0.1 0.2-0.2 0.2 0 0.1-0.1 0z"/>
						<path id="&lt;Compound Path&gt;" class="s2" d="m691.4 321.1q0-0.2 0-0.3 0.1-0.2 0.2-0.3l3.4-1.9q0.1 0 0.1 0 0.1 0.1 0.1 0.3v1.1q0 0.2-0.1 0.4 0 0.1-0.1 0.2l-2.5 1.4-0.1 2.1q0.2-0.3 0.4-0.5 0.3-0.1 0.4-0.2 0.5-0.3 0.9-0.3 0.5 0 0.8 0.3 0.3 0.2 0.5 0.8 0.2 0.6 0.2 1.5 0 1-0.2 1.8-0.2 0.8-0.5 1.5-0.3 0.6-0.8 1.1-0.4 0.5-0.9 0.7-0.6 0.4-1 0.4-0.5 0-0.8-0.3-0.2-0.2-0.4-0.7-0.1-0.5-0.2-1.1 0-0.2 0.1-0.4 0.1-0.1 0.2-0.2l0.7-0.4q0.1 0 0.2 0 0 0.1 0.1 0.2 0 0.4 0.1 0.5 0.1 0.2 0.3 0.3 0.1 0 0.3-0.1 0.2 0 0.4-0.1 0.5-0.3 0.8-1 0.4-0.7 0.4-1.5 0-0.7-0.4-1-0.3-0.3-0.8 0-0.2 0.1-0.4 0.3-0.2 0.1-0.3 0.3 0 0.1-0.1 0.2-0.1 0.2-0.2 0.2l-0.9 0.5q0 0.1-0.1 0-0.1-0.1-0.1-0.3z"/>
						<path id="&lt;Compound Path&gt;" class="s2" d="m702.8 323.2q0.1-0.1 0.1 0 0.1 0.1 0.1 0.3v1.1q0 0.2-0.1 0.3 0 0.2-0.1 0.3l-3.9 2.2q-0.1 0.1-0.2 0-0.1-0.1-0.1-0.3v-10.2q0-0.2 0.1-0.3 0.1-0.2 0.2-0.2l3.8-2.3q0.1 0 0.2 0.1 0 0.1 0 0.2v1.2q0 0.1 0 0.3-0.1 0.2-0.2 0.2l-2.9 1.7v2.5l2.7-1.6q0.1 0 0.2 0.1 0 0.1 0 0.2v1.2q0 0.1 0 0.3-0.1 0.2-0.2 0.2l-2.7 1.6v2.6z"/>
						<path id="&lt;Compound Path&gt;" class="s2" d="m706 320.7l-1 2.9q-0.1 0.2-0.2 0.3-0.1 0.2-0.2 0.2l-0.7 0.4q-0.1 0.1-0.2 0 0-0.1 0-0.3 0-0.1 0-0.2l1.6-4.5-1.5-2.5q-0.1 0-0.1-0.2 0-0.1 0.1-0.3 0.1-0.2 0.2-0.2l0.6-0.4q0.2-0.1 0.2-0.1 0.1 0 0.2 0.1l1 1.7 1-2.8q0.1-0.3 0.2-0.4 0.1-0.1 0.2-0.1l0.7-0.4q0.1-0.1 0.2 0 0 0.1 0 0.3 0 0.1 0 0.2l-1.5 4.3 1.5 2.6q0.1 0.1 0.1 0.2 0 0.2-0.1 0.3-0.1 0.2-0.2 0.3l-0.6 0.4q-0.2 0-0.3 0 0 0-0.1-0.1z"/>
						<path id="&lt;Compound Path&gt;" fill-rule="evenodd" class="s2" d="m711.7 320.1q-0.2 0.2-0.5 0.2-0.2 0.1-0.3 0-0.2 0-0.3-0.1-0.1-0.1-0.2-0.2v3.3q0 0.2-0.1 0.4-0.1 0.1-0.1 0.2l-0.7 0.4q-0.1 0.1-0.2 0-0.1-0.1-0.1-0.3v-10.4q0-0.1 0.1-0.3 0.1-0.2 0.2-0.2l0.7-0.4q0-0.1 0.1 0 0.1 0.1 0.1 0.3v0.3q0.1-0.1 0.2-0.4 0.1-0.2 0.3-0.4 0.1-0.3 0.3-0.5 0.3-0.2 0.5-0.4 0.5-0.2 0.8-0.1 0.4 0.1 0.7 0.4 0.2 0.4 0.3 1 0.2 0.6 0.2 1.3 0 0.2 0 0.5 0 0.4 0 0.6 0 0.7-0.2 1.5-0.1 0.7-0.3 1.4-0.3 0.7-0.7 1.2-0.3 0.5-0.8 0.7zm0.9-4.3q0-0.4 0-0.8-0.1-1-0.4-1.3-0.3-0.3-0.7 0-0.5 0.2-0.8 0.8-0.3 0.7-0.3 1.6 0 0.2 0 0.6 0 0.3 0 0.6 0 0.8 0.3 1.1 0.3 0.3 0.8 0 0.4-0.2 0.7-0.9 0.3-0.6 0.4-1.7z"/>
					</g>
					<g id="&lt;Group&gt;">
						<path id="&lt;Compound Path&gt;" class="s2" d="m686.8 360.9v2.9q0 0.2-0.1 0.3-0.1 0.2-0.2 0.3l-0.7 0.3q0 0.1-0.1 0-0.1-0.1-0.1-0.2v-2.9l-1.6 0.9q-0.1 0.1-0.2 0 0-0.1 0-0.3v-1q0-0.2 0-0.4 0.1-0.1 0.2-0.2l1.6-0.9v-2.9q0-0.1 0.1-0.3 0.1-0.2 0.1-0.2l0.7-0.4q0.1-0.1 0.2 0 0.1 0.1 0.1 0.3v2.8l1.5-0.9q0.1-0.1 0.2 0 0.1 0.1 0.1 0.3v1q0 0.2-0.1 0.4-0.1 0.1-0.2 0.2z"/>
						<path id="&lt;Compound Path&gt;" class="s2" d="m692 355.5q0.3-0.5 0.3-1 0.1-0.4 0.1-0.7 0-0.7-0.2-1-0.2-0.3-0.7 0-0.5 0.2-0.8 0.8-0.2 0.6-0.3 1.3 0 0.2-0.1 0.4-0.1 0.1-0.1 0.1l-0.7 0.5q-0.1 0-0.2-0.1-0.1 0-0.1-0.2 0-0.8 0.2-1.5 0.2-0.7 0.5-1.4 0.3-0.6 0.7-1.1 0.4-0.5 0.9-0.8 0.5-0.3 0.9-0.2 0.4 0 0.7 0.4 0.3 0.4 0.4 0.9 0.1 0.6 0.1 1.2 0 0.4 0 0.7 0 0.4-0.1 0.8-0.1 0.4-0.3 0.9-0.2 0.5-0.5 1.2l-1.7 3.6 2.5-1.5q0.1 0 0.2 0.1 0.1 0.1 0.1 0.2v1.2q0 0.1-0.1 0.3-0.1 0.2-0.2 0.2l-4.1 2.4q-0.1 0.1-0.2 0-0.1-0.1-0.1-0.3v-0.9q0-0.3 0.1-0.6 0.1-0.2 0.2-0.3z"/>
						<path id="&lt;Compound Path&gt;" fill-rule="evenodd" class="s2" d="m699.5 350.5q0 0.3 0 0.6 0 0.4 0 0.8 0 0.3 0 0.7 0 0.4 0 0.7-0.1 0.9-0.2 1.8-0.1 0.8-0.4 1.6-0.3 0.7-0.7 1.3-0.5 0.6-1.1 0.9-0.7 0.4-1.1 0.3-0.5 0-0.8-0.4-0.2-0.5-0.4-1.2-0.1-0.7-0.1-1.6 0-0.6 0-1.3 0-0.8 0-1.4 0-0.9 0.1-1.8 0.2-0.9 0.4-1.6 0.3-0.8 0.8-1.4 0.4-0.6 1.1-0.9 0.6-0.4 1.1-0.4 0.4 0.1 0.7 0.5 0.3 0.4 0.4 1.2 0.1 0.7 0.2 1.6zm-3.6 4.8q0 1.1 0.3 1.5 0.2 0.5 0.9 0.2 0.6-0.4 0.8-1.2 0.3-0.8 0.4-1.9 0-0.6 0-1.4 0-0.7 0-1.3-0.1-1.1-0.4-1.6-0.2-0.4-0.8-0.1-0.7 0.4-0.9 1.2-0.3 0.7-0.3 1.9 0 0.6 0 1.3 0 0.8 0 1.4z"/>
						<path id="&lt;Compound Path&gt;" class="s2" d="m707.5 341.7q0.1-0.1 0.2 0 0.1 0.1 0.1 0.3v10.2q0 0.1-0.1 0.3-0.1 0.2-0.2 0.2l-0.7 0.5q-0.1 0-0.2-0.1 0-0.1 0-0.2v-4.2l-2.7 1.5v4.2q0 0.2-0.1 0.4-0.1 0.1-0.2 0.2l-0.7 0.4q-0.1 0-0.2 0 0-0.1 0-0.3v-10.2q0-0.2 0-0.3 0.1-0.2 0.2-0.3l0.7-0.4q0.1 0 0.2 0 0.1 0.1 0.1 0.3v4.1l2.7-1.6v-4q0-0.2 0-0.4 0.1-0.2 0.2-0.2z"/>
						<path id="&lt;Compound Path&gt;" fill-rule="evenodd" class="s2" d="m711.8 339.2q1-0.6 1.6 0 0.6 0.5 0.6 2.3 0 1.7-0.6 3-0.6 1.2-1.6 1.8l-1.5 0.9v3.5q0 0.2 0 0.3-0.1 0.2-0.2 0.2l-0.7 0.5q-0.1 0-0.2-0.1-0.1-0.1-0.1-0.2v-10.2q0-0.2 0.1-0.4 0.1-0.1 0.2-0.2zm-1.4 6l1.3-0.8q0.5-0.3 0.8-0.9 0.3-0.5 0.3-1.4 0-0.9-0.3-1-0.3-0.2-0.8 0.1l-1.3 0.8z"/>
					</g>
					<g id="&lt;Group&gt;">
						<g id="&lt;Group&gt;">
							<g id="&lt;Group&gt;">
								<path id="&lt;Path&gt;" class="s2" d="m563.1 383.6c-5.1 2.9-9.2 10-9.2 15.9 0 5.8 4.1 8.2 9.2 5.3 5-3 9.1-10.1 9.1-15.9 0-5.8-4.1-8.2-9.1-5.3z"/>
							</g>
							<g id="&lt;Group&gt;">
								<g id="&lt;Group&gt;">
									<path id="&lt;Compound Path&gt;" class="s0" d="m564.1 387.4q0.5-0.1 0.9 0 0.4 0.1 0.7 0.4 0.3 0.3 0.5 0.7 0.2 0.4 0.2 0.8 0 0.2-0.1 0.3-0.1 0.2-0.1 0.3l-1.6 0.8q-0.1 0.1-0.2 0.1-0.1 0-0.2-0.1-0.1 0-0.1-0.1-0.1-0.1-0.2-0.1-0.2-0.1-0.4-0.1-0.2 0.1-0.5 0.2-0.2 0.2-0.4 0.3-0.2 0.2-0.4 0.4-0.1 0.2-0.2 0.4-0.1 0.2-0.1 0.5 0 0.3 0.1 0.4 0.1 0.1 0.3 0.1 0.3 0 0.7-0.1 0.5-0.1 1.1-0.3 0.6-0.2 1.1-0.1 0.5 0 0.8 0.3 0.3 0.2 0.5 0.8 0.1 0.5 0.1 1.3 0 0.8-0.2 1.5-0.1 0.7-0.5 1.4-0.3 0.7-0.8 1.3-0.5 0.6-1 1v1.3q0 0.2-0.1 0.4-0.1 0.2-0.2 0.3l-1.6 0.8q-0.1 0.1-0.2 0-0.1-0.1-0.1-0.3v-1.3q-0.5 0.1-1 0-0.4-0.1-0.7-0.4-0.3-0.2-0.5-0.7-0.2-0.4-0.2-1 0-0.1 0.1-0.3 0-0.1 0.1-0.2l1.6-0.9q0.1-0.1 0.2-0.1 0.1 0.1 0.2 0.1 0 0.1 0.1 0.2 0.1 0.1 0.3 0.2 0.1 0 0.4 0 0.2 0 0.6-0.2 0.6-0.3 1-0.8 0.4-0.4 0.4-1 0-0.2-0.2-0.3-0.1-0.1-0.4-0.1-0.3 0-0.8 0.2-0.4 0.1-1.1 0.3-1.2 0.2-1.7-0.4-0.6-0.6-0.6-2.1 0-0.6 0.2-1.3 0.1-0.6 0.4-1.3 0.3-0.6 0.7-1.2 0.4-0.6 0.9-1.1v-1.3q0-0.2 0.1-0.4 0.1-0.2 0.2-0.3l1.6-0.9q0.1 0 0.2 0.1 0.1 0 0.1 0.2z"/>
								</g>
							</g>
						</g>
						<g id="&lt;Group&gt;">
							<g id="&lt;Group&gt;">
								<path id="&lt;Path&gt;" class="s2" d="m587.5 369.5c5.1-2.9 9.2-0.6 9.2 5.3 0 5.8-4.1 12.9-9.2 15.9-5.1 2.9-9.2 0.5-9.2-5.3 0-5.9 4.1-13 9.2-15.9z"/>
							</g>
							<g id="&lt;Group&gt;">
								<g id="&lt;Group&gt;">
									<path id="&lt;Compound Path&gt;" class="s0" d="m588.5 373.3q0.5-0.1 1 0 0.4 0.1 0.7 0.4 0.3 0.3 0.4 0.7 0.2 0.4 0.2 0.8 0 0.2 0 0.3-0.1 0.2-0.2 0.3l-1.5 0.8q-0.2 0.1-0.3 0.1-0.1 0-0.2-0.1 0 0-0.1-0.1-0.1-0.1-0.2-0.1-0.1-0.1-0.4-0.1-0.2 0.1-0.5 0.2-0.2 0.2-0.4 0.3-0.2 0.2-0.3 0.4-0.2 0.1-0.3 0.4-0.1 0.2-0.1 0.5 0 0.3 0.1 0.4 0.1 0.1 0.4 0.1 0.2 0 0.7-0.1 0.4-0.1 1-0.3 0.7-0.2 1.1-0.1 0.5 0 0.8 0.3 0.3 0.2 0.5 0.8 0.2 0.5 0.2 1.3 0 0.8-0.2 1.5-0.2 0.7-0.5 1.4-0.4 0.7-0.9 1.3-0.4 0.6-1 1v1.3q0 0.2-0.1 0.4-0.1 0.2-0.2 0.3l-1.5 0.8q-0.1 0.1-0.2 0-0.1-0.1-0.1-0.3v-1.3q-0.6 0.1-1 0-0.5-0.1-0.8-0.4-0.3-0.2-0.5-0.7-0.2-0.4-0.2-1 0-0.1 0.1-0.3 0.1-0.1 0.2-0.2l1.5-0.9q0.2-0.1 0.2-0.1 0.1 0 0.2 0.1 0.1 0.1 0.2 0.2 0.1 0.1 0.2 0.2 0.2 0 0.4 0 0.2 0 0.6-0.2 0.6-0.3 1-0.8 0.4-0.4 0.4-1 0-0.2-0.1-0.3-0.2-0.1-0.5-0.1-0.3 0-0.7 0.2-0.5 0.1-1.1 0.2-1.2 0.3-1.8-0.3-0.5-0.6-0.5-2.1 0-0.6 0.1-1.3 0.2-0.6 0.4-1.3 0.3-0.6 0.7-1.2 0.4-0.6 1-1.1v-1.3q0-0.2 0.1-0.4 0.1-0.2 0.2-0.3l1.5-0.9q0.1 0 0.2 0.1 0.1 0 0.1 0.2z"/>
								</g>
							</g>
						</g>
						<g id="&lt;Group&gt;">
							<g id="&lt;Group&gt;">
								<path id="&lt;Path&gt;" class="s2" d="m611.9 355.4c5.1-2.9 9.2-0.6 9.2 5.3 0 5.8-4.1 12.9-9.2 15.9-5 2.9-9.1 0.5-9.1-5.3 0-5.9 4.1-13 9.1-15.9z"/>
							</g>
							<g id="&lt;Group&gt;">
								<g id="&lt;Group&gt;">
									<path id="&lt;Compound Path&gt;" class="s0" d="m612.9 359.2q0.6-0.1 1 0 0.4 0.1 0.7 0.4 0.3 0.3 0.5 0.7 0.2 0.4 0.2 0.8 0 0.2-0.1 0.3-0.1 0.2-0.2 0.2l-1.5 0.9q-0.2 0.1-0.3 0.1-0.1 0-0.2-0.1 0 0-0.1-0.1 0-0.1-0.2-0.1-0.1-0.1-0.3-0.1-0.2 0-0.5 0.2-0.3 0.1-0.5 0.3-0.2 0.2-0.3 0.4-0.2 0.1-0.3 0.4-0.1 0.2-0.1 0.5 0 0.2 0.1 0.4 0.2 0.1 0.4 0.1 0.3 0 0.7-0.1 0.4-0.1 1.1-0.3 0.6-0.2 1.1-0.1 0.4 0 0.8 0.3 0.3 0.2 0.4 0.7 0.2 0.6 0.2 1.4 0 0.8-0.2 1.5-0.2 0.7-0.5 1.4-0.3 0.7-0.8 1.3-0.5 0.6-1.1 1v1.3q0 0.2-0.1 0.4 0 0.2-0.2 0.2l-1.5 0.9q-0.1 0.1-0.2 0-0.1-0.1-0.1-0.3v-1.3q-0.6 0.1-1 0-0.4-0.1-0.8-0.4-0.3-0.2-0.5-0.7-0.1-0.4-0.1-1 0-0.1 0-0.3 0.1-0.2 0.2-0.2l1.5-0.9q0.2-0.1 0.3-0.1 0.1 0 0.2 0.1 0 0.1 0.1 0.2 0.1 0.1 0.2 0.2 0.2 0 0.4 0 0.3 0 0.6-0.2 0.6-0.4 1-0.8 0.5-0.4 0.5-1 0-0.2-0.2-0.3-0.1-0.1-0.4-0.1-0.3 0-0.8 0.2-0.5 0.1-1.1 0.2-1.2 0.3-1.8-0.3-0.5-0.6-0.5-2.1 0-0.6 0.1-1.3 0.2-0.6 0.5-1.3 0.3-0.6 0.7-1.2 0.4-0.6 0.9-1.1v-1.3q0-0.2 0.1-0.4 0.1-0.2 0.2-0.3l1.5-0.9q0.2 0 0.2 0 0.1 0.1 0.1 0.3z"/>
								</g>
							</g>
						</g>
						<g id="&lt;Group&gt;">
							<g id="&lt;Group&gt;">
								<path id="&lt;Path&gt;" class="s2" d="m636.4 341.3c5-2.9 9.1-0.6 9.1 5.3 0 5.8-4.1 12.9-9.1 15.8-5.1 3-9.2 0.6-9.2-5.2 0-5.9 4.1-13 9.2-15.9z"/>
							</g>
							<g id="&lt;Group&gt;">
								<g id="&lt;Group&gt;">
									<path id="&lt;Compound Path&gt;" class="s0" d="m637.4 345.1q0.5-0.1 0.9 0 0.4 0.1 0.7 0.4 0.3 0.3 0.5 0.7 0.2 0.4 0.2 0.8 0 0.2-0.1 0.3 0 0.2-0.1 0.2l-1.6 0.9q-0.1 0.1-0.2 0.1-0.1 0-0.2-0.1-0.1 0-0.1-0.1-0.1-0.1-0.2-0.2-0.2 0-0.4 0-0.2 0-0.5 0.2-0.2 0.1-0.4 0.3-0.2 0.2-0.4 0.4-0.1 0.1-0.2 0.4-0.1 0.2-0.1 0.5 0 0.2 0.1 0.4 0.1 0.1 0.3 0.1 0.3 0 0.7-0.1 0.5-0.1 1.1-0.3 0.6-0.2 1.1-0.2 0.5 0.1 0.8 0.3 0.3 0.3 0.5 0.8 0.1 0.6 0.1 1.4 0 0.8-0.2 1.5-0.1 0.7-0.5 1.4-0.3 0.7-0.8 1.3-0.5 0.5-1 1v1.3q0 0.2-0.1 0.4-0.1 0.2-0.2 0.2l-1.5 0.9q-0.2 0.1-0.3 0-0.1-0.1-0.1-0.3v-1.3q-0.5 0.1-1 0-0.4-0.1-0.7-0.4-0.3-0.3-0.5-0.7-0.2-0.4-0.2-1 0-0.1 0.1-0.3 0-0.2 0.1-0.2l1.6-0.9q0.1-0.1 0.2-0.1 0.1 0 0.2 0.1 0 0.1 0.1 0.2 0.1 0.1 0.3 0.1 0.1 0.1 0.4 0.1 0.2 0 0.6-0.2 0.6-0.4 1-0.8 0.4-0.4 0.4-1 0-0.2-0.2-0.3-0.1-0.1-0.4-0.1-0.3 0-0.8 0.1-0.4 0.2-1.1 0.3-1.2 0.3-1.7-0.3-0.6-0.6-0.6-2.1 0-0.6 0.2-1.3 0.1-0.7 0.4-1.3 0.3-0.6 0.7-1.2 0.4-0.6 0.9-1.1v-1.3q0-0.2 0.1-0.4 0.1-0.2 0.3-0.3l1.5-0.9q0.1-0.1 0.2 0 0.1 0.1 0.1 0.3z"/>
								</g>
							</g>
						</g>
						<g id="&lt;Group&gt;">
							<g id="&lt;Group&gt;">
								<path id="&lt;Path&gt;" class="s2" d="m660.8 327.2c5.1-2.9 9.2-0.6 9.2 5.3 0 5.8-4.1 12.9-9.2 15.8-5.1 3-9.2 0.6-9.2-5.2 0-5.9 4.1-13 9.2-15.9z"/>
							</g>
							<g id="&lt;Group&gt;">
								<g id="&lt;Group&gt;">
									<path id="&lt;Compound Path&gt;" class="s0" d="m661.8 331q0.5-0.2 1 0 0.4 0.1 0.7 0.4 0.3 0.2 0.4 0.6 0.2 0.4 0.2 0.9 0 0.2 0 0.3-0.1 0.2-0.2 0.2l-1.5 0.9q-0.2 0.1-0.3 0.1-0.1 0-0.2-0.1 0 0-0.1-0.1-0.1-0.1-0.2-0.2-0.1 0-0.4 0-0.2 0-0.5 0.2-0.2 0.1-0.4 0.3-0.2 0.2-0.3 0.3-0.2 0.2-0.3 0.5-0.1 0.2-0.1 0.5 0 0.2 0.1 0.3 0.1 0.2 0.4 0.2 0.2 0 0.7-0.1 0.4-0.1 1-0.3 0.7-0.2 1.1-0.2 0.5 0.1 0.8 0.3 0.4 0.3 0.5 0.8 0.2 0.6 0.2 1.4 0 0.7-0.2 1.5-0.2 0.7-0.5 1.4-0.4 0.7-0.8 1.2-0.5 0.6-1.1 1.1v1.3q0 0.2-0.1 0.4-0.1 0.2-0.2 0.2l-1.5 0.9q-0.1 0.1-0.2 0-0.1-0.1-0.1-0.3v-1.3q-0.6 0.1-1 0-0.5-0.1-0.8-0.4-0.3-0.3-0.5-0.7-0.2-0.4-0.2-1 0-0.2 0.1-0.3 0.1-0.2 0.2-0.2l1.5-0.9q0.2-0.1 0.2-0.1 0.1 0 0.2 0.1 0.1 0 0.2 0.2 0.1 0.1 0.2 0.1 0.2 0.1 0.4 0.1 0.2 0 0.6-0.2 0.6-0.4 1-0.8 0.4-0.4 0.4-1 0-0.2-0.1-0.3-0.2-0.1-0.5-0.1-0.3 0-0.7 0.1-0.5 0.2-1.1 0.3-1.2 0.3-1.8-0.3-0.5-0.6-0.5-2.1 0-0.6 0.1-1.3 0.2-0.7 0.4-1.3 0.3-0.7 0.7-1.2 0.5-0.6 1-1.1v-1.3q0-0.2 0.1-0.4 0.1-0.2 0.2-0.3l1.5-0.9q0.1-0.1 0.2 0 0.1 0.1 0.1 0.3z"/>
								</g>
							</g>
						</g>
					</g>
				</g>
				<g id="&lt;Group&gt;">
					<path id="&lt;Compound Path&gt;" fill-rule="evenodd" class="s2" d="m546.4 456.7q-1.4 0-2.7-0.7c-1.9-1.1-2.9-3.3-2.9-6.3v-118c0-5.7 4-12.7 8.9-15.6l165.8-95.7c2.6-1.4 5-1.7 6.9-0.6 2 1.2 3 3.4 3 6.4v118c0 5.7-4 12.7-8.9 15.5l-165.8 95.7c-1.5 0.9-2.9 1.3-4.3 1.3zm173.3-235.6c-0.9 0-2.1 0.4-3.2 1l-165.8 95.7c-4.4 2.6-8 8.8-8 13.9v118c0 2.2 0.7 3.9 2 4.6 1.3 0.8 3.1 0.5 5-0.6l165.8-95.7c4.4-2.5 8-8.7 8-13.8v-118c0-2.3-0.7-3.9-2-4.7q-0.8-0.4-1.8-0.4z"/>
				</g>
			</g>
			<g id="&lt;Group&gt;">
				<g id="&lt;Group&gt;">
					<path id="&lt;Compound Path&gt;" class="s2" d="m562.7 265.3q1.2-0.7 2.1-0.8 0.9-0.1 1.5 0.2 0.6 0.3 0.9 0.9 0.3 0.6 0.4 1.3 0 0.3-0.2 0.5-0.1 0.3-0.3 0.4l-1.3 0.7q-0.3 0.2-0.4 0.1-0.2 0-0.3-0.2-0.3-0.5-0.8-0.6-0.5-0.1-1.6 0.5-0.5 0.3-0.9 0.6-0.4 0.4-0.7 0.8-0.4 0.5-0.5 0.9-0.2 0.5-0.2 1 0 0.5 0.2 0.8 0.1 0.2 0.5 0.2 0.4 0 1.1-0.1 0.7-0.2 1.6-0.5 1.1-0.3 1.9-0.3 0.8-0.1 1.3 0.2 0.5 0.3 0.7 1 0.2 0.6 0.2 1.6 0 1-0.3 2.2-0.4 1.1-1 2.1-0.7 1.1-1.7 2-0.9 0.9-2.1 1.6-1 0.6-1.9 0.8-1 0.2-1.7 0-0.7-0.2-1.1-0.8-0.4-0.6-0.5-1.6 0-0.3 0.2-0.6 0.1-0.2 0.3-0.3l1.3-0.8q0.3-0.1 0.4-0.1 0.2 0.1 0.3 0.3 0.1 0.2 0.3 0.4 0.2 0.2 0.5 0.3 0.3 0.1 0.7 0 0.5-0.1 1.2-0.5 0.5-0.4 1-0.7 0.5-0.4 0.9-0.9 0.4-0.5 0.6-1 0.2-0.5 0.2-1 0-0.6-0.2-0.7-0.3-0.2-0.8-0.2-0.5 0.1-1.2 0.3-0.8 0.2-1.8 0.4-0.9 0.3-1.6 0.3-0.6 0-1.1-0.4-0.4-0.3-0.6-0.9-0.2-0.7-0.2-1.8 0-1 0.3-2.1 0.4-1.2 1-2.2 0.6-1 1.5-1.8 0.9-0.9 1.9-1.5z"/>
					<path id="&lt;Compound Path&gt;" class="s2" d="m578.2 256.6q0.2-0.1 0.3 0 0.2 0.1 0.2 0.4v1.7q0 0.2-0.2 0.5-0.1 0.3-0.3 0.4l-3.2 1.8v13.1q0 0.3-0.2 0.6-0.1 0.2-0.3 0.3l-1.5 0.9q-0.2 0.1-0.3 0-0.1-0.1-0.1-0.4v-13.1l-3.3 1.9q-0.2 0.1-0.3 0-0.2-0.1-0.2-0.4v-1.7q0-0.2 0.2-0.5 0.1-0.3 0.3-0.4z"/>
					<path id="&lt;Compound Path&gt;" fill-rule="evenodd" class="s2" d="m585.1 252.6q0.3-0.1 0.4 0 0.1 0.1 0.3 0.4l4.3 12.6q0.1 0.1 0.1 0.1 0 0.3-0.2 0.6-0.1 0.3-0.3 0.4l-1.3 0.7q-0.4 0.2-0.5 0.1-0.2-0.1-0.2-0.3l-0.8-2.2-5.6 3.3-0.8 3.1q-0.1 0.2-0.2 0.5-0.1 0.3-0.5 0.5l-1.3 0.7q-0.2 0.1-0.3 0-0.2-0.1-0.2-0.3 0-0.1 0-0.2l4.4-17.6q0.1-0.5 0.3-0.8 0.1-0.3 0.4-0.4zm1 9.9l-2-5.7-1.9 7.9z"/>
					<path id="&lt;Compound Path&gt;" fill-rule="evenodd" class="s2" d="m596.9 245.8q2.2-1.3 3.4-0.6 1.1 0.7 1.1 3.2 0 1.7-0.6 3.3-0.6 1.6-1.7 2.9l2.5 4.4q0 0.1 0 0.3 0 0.2-0.1 0.4-0.1 0.2-0.3 0.3l-1.5 0.9q-0.4 0.2-0.5 0.1-0.2-0.2-0.3-0.3l-2.3-4.2-2.4 1.4v5.5q0 0.3-0.1 0.5-0.2 0.3-0.4 0.4l-1.4 0.9q-0.2 0.1-0.4 0-0.1-0.1-0.1-0.4v-15.4q0-0.3 0.1-0.5 0.2-0.3 0.4-0.4zm-2.7 9l2.6-1.5q1-0.6 1.6-1.4 0.6-0.8 0.6-2.1 0-1.4-0.6-1.5-0.6-0.1-1.6 0.5l-2.6 1.5z"/>
					<path id="&lt;Compound Path&gt;" class="s2" d="m612 237.1q0.2-0.1 0.3 0 0.2 0.1 0.2 0.4v1.6q0 0.3-0.2 0.6-0.1 0.3-0.3 0.4l-3.2 1.8v13.1q0 0.3-0.2 0.5-0.1 0.3-0.3 0.4l-1.5 0.9q-0.2 0.1-0.3 0-0.2-0.1-0.2-0.4v-13.1l-3.2 1.9q-0.2 0.1-0.3 0-0.2-0.1-0.2-0.4v-1.7q0-0.2 0.2-0.5 0.1-0.3 0.3-0.4z"/>
					<path id="&lt;Compound Path&gt;" class="s2" d="m626 245.7q-0.3 0.2-0.5 0-0.1-0.1-0.2-0.2l-5-7v9.8q0 0.3-0.1 0.6-0.2 0.3-0.4 0.4l-1.4 0.8q-0.2 0.1-0.4 0-0.1-0.1-0.1-0.4v-15.4q0-0.2 0.1-0.5 0.2-0.3 0.4-0.4l1.2-0.7q0.3-0.2 0.5-0.1 0.1 0.1 0.2 0.2l5 7.1v-9.9q0-0.2 0.2-0.5 0.1-0.3 0.3-0.4l1.5-0.8q0.2-0.1 0.3 0 0.1 0.1 0.1 0.3v15.4q0 0.3-0.1 0.6-0.1 0.3-0.3 0.4z"/>
					<path id="&lt;Compound Path&gt;" class="s2" d="m638.9 235.3q0.2-0.1 0.3 0 0.2 0.1 0.2 0.3v1.7q0 0.3-0.2 0.6-0.1 0.3-0.3 0.4l-7.9 4.5q-0.2 0.1-0.3 0-0.2-0.1-0.2-0.4v-15.4q0-0.2 0.2-0.5 0.1-0.3 0.3-0.4l7.7-4.5q0.2-0.1 0.4 0 0.1 0.2 0.1 0.4v1.7q0 0.3-0.1 0.5-0.2 0.3-0.4 0.4l-5.8 3.4v3.8l5.4-3.1q0.2-0.2 0.4-0.1 0.1 0.2 0.1 0.4v1.7q0 0.3-0.1 0.5-0.2 0.3-0.4 0.4l-5.4 3.1v4z"/>
					<path id="&lt;Compound Path&gt;" class="s2" d="m647.4 225.4l-1.6 8q-0.1 0.5-0.2 0.8-0.1 0.3-0.4 0.4l-1.5 0.9q-0.2 0.1-0.4 0-0.1-0.2-0.2-0.5l-2.3-13.7q0-0.1 0-0.2 0-0.3 0.1-0.5 0.2-0.3 0.4-0.4l1.3-0.8q0.2-0.1 0.4 0 0.1 0 0.2 0.3l1.5 9.3 1.3-7.2q0-0.1 0.2-0.5 0.1-0.3 0.4-0.5l1.5-0.9q0.3-0.1 0.4 0 0.2 0.2 0.2 0.4l1.3 5.6 1.5-11q0.1-0.4 0.3-0.6 0.1-0.3 0.3-0.4l1.3-0.7q0.2-0.1 0.4 0 0.1 0.1 0.1 0.3 0 0.1 0 0.2l-2.3 16.4q-0.1 0.4-0.2 0.7-0.2 0.3-0.4 0.5l-1.5 0.8q-0.2 0.2-0.4 0-0.1-0.1-0.2-0.4z"/>
					<path id="&lt;Compound Path&gt;" class="s2" d="m659.6 215.8q0-1.4 0.3-2.8 0.4-1.4 1.1-2.7 0.7-1.2 1.7-2.2 1-1.1 2.3-1.8 1.5-0.9 2.5-1 1.1 0 1.7 0.4 0.6 0.4 0.8 1 0.2 0.7 0.3 1.2 0 0.3-0.2 0.6-0.1 0.2-0.3 0.3l-1.5 0.9q-0.2 0.1-0.3 0-0.1 0-0.1-0.1-0.1-0.1-0.2-0.4-0.2-0.2-0.5-0.3-0.3-0.2-0.9-0.2-0.5 0.1-1.3 0.5-1.4 0.8-2.2 2.2-0.8 1.5-0.8 3.1-0.1 1-0.1 2 0 1 0.1 1.9 0 2 0.8 2.4 0.8 0.4 2.2-0.4 0.6-0.3 1.2-0.8 0.5-0.6 0.9-1.2 0.5-0.7 0.7-1.5 0.2-0.8 0.2-1.9v-0.2l-2.2 1.3q-0.2 0.1-0.3 0-0.2-0.1-0.2-0.4v-1.7q0-0.2 0.2-0.5 0.1-0.3 0.3-0.4l4.1-2.4q0.2-0.1 0.4 0 0.1 0.1 0.1 0.4v2.6q0 1.5-0.3 2.9-0.4 1.4-1 2.6-0.7 1.3-1.7 2.4-1.1 1-2.4 1.8-1.4 0.8-2.4 0.9-1 0.1-1.7-0.4-0.6-0.4-1-1.4-0.3-1-0.3-2.4-0.1-0.5-0.1-1 0-0.6 0-1.2 0-0.5 0-1.1 0-0.5 0.1-1z"/>
					<path id="&lt;Compound Path&gt;" fill-rule="evenodd" class="s2" d="m678.3 198.8q0.3-0.2 0.5-0.1 0.1 0.2 0.2 0.5l4.4 12.6q0 0 0 0.1 0 0.3-0.1 0.5-0.2 0.3-0.4 0.4l-1.3 0.8q-0.3 0.2-0.5 0.1-0.1-0.2-0.2-0.3l-0.7-2.2-5.7 3.2-0.8 3.1q0 0.3-0.2 0.5-0.1 0.3-0.5 0.5l-1.2 0.8q-0.2 0.1-0.4 0-0.1-0.1-0.1-0.4 0-0.1 0-0.2l4.4-17.6q0.1-0.4 0.2-0.7 0.2-0.3 0.5-0.5zm0.9 9.9l-1.9-5.6-2 7.9z"/>
					<path id="&lt;Compound Path&gt;" class="s2" d="m690.9 200l3.4-9.8q0.1-0.1 0.2-0.5 0.2-0.4 0.6-0.6l1.2-0.7q0.2-0.1 0.3 0 0.2 0.1 0.2 0.4v15.4q0 0.3-0.2 0.5-0.1 0.3-0.3 0.4l-1.5 0.9q-0.2 0.1-0.3 0-0.1-0.1-0.2-0.4v-9.3l-2.3 6.7q-0.1 0.2-0.2 0.5-0.2 0.3-0.4 0.5l-1 0.5q-0.2 0.1-0.4 0-0.1-0.1-0.2-0.2l-2.4-4v9.3q0 0.2-0.1 0.5-0.1 0.3-0.3 0.4l-1.5 0.8q-0.2 0.2-0.3 0-0.2-0.1-0.2-0.3v-15.4q0-0.3 0.2-0.6 0.1-0.2 0.3-0.4l1.2-0.7q0.4-0.2 0.6 0 0.1 0.2 0.2 0.2z"/>
					<path id="&lt;Compound Path&gt;" class="s2" d="m707.9 195.4q0.2-0.1 0.3 0 0.2 0.1 0.2 0.4v1.7q0 0.3-0.2 0.5-0.1 0.3-0.3 0.4l-7.9 4.6q-0.2 0.1-0.3 0-0.1-0.2-0.1-0.4v-15.4q0-0.3 0.1-0.6 0.1-0.2 0.3-0.3l7.7-4.5q0.2-0.1 0.4 0 0.1 0.1 0.1 0.4v1.7q0 0.2-0.1 0.5-0.2 0.3-0.4 0.4l-5.7 3.3v3.8l5.4-3.1q0.2-0.1 0.3 0 0.1 0.1 0.1 0.4v1.7q0 0.2-0.1 0.5-0.1 0.3-0.3 0.4l-5.4 3.1v4z"/>
				</g>
				<g id="&lt;Group&gt;">
					<path id="&lt;Compound Path&gt;" fill-rule="evenodd" class="s2" d="m546.4 300.8q-1.4 0-2.7-0.7c-1.9-1.1-2.9-3.4-2.9-6.3v-17.1c0-5.7 4-12.7 8.9-15.5l165.8-95.7c2.6-1.5 5-1.7 6.9-0.6 2 1.1 3 3.3 3 6.3v17.1c0 5.7-4 12.6-8.9 15.5l-165.8 95.7c-1.5 0.9-2.9 1.3-4.3 1.3zm173.3-134.7c-0.9 0-2.1 0.4-3.2 1.1l-165.8 95.7c-4.4 2.5-8 8.7-8 13.8v17.1c0 2.2 0.7 3.9 2 4.6 1.3 0.7 3.1 0.5 5-0.6l165.8-95.7c4.4-2.5 8-8.7 8-13.8v-17.1c0-2.2-0.7-3.9-2-4.6q-0.8-0.5-1.8-0.5z"/>
				</g>
			</g>
			<g id="Shine 7 ">
				<g id="&lt;Group&gt;">
					<path id="&lt;Compound Path&gt;" fill-rule="evenodd" class="s2" d="m545.4 253.1c-0.4 0-0.7-0.3-0.8-0.7v-0.8c-0.1-1.9-1.6-3.3-3.5-3.5l-0.7-0.1c-0.4 0-0.7-0.3-0.7-0.7 0-0.4 0.3-0.7 0.7-0.8h0.7c1.9-0.1 3.4-1.6 3.5-3.5l0.1-0.7c0-0.4 0.4-0.7 0.8-0.7 0.3 0 0.7 0.3 0.7 0.7v0.7c0.2 1.9 1.6 3.4 3.5 3.5l0.8 0.1c0.4 0 0.7 0.4 0.7 0.8 0 0.4-0.4 0.7-0.7 0.7l-0.8 0.1c-1.9 0.1-3.3 1.6-3.5 3.4l-0.1 0.8c0 0.4-0.3 0.7-0.7 0.7zm-1.9-5.8c0.8 0.5 1.4 1.2 1.9 2 0.5-0.8 1.2-1.5 2-2-0.8-0.4-1.5-1.1-2-1.9-0.4 0.8-1.1 1.5-1.9 1.9z"/>
				</g>
				<g id="&lt;Group&gt;">
					<path id="&lt;Compound Path&gt;" fill-rule="evenodd" class="s2" d="m527.7 441.1c-0.4 0-0.7-0.3-0.8-0.7v-0.7c-0.1-1.9-1.6-3.4-3.5-3.5l-0.7-0.1c-0.4 0-0.7-0.4-0.7-0.8 0-0.3 0.3-0.7 0.7-0.7h0.7c1.9-0.2 3.4-1.6 3.5-3.5l0.1-0.8c0-0.4 0.4-0.7 0.8-0.7 0.3 0 0.7 0.4 0.7 0.7v0.8c0.2 1.9 1.6 3.3 3.5 3.5l0.8 0.1c0.4 0 0.7 0.3 0.7 0.7 0 0.4-0.4 0.7-0.7 0.8h-0.8c-1.9 0.1-3.3 1.6-3.5 3.5l-0.1 0.7c0 0.4-0.3 0.7-0.7 0.7zm-1.9-5.7c0.8 0.4 1.4 1.1 1.9 1.9 0.5-0.8 1.1-1.4 2-1.9-0.8-0.5-1.5-1.1-2-2-0.4 0.8-1.1 1.5-1.9 2z"/>
				</g>
				<g id="&lt;Group&gt;">
					<path id="&lt;Compound Path&gt;" fill-rule="evenodd" class="s2" d="m733.1 210.2c-0.4 0-0.8-0.3-0.8-0.7v-0.7c-0.2-1.9-1.6-3.4-3.5-3.5l-0.7-0.1c-0.4 0-0.7-0.4-0.7-0.8 0-0.3 0.3-0.7 0.7-0.7h0.7c1.9-0.2 3.4-1.6 3.5-3.5l0.1-0.8c0-0.4 0.3-0.7 0.7-0.7 0.4 0 0.8 0.4 0.8 0.7v0.8c0.2 1.9 1.6 3.3 3.5 3.5l0.7 0.1c0.4 0 0.7 0.3 0.7 0.7 0 0.4-0.3 0.7-0.7 0.8h-0.7c-1.9 0.1-3.4 1.6-3.5 3.5l-0.1 0.7c0 0.4-0.3 0.7-0.7 0.7zm-1.9-5.7c0.8 0.4 1.4 1.1 1.9 1.9 0.5-0.8 1.1-1.4 1.9-1.9-0.8-0.5-1.4-1.2-1.9-2-0.5 0.8-1.1 1.5-1.9 2z"/>
				</g>
				<g id="&lt;Group&gt;">
					<path id="&lt;Compound Path&gt;" fill-rule="evenodd" class="s2" d="m528.3 287.5c-2.6 0.6-5.2-1.1-5.8-3.6-0.6-2.6 1-5.2 3.6-5.8 2.6-0.6 5.2 1 5.8 3.6 0.6 2.6-1 5.2-3.6 5.8zm-1.8-7.9c-1.8 0.4-2.9 2.1-2.5 3.9 0.4 1.8 2.2 2.9 3.9 2.5 1.8-0.4 2.9-2.2 2.5-4-0.4-1.7-2.2-2.9-3.9-2.4z"/>
				</g>
				<g id="&lt;Group&gt;">
					<path id="&lt;Compound Path&gt;" fill-rule="evenodd" class="s2" d="m517.4 420.7c-2.5 0.6-5.1-1-5.7-3.6-0.6-2.5 1-5.1 3.6-5.7 2.6-0.6 5.2 1 5.8 3.6 0.5 2.6-1.1 5.1-3.7 5.7zm-1.8-7.9c-1.8 0.4-2.9 2.2-2.5 4 0.5 1.8 2.2 2.9 4 2.5 1.8-0.4 2.9-2.2 2.5-4-0.4-1.8-2.2-2.9-4-2.5z"/>
				</g>
				<g id="&lt;Group&gt;">
					<path id="&lt;Compound Path&gt;" fill-rule="evenodd" class="s2" d="m749.7 227c-2.6 0.6-5.1-1-5.7-3.6-0.6-2.6 1-5.2 3.6-5.8 2.5-0.6 5.1 1.1 5.7 3.6 0.6 2.6-1 5.2-3.6 5.8zm-1.8-7.9c-1.8 0.4-2.9 2.2-2.5 4 0.4 1.7 2.2 2.9 4 2.4 1.8-0.4 2.9-2.1 2.5-3.9-0.4-1.8-2.2-2.9-4-2.5z"/>
				</g>
				<g id="&lt;Group&gt;">
					<g id="&lt;Group&gt;">
						<path id="&lt;Path&gt;" class="s2" d="m525.4 257.5c-0.5 0.1-0.9-0.2-0.9-0.6l-0.6-2.4c-0.1-0.4 0.1-0.8 0.6-0.9 0.4-0.1 0.8 0.1 0.9 0.5l0.5 2.5c0.1 0.4-0.1 0.8-0.5 0.9z"/>
					</g>
					<g id="&lt;Group&gt;">
						<path id="&lt;Path&gt;" class="s2" d="m524.2 259.3l-2.4 0.5c-0.4 0.1-0.8-0.1-0.9-0.5-0.1-0.5 0.2-0.9 0.6-0.9l2.4-0.6c0.4-0.1 0.8 0.1 0.9 0.6 0.1 0.4-0.2 0.8-0.6 0.9z"/>
					</g>
					<g id="&lt;Group&gt;">
						<path id="&lt;Path&gt;" class="s2" d="m526.6 263c-0.4 0-0.8-0.2-0.9-0.6l-0.5-2.4c-0.1-0.5 0.1-0.9 0.5-0.9 0.4-0.1 0.8 0.1 0.9 0.5l0.6 2.5c0.1 0.4-0.2 0.8-0.6 0.9z"/>
					</g>
					<g id="&lt;Group&gt;">
						<path id="&lt;Path&gt;" class="s2" d="m529.7 258l-2.4 0.5c-0.4 0.1-0.8-0.1-0.9-0.5-0.1-0.4 0.1-0.8 0.6-0.9l2.4-0.6c0.4-0.1 0.8 0.2 0.9 0.6 0.1 0.4-0.2 0.8-0.6 0.9z"/>
					</g>
				</g>
				<g id="&lt;Group&gt;">
					<path id="&lt;Compound Path&gt;" fill-rule="evenodd" class="s2" d="m727.1 360.3c0.4-0.1 0.7 0.2 0.8 0.6l0.1 0.7c0.3 1.9 1.8 3.3 3.7 3.3h0.8c0.3 0 0.7 0.3 0.7 0.7 0 0.4-0.3 0.7-0.6 0.8l-0.8 0.1c-1.8 0.3-3.2 1.8-3.2 3.7l-0.1 0.8c0 0.3-0.3 0.7-0.7 0.7-0.3 0-0.7-0.3-0.7-0.6l-0.1-0.8c-0.3-1.8-1.9-3.2-3.8-3.2l-0.7-0.1c-0.4 0-0.7-0.3-0.8-0.7 0-0.3 0.3-0.7 0.7-0.7l0.7-0.1c1.9-0.3 3.3-1.9 3.3-3.8v-0.7c0-0.4 0.3-0.7 0.7-0.7zm2.3 5.5c-0.8-0.4-1.5-1-2.1-1.8-0.4 0.9-1 1.6-1.8 2.1 0.9 0.4 1.6 1 2.1 1.8 0.4-0.8 1-1.5 1.8-2.1z"/>
				</g>
				<g id="&lt;Group&gt;">
					<path id="&lt;Compound Path&gt;" fill-rule="evenodd" class="s2" d="m736.3 324.7c2.5-0.8 5.2 0.6 6 3.2 0.7 2.5-0.7 5.2-3.2 6-2.6 0.8-5.3-0.7-6-3.2-0.8-2.5 0.6-5.2 3.2-6zm2.3 7.7c1.8-0.5 2.8-2.3 2.2-4.1-0.5-1.7-2.4-2.7-4.1-2.2-1.8 0.6-2.7 2.4-2.2 4.2 0.5 1.7 2.4 2.7 4.1 2.1z"/>
				</g>
				<g id="&lt;Group&gt;">
					<g id="&lt;Group&gt;">
						<path id="&lt;Path&gt;" class="s2" d="m744.6 350.2c0.4-0.1 0.8 0.1 0.9 0.5l0.7 2.4c0.2 0.4-0.1 0.8-0.4 0.9-0.4 0.1-0.9-0.1-1-0.5l-0.7-2.4c-0.1-0.4 0.1-0.8 0.5-0.9z"/>
					</g>
					<g id="&lt;Group&gt;">
						<path id="&lt;Path&gt;" class="s2" d="m745.6 348.3l2.4-0.7c0.4-0.1 0.8 0.1 0.9 0.5 0.1 0.4-0.1 0.8-0.5 0.9l-2.4 0.7c-0.4 0.2-0.8-0.1-0.9-0.5-0.1-0.4 0.1-0.8 0.5-0.9z"/>
					</g>
					<g id="&lt;Group&gt;">
						<path id="&lt;Path&gt;" class="s2" d="m742.9 344.8c0.4-0.1 0.8 0.1 1 0.5l0.7 2.4c0.1 0.4-0.1 0.8-0.5 0.9-0.4 0.1-0.8-0.1-0.9-0.5l-0.8-2.4c-0.1-0.4 0.1-0.8 0.5-0.9z"/>
					</g>
					<g id="&lt;Group&gt;">
						<path id="&lt;Path&gt;" class="s2" d="m740.2 350l2.4-0.8c0.4-0.1 0.8 0.1 0.9 0.5 0.1 0.4-0.1 0.8-0.5 1l-2.4 0.7c-0.4 0.1-0.8-0.1-0.9-0.5-0.1-0.4 0.1-0.8 0.5-0.9z"/>
					</g>
				</g>
				<g id="&lt;Group&gt;">
					<g id="&lt;Group&gt;">
						<path id="&lt;Path&gt;" class="s2" d="m530.1 398.2c-0.4 0.1-0.8-0.2-0.9-0.6l-0.6-2.4c-0.1-0.4 0.2-0.8 0.6-0.9 0.4-0.1 0.8 0.1 0.9 0.5l0.5 2.5c0.1 0.4-0.1 0.8-0.5 0.9z"/>
					</g>
					<g id="&lt;Group&gt;">
						<path id="&lt;Path&gt;" class="s2" d="m528.9 400l-2.4 0.5c-0.4 0.1-0.8-0.1-0.9-0.5-0.1-0.4 0.2-0.8 0.6-0.9l2.4-0.6c0.4-0.1 0.8 0.2 0.9 0.6 0.1 0.4-0.1 0.8-0.6 0.9z"/>
					</g>
					<g id="&lt;Group&gt;">
						<path id="&lt;Path&gt;" class="s2" d="m531.3 403.7c-0.4 0.1-0.8-0.2-0.9-0.6l-0.5-2.4c-0.1-0.4 0.1-0.8 0.5-0.9 0.4-0.1 0.8 0.1 0.9 0.5l0.6 2.5c0.1 0.4-0.2 0.8-0.6 0.9z"/>
					</g>
					<g id="&lt;Group&gt;">
						<path id="&lt;Path&gt;" class="s2" d="m534.4 398.7l-2.4 0.6c-0.4 0.1-0.8-0.2-0.9-0.6-0.1-0.4 0.2-0.8 0.6-0.9l2.4-0.6c0.4 0 0.8 0.2 0.9 0.6 0.1 0.4-0.2 0.8-0.6 0.9z"/>
					</g>
				</g>
				<g id="&lt;Group&gt;">
					<g id="&lt;Group&gt;">
						<path id="&lt;Path&gt;" class="s2" d="m738.7 242.8c-0.4 0.1-0.8-0.1-0.9-0.5l-0.5-2.5c-0.1-0.4 0.1-0.8 0.5-0.9 0.5-0.1 0.9 0.2 0.9 0.6l0.6 2.4c0.1 0.4-0.1 0.8-0.6 0.9z"/>
					</g>
					<g id="&lt;Group&gt;">
						<path id="&lt;Path&gt;" class="s2" d="m737.6 244.6l-2.4 0.6c-0.4 0.1-0.8-0.2-0.9-0.6-0.1-0.4 0.1-0.8 0.5-0.9l2.5-0.6c0.4 0 0.8 0.2 0.9 0.6 0.1 0.4-0.2 0.8-0.6 0.9z"/>
					</g>
					<g id="&lt;Group&gt;">
						<path id="&lt;Path&gt;" class="s2" d="m740 248.3c-0.4 0.1-0.8-0.1-0.9-0.6l-0.5-2.4c-0.1-0.4 0.1-0.8 0.5-0.9 0.4-0.1 0.8 0.2 0.9 0.6l0.6 2.4c0.1 0.4-0.2 0.8-0.6 0.9z"/>
					</g>
					<g id="&lt;Group&gt;">
						<path id="&lt;Path&gt;" class="s2" d="m743.1 243.3l-2.4 0.6c-0.4 0.1-0.8-0.2-0.9-0.6-0.1-0.4 0.1-0.8 0.5-0.9l2.5-0.5c0.4-0.1 0.8 0.1 0.9 0.5 0.1 0.4-0.2 0.8-0.6 0.9z"/>
					</g>
				</g>
			</g>
		</g>
	</g>
	<g id="Food">
		<g id="Pizza">
			<path id="Shadow 22 " class="s5" d="m398.3 751.7c-29.5 17-29.5 44.5 0 61.5 29.4 17 77.1 17 106.5 0 29.5-17 29.5-44.5 0-61.5-29.4-17-77.1-17-106.5 0z"/>
			<g id="Plate 1 ">
				<path id="&lt;Path&gt;" class="s2" d="m503.3 748.2c-28.9-16.7-75.7-16.7-104.6 0v-3c-15 8.7-22.2 20.2-21.5 31.6-0.7 11.4 6.5 23 21.5 31.7 28.9 16.7 75.7 16.7 104.6 0 28.8-16.7 28.8-43.7 0-60.3z"/>
				<path id="&lt;Path&gt;" class="s2" d="m503.3 745.2c28.8 16.6 28.8 43.6 0 60.3-28.9 16.7-75.7 16.7-104.6 0-28.8-16.7-28.8-43.7 0-60.3 28.9-16.7 75.7-16.7 104.6 0z"/>
				<path id="&lt;Path&gt;" class="s16" d="m503.3 745.2c28.8 16.6 28.8 43.6 0 60.3-28.9 16.7-75.7 16.7-104.6 0-28.8-16.7-28.8-43.7 0-60.3 28.9-16.7 75.7-16.7 104.6 0z"/>
				<path id="&lt;Path&gt;" class="s2" d="m415.6 751c-19.9 11.4-19.9 30 0 41.4 19.8 11.5 52 11.5 71.8 0 19.8-11.4 19.8-30 0-41.4-19.8-11.5-52-11.5-71.8 0z"/>
				<path id="&lt;Path&gt;" class="s2" d="m415.6 751c-19.9 11.4-19.9 30 0 41.4 19.8 11.5 52 11.5 71.8 0 19.8-11.4 19.8-30 0-41.4-19.8-11.5-52-11.5-71.8 0z"/>
				<path id="&lt;Path&gt;" class="s2" d="m418 752.4c-18.5 10.6-18.5 27.9 0 38.6 18.5 10.7 48.5 10.7 67 0 18.5-10.7 18.5-28 0-38.6-18.5-10.7-48.5-10.7-67 0z"/>
				<path id="&lt;Path&gt;" class="s16" d="m418 752.4c-18.5 10.6-18.5 27.9 0 38.6 18.5 10.7 48.5 10.7 67 0 18.5-10.7 18.5-28 0-38.6-18.5-10.7-48.5-10.7-67 0z"/>
			</g>
			<path id="&lt;Path&gt;" class="s5" d="m524.4 780.3c-1.6-3-3.7-5.8-5.9-8.3-3.1-3.6-6.6-7-10.6-9.5-5.1-3.3-10.9-5.1-16.7-6.9-6.6-2-13.4-4-20.3-3.8-8.3 0.3-16.2 4-23.7 7.5q-19.1 9-38.1 18-9.5 4.5-18.9 8.9c-1.8 0.9-6.4 2.2-8.4 4.1q2.2 3.4 5.4 6.5 0.2 0.1 0.4 0.1c27.8 5.7 56.3 6.9 84.6 7.2 11.3 0.1 22.5 0 33.7-0.2 10.6-6.8 16.8-15.1 18.5-23.6z"/>
			<path id="&lt;Path&gt;" class="s17" d="m379.5 785.4c0.2 3.4 2.8 6.1 6.2 6.5 4.5 0.5 11.7 1.1 21.2 1.3 17.3 0.3 92.8 3.1 96.4 0.8 5.7-3.7-1.2-12.4-1.2-12.4l-117.7 2z"/>
			<g id="&lt;Group&gt;">
				<path id="&lt;Path&gt;" class="s18" d="m472.9 731.2c3.1-2 8.2-2.1 11.7-0.4 3.4 1.6 5.4 3.3 7.4 5.5 3 3.3 6.7 3.1 15.3 9.2 8.6 6.1 8.2 9.6 9.8 12.8 1.3 2.8 0.4 6.4 1.4 9.3 1 3 3.8 5.3 5.2 8.2 1.3 2.8 2 5.9 1.2 8.9-0.7 2.9-3.1 5.5-6.1 6-1 0.2-2 0.1-3 0.4-1.2 0.3-2.2 1.1-3.4 1.7-2.5 1.3-6.2 2.9-8.7 1.5-2.9-1.7-3.5-4.4-3.5-8.8-1.2-3.4-4.9-6.8-7-9.8q-6.3-8.7-12.5-17.3c-1-1.4-15.6-22.3-15.9-22.1 0 0 8.1-5.1 8.1-5.1z"/>
				<path id="&lt;Path&gt;" class="s5" d="m485.9 765.6q0.9 1.3 1.9 2.6 2.3 3.2 4.5 6.3 0.7 1 1.4 1.8 0 0.1 0.1 0.2c0.5 0.7 1 1.3 1.7 1.8 1.1 0.8 1.7 1.8 2.1 2.9 1.1 1.4 2.1 2.9 2.6 4.3 0 4.4 0.6 7.1 3.5 8.8 2.5 1.4 6.2-0.2 8.7-1.5 1.2-0.6 2.2-1.4 3.4-1.7 1-0.3 2-0.2 3-0.4 3-0.5 5.4-3.1 6.1-6 0.8-3 0.1-6.1-1.2-8.9-0.7-1.4-1.7-2.7-2.6-3.9 0.8 2.3 0.3 5.3-1.4 6.4-2.2 1.4-9.5 0.6-12.4-1-2.9-1.5-1.8-6.3-2.7-8.5-0.9-2.2-5.2-3.9-4.4-8.6 0.8-4.7-2.1-8.3-9-10.6-6.8-2.3-7.8-5.2-10.6-8.3-2.7-3.1-10.3-4-15.8-5 0.3-0.2 14.9 20.7 15.9 22.1q2.6 3.6 5.2 7.2z"/>
				<path id="&lt;Path&gt;" class="s17" d="m464.8 736.3c7.6 4.3 14.2 9.3 19.5 14.7q0.1 0.1 0.3 0.2 0.4 0.4 0.8 0.8 0 0 0 0.1c9.4 9.9 14.8 21.3 14.8 33.4h-120.7l8.6-5 3.1-1.8q0.2-0.1 0.4-0.2z"/>
				<path id="&lt;Path&gt;" class="s19" d="m464.8 736.3c7.6 4.3 14.2 9.3 19.5 14.7q0.1 0.1 0.3 0.2 0.4 0.4 0.8 0.8 0 0 0 0.1c9.4 9.9 14.8 21.3 14.8 33.4h-120.7l8.6-5 3.1-1.8q0.2-0.1 0.4-0.2z"/>
			</g>
			<path id="&lt;Path&gt;" class="s12" d="m423.5 766.8c1.7 1.1 2.9 2.3 3.6 3.6 1.4 2.8 0.2 5.9-3.6 8.1-5.6 3.2-14.7 3.2-20.2 0-3-1.7-4.3-3.9-4.2-6.1 0.1-2 1.5-4 4.2-5.6 5.5-3.2 14.6-3.2 20.2 0z"/>
			<path id="&lt;Path&gt;" class="s12" d="m457.9 765.5c2.5 0 4.9 0.4 6.9 1 4.5 1.4 7.5 4.1 7.6 7.2 0.1 4.5-6.2 8.2-14.1 8.3-4.1 0-7.8-0.9-10.5-2.5-2.4-1.5-3.9-3.4-4-5.6-0.1-4.5 6.2-8.3 14.1-8.4z"/>
			<path id="&lt;Path&gt;" class="s12" d="m471.3 742.4c2.5-0.1 4.8 0.3 6.9 0.9 4.4 1.4 7.5 4.1 7.6 7.2 0.1 4.5-6.2 8.3-14.1 8.3-4.1 0.1-7.9-0.9-10.5-2.5-2.4-1.4-3.9-3.4-4-5.6-0.1-4.5 6.2-8.3 14.1-8.3z"/>
		</g>
		<g id="Soda 1 ">
			<path id="&lt;Path&gt;" class="s5" d="m214.7 750.3c11.4 6.6 29.9 6.6 41.4 0 11.4-6.6 11.4-17.3 0-23.9-11.5-6.6-30-6.6-41.4 0-11.5 6.6-11.5 17.3 0 23.9z"/>
			<g id="&lt;Group&gt;">
				<path id="&lt;Path&gt;" class="s15" d="m263 738.2v-81.6h-49.4v81.6c-0.2 3.8 2.2 7.6 7.2 10.5 9.7 5.6 25.3 5.6 35 0 5-2.9 7.4-6.7 7.2-10.5z"/>
				<path id="&lt;Path&gt;" class="s20" d="m220.8 666.7c9.7 5.5 25.3 5.5 35 0 9.6-5.6 9.6-14.6 0-20.2-9.7-5.6-25.3-5.6-35 0-9.6 5.6-9.6 14.6 0 20.2z"/>
				<path id="&lt;Path&gt;" class="s15" d="m221.9 665.8c9.1 5.2 23.8 5.2 32.8 0 9.1-5.1 9.1-13.4 0-18.5-9-5.1-23.7-5.1-32.8 0-9.1 5.1-9.1 13.4 0 18.5z"/>
				<path id="&lt;Path&gt;" class="s21" d="m254.7 649.7c-9-5.1-23.7-5.1-32.8 0-4 2.3-6.2 5.1-6.7 8.1 0.5 2.9 2.7 5.8 6.7 8 9.1 5.2 23.8 5.2 32.8 0 4-2.2 6.2-5.1 6.7-8-0.5-3-2.7-5.8-6.7-8.1z"/>
				<path id="&lt;Path&gt;" class="s2" d="m213.6 729.9c0 3.6 2.4 7.3 7.2 10.1 9.7 5.6 25.3 5.6 35 0 4.8-2.8 7.2-6.4 7.2-10.1v-65.3c0 3.7-2.4 7.3-7.2 10.1-9.7 5.6-25.3 5.6-35 0-4.8-2.8-7.2-6.5-7.2-10.2z"/>
				<path id="&lt;Path&gt;" class="s19" d="m213.6 729.9c0 3.6 2.4 7.3 7.2 10.1 9.7 5.6 25.3 5.6 35 0 4.8-2.8 7.2-6.4 7.2-10.1v-65.3c0 3.7-2.4 7.3-7.2 10.1-9.7 5.6-25.3 5.6-35 0-4.8-2.8-7.2-6.5-7.2-10.2z"/>
				<path id="&lt;Path&gt;" class="s5" d="m248.4 751.7c-9.1 2.3-20.1 1.4-27.6-3-5-2.9-7.4-6.7-7.2-10.5v-81.6c0 3.6 2.4 7.3 7.2 10.1q1.2 0.6 2.4 1.2v76.3c0 4.1 13.8 9 25.2 7.5z"/>
				<path id="&lt;Compound Path&gt;" class="s7" d="m250.7 658.7c-3.5-2-8.2-2.5-10.5-1.2-2.4 1.4-1.4 4.1 2 6.1 3.5 2 8.2 2.5 10.5 1.2 2.4-1.3 1.4-4.1-2-6.1z"/>
				<path id="&lt;Compound Path&gt;" fill-rule="evenodd" class="s15" d="m243.5 660.4c-2.4 1.4-7.1 0.8-10.5-1.2l-4.3-2.4c-3.5-2-4.4-4.8-2.1-6.1 2.3-1.3 7-0.8 10.5 1.2l4.3 2.5c3.5 2 4.4 4.7 2.1 6zm-10.4-8.6c-1.3-0.8-3.3-0.8-4.6 0-1.3 0.7-1.3 1.9 0 2.6 1.3 0.8 3.3 0.8 4.6 0 1.3-0.7 1.3-1.9 0-2.6zm8.5 4.4c-1.3-0.8-3.4-0.8-4.6 0-1.3 0.7-1.3 1.9 0 2.6 1.2 0.8 3.3 0.8 4.6 0 1.2-0.7 1.2-1.9 0-2.6z"/>
			</g>
			<g id="&lt;Group&gt;">
				<path id="&lt;Path&gt;" class="s7" d="m260 732.3l-10.2-5.2-6.7 3.7-10.4-7.1 4.4-8 8.5 8.8 4.5-3.2z"/>
				<path id="&lt;Path&gt;" class="s7" d="m230.2 697.2l11.2 14.6 5.3-2.6 2.7 10.1 4.4-2.8 5.5 11.2-2.1-19.9-4.8 3.2-1.4-13.2-7.3 3.8-2-12z"/>
				<g id="Shine 1 ">
					<g id="&lt;Group&gt;">
						<path id="&lt;Compound Path&gt;" fill-rule="evenodd" class="s7" d="m231.3 709c-0.1 0.1-0.3 0.1-0.4 0l-0.2-0.1c-0.5-0.5-1.3-0.4-1.8 0l-0.2 0.2c-0.1 0.1-0.3 0.1-0.4 0-0.1-0.1-0.1-0.2 0-0.3l0.2-0.3c0.4-0.5 0.4-1.3-0.1-1.8l-0.2-0.1c-0.1-0.2-0.1-0.3 0-0.4 0.1-0.1 0.3-0.1 0.4 0l0.2 0.1c0.5 0.4 1.3 0.4 1.8-0.1l0.2-0.1c0.1-0.1 0.2-0.1 0.3 0 0.2 0.1 0.2 0.2 0.1 0.3l-0.2 0.2c-0.4 0.6-0.4 1.3 0.1 1.8l0.2 0.2c0.1 0.1 0.1 0.3 0 0.4zm-2-0.9q0.5-0.1 1 0-0.2-0.5-0.1-1-0.5 0.1-1 0 0.2 0.5 0.1 1z"/>
					</g>
					<g id="&lt;Group&gt;">
						<path id="&lt;Compound Path&gt;" fill-rule="evenodd" class="s7" d="m233.6 715.6c-0.7 0.7-1.8 0.7-2.5 0.1-0.7-0.7-0.8-1.8-0.1-2.5 0.6-0.7 1.7-0.8 2.5-0.1 0.7 0.6 0.7 1.8 0.1 2.5zm-2.2-2c-0.5 0.5-0.4 1.2 0.1 1.7 0.4 0.4 1.2 0.4 1.7-0.1 0.4-0.5 0.4-1.3-0.1-1.7-0.5-0.5-1.3-0.4-1.7 0.1z"/>
					</g>
					<g id="&lt;Group&gt;">
						<g id="&lt;Group&gt;">
							<path id="&lt;Path&gt;" class="s7" d="m224.4 714.4c-0.1 0.2-0.3 0.2-0.4 0.1l-0.7-0.6c-0.1-0.2-0.1-0.3 0-0.4 0.1-0.1 0.3-0.1 0.4 0l0.7 0.6c0.1 0.1 0.1 0.2 0 0.3z"/>
						</g>
						<g id="&lt;Group&gt;">
							<path id="&lt;Path&gt;" class="s7" d="m224.4 715.2l-0.6 0.7c-0.1 0.1-0.3 0.1-0.4 0-0.1-0.1-0.1-0.3 0-0.4l0.6-0.7c0.1-0.1 0.3-0.1 0.4 0 0.1 0.1 0.1 0.3 0 0.4z"/>
						</g>
						<g id="&lt;Group&gt;">
							<path id="&lt;Path&gt;" class="s7" d="m225.9 715.8c-0.1 0.1-0.3 0.2-0.4 0l-0.7-0.6c-0.1-0.1-0.1-0.2 0-0.3 0.1-0.2 0.3-0.2 0.4-0.1l0.7 0.6c0.1 0.2 0.1 0.3 0 0.4z"/>
						</g>
						<g id="&lt;Group&gt;">
							<path id="&lt;Path&gt;" class="s7" d="m225.8 713.7l-0.6 0.7c-0.1 0.1-0.3 0.1-0.4 0-0.1-0.1-0.1-0.3 0-0.4l0.6-0.7c0.1-0.1 0.3-0.1 0.4 0 0.1 0.1 0.1 0.3 0 0.4z"/>
						</g>
					</g>
				</g>
				<g id="Shine 2 ">
					<g id="&lt;Group&gt;">
						<path id="&lt;Compound Path&gt;" fill-rule="evenodd" class="s7" d="m255.6 699.6c-0.9-0.4-1.3-1.4-0.9-2.3 0.4-0.9 1.4-1.3 2.3-0.9 0.9 0.4 1.3 1.4 0.9 2.3-0.4 0.9-1.4 1.3-2.3 0.9zm1.2-2.7c-0.6-0.3-1.3 0-1.6 0.6-0.3 0.6 0 1.3 0.6 1.6 0.6 0.2 1.3 0 1.6-0.6 0.3-0.7 0-1.4-0.6-1.6z"/>
					</g>
					<g id="&lt;Group&gt;">
						<g id="&lt;Group&gt;">
							<path id="&lt;Path&gt;" class="s7" d="m253.6 690.5c-0.1 0-0.2-0.2-0.1-0.3l0.4-0.9c0-0.1 0.2-0.2 0.3-0.1 0.2 0.1 0.2 0.2 0.2 0.4l-0.4 0.8c-0.1 0.1-0.2 0.2-0.4 0.1z"/>
						</g>
						<g id="&lt;Group&gt;">
							<path id="&lt;Path&gt;" class="s7" d="m252.9 690.8l-0.8-0.4c-0.1 0-0.2-0.2-0.1-0.3 0-0.2 0.2-0.2 0.3-0.2l0.8 0.4c0.2 0.1 0.2 0.2 0.2 0.4-0.1 0.1-0.2 0.2-0.4 0.1z"/>
						</g>
						<g id="&lt;Group&gt;">
							<path id="&lt;Path&gt;" class="s7" d="m252.8 692.4c-0.1-0.1-0.2-0.2-0.1-0.4l0.3-0.8c0.1-0.1 0.3-0.2 0.4-0.1 0.1 0 0.2 0.2 0.1 0.3l-0.3 0.9c-0.1 0.1-0.2 0.2-0.4 0.1z"/>
						</g>
						<g id="&lt;Group&gt;">
							<path id="&lt;Path&gt;" class="s7" d="m254.8 691.6l-0.8-0.3c-0.2-0.1-0.2-0.3-0.2-0.4 0.1-0.1 0.3-0.2 0.4-0.1l0.8 0.3c0.2 0.1 0.2 0.2 0.2 0.4-0.1 0.1-0.3 0.2-0.4 0.1z"/>
						</g>
					</g>
				</g>
				<g id="Shine 3 ">
					<g id="&lt;Group&gt;">
						<path id="&lt;Compound Path&gt;" fill-rule="evenodd" class="s7" d="m239 732.7c0 0.1 0 0.3-0.1 0.3l-0.3 0.2c-0.6 0.3-0.9 1-0.7 1.6l0.1 0.3c0.1 0.1 0 0.3-0.1 0.3-0.2 0.1-0.3 0-0.4-0.1l-0.1-0.3c-0.3-0.6-1-0.9-1.7-0.6h-0.2c-0.1 0.1-0.3 0-0.3-0.1-0.1-0.1 0-0.3 0.1-0.4l0.2-0.1c0.6-0.3 0.9-1 0.7-1.6l-0.1-0.3c0-0.1 0-0.3 0.2-0.3 0.1-0.1 0.3 0 0.3 0.1l0.1 0.2c0.3 0.6 1 0.9 1.7 0.7l0.3-0.1c0.1 0 0.2 0.1 0.3 0.2zm-1.7 1.4q0.1-0.5 0.4-0.9-0.5 0-0.9-0.4-0.1 0.6-0.4 1 0.5 0 0.9 0.3z"/>
					</g>
					<g id="&lt;Group&gt;">
						<path id="&lt;Compound Path&gt;" fill-rule="evenodd" class="s7" d="m250.5 732.8c0.3 0.9-0.1 1.9-1 2.3-0.9 0.4-1.9-0.1-2.3-0.9-0.3-0.9 0.1-1.9 1-2.3 0.9-0.4 1.9 0 2.3 0.9zm-2.8 1.2c0.3 0.6 1 0.8 1.6 0.6 0.6-0.3 0.9-1 0.7-1.6-0.3-0.6-1-0.9-1.6-0.6-0.6 0.2-0.9 0.9-0.7 1.6z"/>
					</g>
					<g id="&lt;Group&gt;">
						<g id="&lt;Group&gt;">
							<path id="&lt;Path&gt;" class="s7" d="m242.7 739c0.1 0.1 0 0.3-0.1 0.3l-0.8 0.4c-0.2 0-0.3 0-0.4-0.2-0.1-0.1 0-0.3 0.1-0.3l0.9-0.4c0.1 0 0.3 0 0.3 0.2z"/>
						</g>
						<g id="&lt;Group&gt;">
							<path id="&lt;Path&gt;" class="s7" d="m243.4 739.3l0.4 0.8c0.1 0.1 0 0.3-0.2 0.3-0.1 0.1-0.3 0-0.3-0.1l-0.4-0.8c0-0.2 0.1-0.3 0.2-0.4 0.1-0.1 0.3 0 0.3 0.2z"/>
						</g>
						<g id="&lt;Group&gt;">
							<path id="&lt;Path&gt;" class="s7" d="m244.6 738.2c0.1 0.1 0 0.3-0.1 0.3l-0.9 0.4c-0.1 0-0.3 0-0.3-0.2-0.1-0.1 0-0.3 0.1-0.3l0.9-0.4c0.1 0 0.3 0 0.3 0.2z"/>
						</g>
						<g id="&lt;Group&gt;">
							<path id="&lt;Path&gt;" class="s7" d="m242.7 737.4l0.3 0.8c0.1 0.1 0 0.3-0.1 0.4-0.2 0-0.3-0.1-0.4-0.2l-0.3-0.8c-0.1-0.2 0-0.3 0.1-0.4 0.1 0 0.3 0 0.4 0.2z"/>
						</g>
					</g>
				</g>
			</g>
		</g>
		<g id="Soda">
			<path id="&lt;Path&gt;" class="s5" d="m805.1 626.4c11.4 6.6 29.9 6.6 41.4 0 11.4-6.6 11.4-17.3 0-23.9-11.5-6.6-30-6.6-41.4 0-11.4 6.6-11.4 17.3 0 23.9z"/>
			<g id="&lt;Group&gt;">
				<path id="&lt;Path&gt;" class="s15" d="m804 614.3v-81.6h49.4v81.6c0.2 3.8-2.2 7.7-7.2 10.6-9.7 5.5-25.3 5.5-35 0-5-2.9-7.4-6.8-7.2-10.6z"/>
				<path id="&lt;Path&gt;" class="s20" d="m846.2 542.8c-9.7 5.6-25.3 5.6-35 0-9.6-5.6-9.6-14.6 0-20.2 9.7-5.6 25.3-5.6 35 0 9.6 5.6 9.6 14.6 0 20.2z"/>
				<path id="&lt;Path&gt;" class="s15" d="m845.1 542c-9 5.1-23.7 5.1-32.8 0-9-5.1-9-13.4 0-18.6 9.1-5.1 23.8-5.1 32.8 0 9.1 5.2 9.1 13.5 0 18.6z"/>
				<path id="&lt;Path&gt;" class="s21" d="m812.3 525.8c9.1-5.1 23.8-5.1 32.8 0 4 2.3 6.2 5.2 6.7 8.1-0.5 2.9-2.7 5.8-6.7 8.1-9 5.1-23.7 5.1-32.8 0-4-2.3-6.2-5.2-6.7-8.1 0.5-2.9 2.7-5.8 6.7-8.1z"/>
				<path id="&lt;Path&gt;" class="s2" d="m853.4 606c0.1 3.7-2.3 7.3-7.2 10.2-9.7 5.5-25.3 5.5-35 0-4.8-2.8-7.2-6.5-7.2-10.1v-65.4c0 3.7 2.4 7.3 7.2 10.1 9.7 5.6 25.3 5.6 35 0 4.9-2.8 7.3-6.5 7.2-10.1z"/>
				<path id="&lt;Path&gt;" class="s19" d="m853.4 606c0.1 3.7-2.3 7.3-7.2 10.2-9.7 5.5-25.3 5.5-35 0-4.8-2.8-7.2-6.5-7.2-10.1v-65.4c0 3.7 2.4 7.3 7.2 10.1 9.7 5.6 25.3 5.6 35 0 4.9-2.8 7.3-6.5 7.2-10.1z"/>
				<path id="&lt;Path&gt;" class="s5" d="m818.6 627.8c9.1 2.3 20.1 1.4 27.6-2.9 5-2.9 7.4-6.8 7.2-10.6v-81.6c0 3.7-2.4 7.3-7.2 10.1q-1.2 0.7-2.4 1.2v76.3c0 4.2-13.8 9.1-25.2 7.5z"/>
				<path id="&lt;Compound Path&gt;" class="s7" d="m814.3 540.9c2.3 1.4 7 0.8 10.5-1.2 3.5-2 4.4-4.7 2.1-6-2.4-1.4-7.1-0.8-10.5 1.2-3.5 2-4.4 4.7-2.1 6z"/>
				<path id="&lt;Compound Path&gt;" fill-rule="evenodd" class="s15" d="m825.6 530.5l4.3-2.5c3.5-2 8.2-2.5 10.5-1.2 2.3 1.4 1.4 4.1-2.1 6.1l-4.2 2.5c-3.5 2-8.2 2.5-10.5 1.2-2.4-1.4-1.4-4.1 2-6.1zm8.3 0.1c1.3 0.7 3.4 0.7 4.6 0 1.3-0.8 1.3-2 0-2.7-1.2-0.7-3.3-0.7-4.6 0-1.2 0.7-1.2 1.9 0 2.7zm-8.4 4.4c1.2 0.7 3.3 0.7 4.6 0 1.2-0.8 1.2-2 0-2.7-1.3-0.7-3.4-0.7-4.6 0-1.3 0.7-1.3 1.9 0 2.7z"/>
			</g>
			<g id="&lt;Group&gt;">
				<path id="&lt;Path&gt;" class="s7" d="m807 608.4l10.2-5.2 6.7 3.7 10.4-7-4.4-8.1-8.4 8.9-4.6-3.3z"/>
				<path id="&lt;Path&gt;" class="s7" d="m836.8 573.3l-11.2 14.6-5.3-2.5-2.7 10-4.4-2.8-5.5 11.2 2.1-19.9 4.8 3.3 1.5-13.3 7.2 3.8 2-12z"/>
				<g id="Shine 6 ">
					<g id="&lt;Group&gt;">
						<path id="&lt;Compound Path&gt;" fill-rule="evenodd" class="s7" d="m835.8 584.8l0.1-0.2c0.5-0.5 0.5-1.3 0.1-1.8l-0.2-0.2c0-0.2 0-0.3 0.1-0.4 0.1-0.1 0.2-0.1 0.3 0l0.2 0.2c0.5 0.4 1.3 0.5 1.8 0l0.2-0.1c0.2-0.1 0.3-0.1 0.4 0 0.1 0.1 0.1 0.3 0 0.4l-0.2 0.2c-0.4 0.5-0.5 1.2 0 1.8l0.1 0.2c0.1 0.1 0.1 0.3 0 0.3-0.1 0.1-0.3 0.1-0.4 0l-0.2-0.1c-0.5-0.5-1.2-0.5-1.8-0.1l-0.2 0.2c-0.1 0-0.2 0-0.3-0.1-0.1-0.1-0.1-0.2 0-0.3zm2-1.6q-0.5 0.2-1 0 0.1 0.5 0 1 0.5-0.1 1 0-0.1-0.5 0-1z"/>
					</g>
					<g id="&lt;Group&gt;">
						<path id="&lt;Compound Path&gt;" fill-rule="evenodd" class="s7" d="m833.6 589.2c0.7-0.6 1.8-0.6 2.4 0.1 0.7 0.7 0.6 1.8-0.1 2.5-0.7 0.6-1.8 0.6-2.4-0.1-0.7-0.7-0.6-1.8 0.1-2.5zm0.3 0.4c-0.4 0.5-0.5 1.2 0 1.7 0.4 0.5 1.2 0.5 1.7 0.1 0.5-0.5 0.5-1.2 0-1.7-0.4-0.5-1.2-0.5-1.7-0.1z"/>
					</g>
					<g id="&lt;Group&gt;">
						<g id="&lt;Group&gt;">
							<path id="&lt;Path&gt;" class="s7" d="m842.7 590.6c0.1 0.1 0.2 0.1 0.3 0l0.7-0.6c0.1-0.1 0.1-0.3 0-0.4-0.1-0.1-0.2-0.1-0.4 0l-0.6 0.6c-0.1 0.1-0.1 0.3 0 0.4z"/>
						</g>
						<g id="&lt;Group&gt;">
							<path id="&lt;Path&gt;" class="s7" d="m842.6 591.3l0.6 0.7c0.1 0.1 0.3 0.1 0.4 0 0.1-0.1 0.1-0.2 0-0.4l-0.6-0.6c-0.1-0.1-0.2-0.1-0.4 0-0.1 0.1-0.1 0.2 0 0.3z"/>
						</g>
						<g id="&lt;Group&gt;">
							<path id="&lt;Path&gt;" class="s7" d="m841.2 592c0.1 0.1 0.2 0.1 0.3 0l0.7-0.6c0.1-0.1 0.1-0.3 0-0.4-0.1-0.1-0.2-0.1-0.4 0l-0.6 0.6c-0.1 0.1-0.1 0.3 0 0.4z"/>
						</g>
						<g id="&lt;Group&gt;">
							<path id="&lt;Path&gt;" class="s7" d="m841.2 589.8l0.7 0.7c0.1 0.1 0.2 0.1 0.3 0 0.2-0.1 0.2-0.3 0.1-0.4l-0.7-0.6c-0.1-0.1-0.2-0.1-0.3 0-0.1 0.1-0.2 0.2-0.1 0.3z"/>
						</g>
					</g>
				</g>
				<g id="Shine 5 ">
					<g id="&lt;Group&gt;">
						<path id="&lt;Compound Path&gt;" fill-rule="evenodd" class="s7" d="m809.1 574.8c-0.3-0.9 0.1-1.9 0.9-2.3 0.9-0.4 1.9 0 2.3 0.9 0.4 0.9 0 1.9-0.9 2.3-0.9 0.4-1.9 0-2.3-0.9zm0.5-0.2c0.3 0.6 1 0.9 1.6 0.6 0.6-0.3 0.9-1 0.6-1.6-0.2-0.6-0.9-0.9-1.5-0.6-0.7 0.3-0.9 1-0.7 1.6z"/>
					</g>
					<g id="&lt;Group&gt;">
						<g id="&lt;Group&gt;">
							<path id="&lt;Path&gt;" class="s7" d="m813.4 566.7c0.1-0.1 0.2-0.3 0.1-0.4l-0.3-0.8c-0.1-0.2-0.3-0.2-0.4-0.2-0.1 0.1-0.2 0.2-0.1 0.4l0.3 0.8c0.1 0.2 0.2 0.2 0.4 0.2z"/>
						</g>
						<g id="&lt;Group&gt;">
							<path id="&lt;Path&gt;" class="s7" d="m814.1 566.9l0.8-0.3c0.2-0.1 0.2-0.2 0.2-0.4-0.1-0.1-0.3-0.2-0.4-0.1l-0.8 0.3c-0.2 0.1-0.2 0.3-0.2 0.4 0.1 0.1 0.3 0.2 0.4 0.1z"/>
						</g>
						<g id="&lt;Group&gt;">
							<path id="&lt;Path&gt;" class="s7" d="m814.2 568.5c0.1 0 0.2-0.2 0.1-0.3l-0.3-0.9c-0.1-0.1-0.2-0.2-0.4-0.1-0.1 0.1-0.2 0.2-0.1 0.4l0.3 0.8c0.1 0.1 0.3 0.2 0.4 0.1z"/>
						</g>
						<g id="&lt;Group&gt;">
							<path id="&lt;Path&gt;" class="s7" d="m812.2 567.8l0.9-0.4c0.1-0.1 0.2-0.2 0.1-0.4-0.1-0.1-0.2-0.2-0.4-0.1l-0.8 0.4c-0.1 0-0.2 0.2-0.1 0.3 0 0.1 0.2 0.2 0.3 0.2z"/>
						</g>
					</g>
				</g>
				<g id="Shine 4 ">
					<g id="&lt;Group&gt;">
						<path id="&lt;Compound Path&gt;" fill-rule="evenodd" class="s7" d="m828.4 608.7h0.2c0.7 0.3 1.4 0 1.7-0.6l0.1-0.3c0.1-0.1 0.2-0.2 0.4-0.1 0.1 0.1 0.2 0.2 0.1 0.3l-0.1 0.3c-0.2 0.6 0.1 1.3 0.7 1.7l0.2 0.1c0.2 0 0.2 0.2 0.2 0.3-0.1 0.1-0.2 0.2-0.4 0.2l-0.2-0.1c-0.7-0.2-1.4 0.1-1.7 0.7l-0.1 0.2c-0.1 0.1-0.2 0.2-0.3 0.1-0.2 0-0.2-0.2-0.2-0.3l0.1-0.3c0.2-0.6-0.1-1.3-0.7-1.6l-0.2-0.1c-0.2-0.1-0.2-0.3-0.2-0.4 0.1-0.1 0.2-0.2 0.4-0.1zm2.2 1.2q-0.3-0.4-0.4-0.9-0.4 0.3-0.9 0.3 0.3 0.5 0.4 1 0.4-0.3 0.9-0.4z"/>
					</g>
					<g id="&lt;Group&gt;">
						<path id="&lt;Compound Path&gt;" fill-rule="evenodd" class="s7" d="m818.8 608c0.9 0.4 1.4 1.4 1 2.3-0.4 0.9-1.4 1.3-2.3 0.9-0.9-0.3-1.3-1.4-0.9-2.3 0.3-0.8 1.4-1.3 2.2-0.9zm-0.2 0.5c-0.6-0.2-1.3 0-1.5 0.7-0.3 0.6 0 1.3 0.6 1.5 0.6 0.3 1.3 0 1.6-0.6 0.2-0.6-0.1-1.3-0.7-1.6z"/>
					</g>
					<g id="&lt;Group&gt;">
						<g id="&lt;Group&gt;">
							<path id="&lt;Path&gt;" class="s7" d="m824.3 615.1c-0.1 0.1 0 0.3 0.1 0.3l0.9 0.4c0.1 0 0.3 0 0.3-0.2 0.1-0.1 0-0.3-0.1-0.3l-0.9-0.4c-0.1 0-0.3 0-0.3 0.2z"/>
						</g>
						<g id="&lt;Group&gt;">
							<path id="&lt;Path&gt;" class="s7" d="m823.6 615.4l-0.4 0.8c0 0.2 0 0.3 0.2 0.4 0.1 0 0.3 0 0.3-0.2l0.4-0.8c0-0.2 0-0.3-0.2-0.4-0.1 0-0.3 0-0.3 0.2z"/>
						</g>
						<g id="&lt;Group&gt;">
							<path id="&lt;Path&gt;" class="s7" d="m822.4 614.3c-0.1 0.1 0 0.3 0.2 0.4l0.8 0.3c0.1 0.1 0.3 0 0.3-0.1 0.1-0.2 0-0.3-0.1-0.4l-0.8-0.3c-0.2-0.1-0.3 0-0.4 0.1z"/>
						</g>
						<g id="&lt;Group&gt;">
							<path id="&lt;Path&gt;" class="s7" d="m824.4 613.5l-0.4 0.8c0 0.2 0 0.3 0.2 0.4 0.1 0 0.3 0 0.3-0.2l0.4-0.8c0-0.1 0-0.3-0.2-0.4-0.1 0-0.3 0.1-0.3 0.2z"/>
						</g>
					</g>
				</g>
			</g>
		</g>
		<g id="Chips">
			<g id="&lt;Group&gt;">
				<path id="&lt;Path&gt;" class="s17" d="m335.1 736.3c-7.9 0-14 10.2-25.3 8.7-11.3-1.6-19.1 6.5-14 13.8 5.2 7.3 21 14 38.3 5.2 17.2-8.8 13.1-27.6 1-27.7z"/>
				<path id="&lt;Path&gt;" class="s18" d="m339.5 760.3c-2.6-0.1-5.3-0.6-8-2.1-9.9-5.6-20.2-1.1-18 7.6q0.2 1.1 0.7 2.2c5.9 0.5 12.8-0.4 19.9-4 2.1-1.1 3.9-2.3 5.4-3.7z"/>
				<path id="&lt;Path&gt;" class="s18" d="m334.1 764c7.2-3.7 10.6-9.1 11.4-14.2-5.5 13-23.5 18-33.8 15.9-10.4-2-15.8-6.9-17.2-13.4-0.6 2-0.2 4.3 1.3 6.5 5.2 7.3 21 14 38.3 5.2z"/>
			</g>
			<g id="&lt;Group&gt;">
				<path id="&lt;Path&gt;" class="s17" d="m359.9 759.4c-7.3-3-16.7 4.3-26.6-1.3-10-5.6-20.3-1.1-18.1 7.6 2.1 8.7 14.3 20.7 33.6 18.9 19.3-1.8 22.3-20.8 11.1-25.2z"/>
				<path id="&lt;Path&gt;" class="s18" d="m366.1 771.7c-1.2 6-6.9 12-17.3 12.9-19.3 1.8-31.5-10.2-33.6-18.9-0.5-2-0.3-3.8 0.3-5.3q-0.2 1.5 0.3 3.3c2.1 8.6 14.3 20.7 33.6 18.9 9.2-0.9 14.7-5.7 16.7-10.9z"/>
			</g>
		</g>
	</g>
</svg>