<svg version="1.2" xmlns="http://www.w3.org/2000/svg" viewBox="0 0 1500 1000" width="1500" height="1000">
	<title>6325252-ai</title>
	<style>
		.s0 { opacity: .2;fill: #92e3a9 } 
		.s1 { opacity: .2;fill: #ffffff } 
		.s2 { fill: none;stroke: #263238;stroke-miterlimit:10;stroke-width: 2 } 
		.s3 { fill: #263238 } 
		.s4 { fill: #92e3a9 } 
		.s5 { opacity: .3;fill: #ffffff } 
		.s6 { opacity: .5;fill: #ffffff } 
		.s7 { fill: #263238;stroke: #263238;stroke-miterlimit:10;stroke-width: 2 } 
		.s8 { fill: #ffffff;stroke: #263238;stroke-miterlimit:10;stroke-width: 2 } 
	</style>
	<g id="Background Simple">
		<g id="&lt;Group&gt;">
			<path id="&lt;Path&gt;" class="s0" d="m1408.4 383.2c-15.8-56.8-120.9 5-120.9 5l27.5-49.9c3.3-4.9 6.2-10.2 8.7-15.8 13.9-30.9 13.7-63.9 0-92.7-3.8-17.4-15.2-42.4-46.7-69.7-59.5-51.8-259.1-87.2-316.9-79.3-57.8 7.8 52.5 32.1 52.5 32.1h-8.7c-168.3-17.9-337.7-20.2-505.7-16.7-42.1 0.9-84.4 2.3-125.6 9.4-11.9 2-24.7 5.1-31.7 14.7-31.4 42.6 96.9 46.7 117 45.9-88.1 11.4-186 15-268 49-11.4 4.8-22.7 10.4-31.4 19.2-8.6 8.8-14.2 21.3-12.2 33.8 5.6 36.4 55.7 47.2 84.2 55.3 0 0-163.5 108.6-144.2 163.8 8 22.8 19.8 46.8 41.8 70.4-12.5 15.8-23.6 32.3-32.1 49.8-5.2 10.6-12 25.3-6.2 37.6 29.8 62.6 481.2 277.7 843 216.3 96.1-16.3 191.8-43.3 276-91 83.9-47.4 169.3-125.8 190.4-224.7q1.1-4.8 1.6-9.5c13.1-45.5 20.8-105.5 7.6-153z"/>
			<path id="&lt;Path&gt;" class="s1" d="m1408.4 383.2c-15.8-56.8-120.9 5-120.9 5l27.5-49.9c3.3-4.9 6.2-10.2 8.7-15.8 13.9-30.9 13.7-63.9 0-92.7-3.8-17.4-15.2-42.4-46.7-69.7-59.5-51.8-259.1-87.2-316.9-79.3-57.8 7.8 52.5 32.1 52.5 32.1h-8.7c-168.3-17.9-337.7-20.2-505.7-16.7-42.1 0.9-84.4 2.3-125.6 9.4-11.9 2-24.7 5.1-31.7 14.7-31.4 42.6 96.9 46.7 117 45.9-88.1 11.4-186 15-268 49-11.4 4.8-22.7 10.4-31.4 19.2-8.6 8.8-11.9 21.1-12.2 33.8-0.8 33.5 53.1 46 84.2 55.3 0 0-163.5 108.6-144.2 163.8 8 22.8 19.8 46.8 41.8 70.4-12.5 15.8-23.6 32.3-32.1 49.8-5.2 10.6-12 25.3-6.2 37.6 29.8 62.6 481.2 277.7 843 216.3 96.1-16.3 191.8-43.3 276-91 83.9-47.4 169.3-125.8 190.4-224.7q1.1-4.8 1.6-9.5c13.1-45.5 20.8-105.5 7.6-153z"/>
		</g>
	</g>
	<g id="Birds">
		<g id="&lt;Group&gt;">
			<path id="&lt;Path&gt;" class="s2" d="m1115.9 321.2c0 0 2.1-6.1 12.3-8.2 10.2-2 22.4 9.2 22.4 9.2 0 0 8.2-16.3 16.3-17.3 8.2-1.1 17.4 6.1 17.4 6.1"/>
			<path id="&lt;Path&gt;" class="s2" d="m1089.4 360c0 0 2-6.2 12.2-8.2 10.2-2 22.5 9.2 22.5 9.2 0 0 8.1-16.3 16.3-17.4 8.2-1 17.4 6.2 17.4 6.2"/>
			<path id="&lt;Path&gt;" class="s2" d="m1186.3 360.2c0 0 1.6-4.7 9.3-6.2 7.8-1.6 17.1 7 17.1 7 0 0 6.3-12.4 12.5-13.2 6.2-0.8 13.2 4.6 13.2 4.6"/>
			<path id="&lt;Path&gt;" class="s2" d="m1299.7 401.3c0 0 1-3.1 6.1-4.1 5.1-1 11.2 4.6 11.2 4.6 0 0 4.1-8.1 8.2-8.7 4.1-0.5 8.6 3.1 8.6 3.1"/>
		</g>
	</g>
	<g id="Clouds">
		<path id="&lt;Path&gt;" class="s2" d="m756.3 310.4c-10.6-47.4-65.2-82.7-112.8-75.9-11.8 1.6-23.4 6.1-32.3 14.3-12.1 11.2-9.3 23.9-15.3 37.7-1.6 3.9-4.9 7.3-9 8-11.9 2-21.4-9.8-33.4-9.9-9 0-20.4 4.9-25.4 12.7-4.7 7.2-1.4 19.7-9.8 24.5-9.4 5.4-20.8-4.8-30.9-1.1-12.6 4.6-6.9 13.7-11.4 19.4-4.6 5.7-13.8 3.5-26.4 2.3-12.5-1.1-22.8 13.7-22.8 13.7h397c0 0 3.4-5.7-11.5-28.6-14.8-22.8-35.4-6.8-44.6-6.8-9.1 0-11.4-10.3-11.4-10.3z"/>
		<path id="&lt;Path&gt;" class="s2" d="m866.8 234.3c-4.2-19-26.1-33.2-45.2-30.5-4.7 0.7-9.4 2.5-13 5.8-4.8 4.5-3.7 9.6-6.1 15.1-0.7 1.6-2 2.9-3.6 3.2-4.8 0.8-8.6-3.9-13.4-3.9-3.6-0.1-8.2 1.9-10.2 5-1.9 2.9-0.6 8-3.9 9.9-3.8 2.1-8.4-2-12.4-0.5-5.1 1.9-2.8 5.5-4.6 7.8-1.8 2.3-5.5 1.4-10.6 0.9-5-0.4-9.2 5.6-9.2 5.6h159.3c0 0 1.4-2.3-4.6-11.5-5.9-9.2-14.2-2.8-17.9-2.8-3.6 0-4.6-4.1-4.6-4.1z"/>
		<path id="&lt;Path&gt;" class="s2" d="m1206.7 467.2c-4.3-19-26.2-33.2-45.3-30.5-4.7 0.7-9.4 2.5-12.9 5.8-4.9 4.5-3.8 9.6-6.2 15.1-0.7 1.6-2 2.9-3.6 3.2-4.8 0.8-8.6-3.9-13.4-3.9-3.6-0.1-8.2 1.9-10.2 5-1.9 2.9-0.6 8-3.9 9.9-3.8 2.1-8.4-1.9-12.4-0.5-5.1 1.9-2.8 5.5-4.6 7.8-1.8 2.3-5.5 1.4-10.6 1-5-0.5-9.1 5.5-9.1 5.5h159.2c0 0 1.4-2.3-4.6-11.5-5.9-9.2-14.2-2.8-17.9-2.8-3.6 0-4.5-4.1-4.5-4.1z"/>
		<path id="&lt;Path&gt;" class="s2" d="m951.2 446.4c-6.5-29.1-40.1-50.8-69.3-46.6-7.3 1-14.4 3.7-19.9 8.8-7.5 6.8-5.7 14.6-9.4 23.1-1 2.4-3 4.5-5.5 4.9-7.3 1.3-13.2-6-20.5-6-5.6-0.1-12.6 3-15.7 7.7-2.8 4.5-0.8 12.2-6 15.1-5.7 3.3-12.7-2.9-19-0.7-7.7 2.8-4.2 8.5-7 12-2.8 3.5-8.4 2.1-16.2 1.4-7.7-0.7-14 8.4-14 8.4h243.9c0 0 2.1-3.5-7-17.5-9.1-14.1-21.8-4.3-27.4-4.3-5.6 0-7-6.3-7-6.3z"/>
	</g>
	<g id="Mountains">
		<path id="&lt;Path&gt;" class="s3" d="m1008.5 781.8c0 0-14.5-15.1-10.5-14.7 4.1 0.5 11.8 11.8 11.8 11.8 0 0 0.1-24.9 3.7-19.5 3.7 5.5-0.8 19.6-0.8 19.6 0 0 10.4-16.2 10.4-13.6-0.1 8.2-8 14.6-8 14.6 0 0 16.6-12.3 13.9-7.3-2.7 5-13.4 9.7-13.4 9.7 0 0 19.2-3.8 12.4-1.1-6.8 2.7-13.3 4.6-13.3 4.6h-5.3c0 0-18.1-9.1-11.3-7.7 6.8 1.3 10.4 3.6 10.4 3.6z"/>
		<path id="&lt;Path&gt;" class="s3" d="m1201.1 734.5c0 0-11.3-11.7-8.1-11.4 3.1 0.4 9.1 9.2 9.1 9.2 0 0 0.1-19.4 2.9-15.2 2.8 4.3-0.6 15.2-0.6 15.2 0 0 8.1-12.6 8-10.5 0 6.4-6.2 11.4-6.2 11.4 0 0 13-9.7 10.8-5.8-2.1 3.9-10.4 7.6-10.4 7.6 0 0 15-3 9.7-0.9-5.3 2.1-10.4 3.6-10.4 3.6h-4.1c0 0-14.1-7.1-8.8-6 5.3 1.1 8.1 2.8 8.1 2.8z"/>
		<path id="&lt;Path&gt;" class="s3" d="m1379.9 692.3c0 0-11.3-11.7-8.2-11.4 3.2 0.4 9.2 9.2 9.2 9.2 0 0 0.1-19.4 2.9-15.2 2.8 4.3-0.6 15.3-0.6 15.3 0 0 8.1-12.7 8-10.6 0 6.4-6.2 11.4-6.2 11.4 0 0 13-9.6 10.8-5.7-2.1 3.9-10.4 7.5-10.4 7.5 0 0 15-3 9.7-0.9-5.4 2.2-10.4 3.6-10.4 3.6h-4.1c0 0-14.1-7.1-8.8-6 5.3 1.1 8.1 2.8 8.1 2.8z"/>
		<path id="&lt;Path&gt;" class="s4" d="m1152 788.7c0 0-13.5-14.1-9.7-13.6 3.8 0.4 10.9 10.9 10.9 10.9 0 0 0.1-23.2 3.5-18.1 3.4 5.1-0.8 18.2-0.8 18.2 0 0 9.7-15.1 9.7-12.6-0.1 7.6-7.5 13.5-7.5 13.5 0 0 15.5-11.4 13-6.8-2.6 4.7-12.5 9.1-12.5 9.1 0 0 17.9-3.6 11.5-1.1-6.3 2.5-12.3 4.3-12.3 4.3h-5c0 0-16.8-8.5-10.5-7.2 6.4 1.3 9.7 3.4 9.7 3.4z"/>
		<g id="&lt;Group&gt;">
			<path id="&lt;Path&gt;" class="s2" d="m883.8 727.8l-119.9-134.5-26.3 21-131.5-198-114.5 25.5-34.2-63.9-33.3-1.7-63-124.4-94.3 86.1-45.5-16.3-165.6 168.9"/>
			<path id="&lt;Path&gt;" class="s2" d="m906.3 753l-12.6-14.1"/>
			<path id="&lt;Path&gt;" class="s2" d="m430.2 458.3l-9.9 2.7"/>
			<path id="&lt;Path&gt;" class="s2" d="m491.4 441.7l-50.1 13.6"/>
			<path id="&lt;Path&gt;" class="s2" d="m302.5 384.1l28.1-41.3-1.9-14.2 32.1-65.3"/>
			<path id="&lt;Path&gt;" class="s2" d="m290.8 401.4l7-10.3"/>
			<path id="&lt;Path&gt;" class="s2" d="m247.3 425.9l-45.5 61.7"/>
			<path id="&lt;Path&gt;" class="s2" d="m223.6 328.6l11.4 25.5 25.5 20.8-2.8 37-6.2 8.4"/>
			<path id="&lt;Path&gt;" class="s2" d="m457.4 377.9l-23.7 22.6-8.5-14.2"/>
			<path id="&lt;Path&gt;" class="s2" d="m1414 630.9l-184-129.8-55.9 78.8-69-23-106.8 149.6-69-14.8-34.5 29.5"/>
			<path id="&lt;Path&gt;" class="s2" d="m1230 501.1l-21.9 96.1-25.8-11.2"/>
			<path id="&lt;Path&gt;" class="s2" d="m1105.7 562.6l-54 157.2-37.1-6.4"/>
		</g>
	</g>
	<g id="Trees 2">
		<g id="&lt;Group&gt;">
			<path id="&lt;Path&gt;" class="s4" d="m1103.2 551.3c-47.9 0-86.7 38.6-86.7 86.2 0 22 8.3 42.1 22.1 57.4 6.2-0.9 17.7-1.6 30.3 2.7 16.8 5.7 27.2 15.1 29.5 17.3h7.8c2.3-2.2 12.7-11.6 29.5-17.3 13.8-4.7 26.1-3.5 31.9-2.5 13.9-15.3 22.3-35.5 22.3-57.6 0-47.6-38.8-86.2-86.7-86.2z"/>
			<path id="&lt;Path&gt;" class="s3" d="m1143.6 672q-4 1.9-8 4c-2.6 1.5-5.1 3-7.5 4.7q-1.4 0.9-2.7 1.9l14.2-26.4-19.5 30.5q-3 2.4-5.8 4.9-4.7 4.1-9.2 8.4l-1-28.7 20.4-31.1-20.6 26.7-0.9-25.7-1.4 28.8-1.5 28.8q-3.9-3.7-8-7.2-3.2-2.8-6.5-5.5l-18.4-31.5 13.5 27.8q-1.2-0.9-2.3-1.7c-2.4-1.7-5-3.2-7.6-4.7q-3.9-2.1-7.9-4c-5.4-2.6-10.8-5-16.4-6.9 5.4 2.3 10.7 5 15.8 7.9q3.8 2.1 7.5 4.4c2.5 1.6 4.8 3.2 7 5 4.5 3.5 8.7 7.4 12.8 11.4 3.5 3.5 6.9 7.2 10.2 10.8l-1.8 36.6h8.5l-1.2-35.1c3.6-4.2 7.5-8.3 11.5-12.3 4.1-4 8.3-7.9 12.8-11.4 2.2-1.8 4.6-3.4 7-5q3.7-2.3 7.6-4.4c5.1-2.9 10.3-5.6 15.8-7.9-5.7 1.9-11.1 4.3-16.4 6.9z"/>
		</g>
		<g id="&lt;Group&gt;">
			<path id="&lt;Path&gt;" class="s4" d="m437.4 669.5c0 24.8-13.9 26.6-31 26.6-17.1 0-31-1.8-31-26.6 0-24.7 13.9-76.5 31-76.5 17.1 0 31 51.8 31 76.5z"/>
			<path id="&lt;Path&gt;" class="s3" d="m416.9 680.7l-5.1 0.4 13.3-9-9.5 4.8 1.3-3.8-4.4 5.4-5.1 2.5-0.4-17.7 2.7-6.6-2.7 3.7-0.3-10.3 8.5-11.3-8.5 8.7-0.6-22.7-0.4 14.6-5.5-6.1 5.4 8.8-0.7 23-4.8-3.1-4.3-7.6 1.7 5.9-8.4-5.5 15.7 13.6-2.4 75.4h6.5l-1.4-59.8 1.5-1z"/>
		</g>
		<g id="&lt;Group&gt;">
			<path id="&lt;Path&gt;" class="s4" d="m1271 584.3c0 48.3-27.1 52-60.5 52-33.5 0-60.6-3.7-60.6-52 0-48.4 27.1-149.4 60.6-149.4 33.4 0 60.5 101 60.5 149.4z"/>
			<path id="&lt;Path&gt;" class="s5" d="m1271 584.3c0 48.3-27.1 52-60.5 52-33.5 0-60.6-3.7-60.6-52 0-48.4 27.1-149.4 60.6-149.4 33.4 0 60.5 101 60.5 149.4z"/>
			<path id="&lt;Path&gt;" class="s3" d="m1230.9 606.2l-10 0.7 26.1-17.6-18.6 9.5 2.5-7.4-8.5 10.4-10 5-0.8-34.7 5.3-12.9-5.4 7.3-0.4-20.2 16.6-22.1-16.8 17.1-1-44.3-0.9 28.4-10.6-11.9 10.5 17.3-1.5 44.9-9.2-6-8.5-15 3.4 11.7-16.6-10.9 30.7 26.5-4.6 147.5h12.6l-2.6-116.9 2.9-2z"/>
		</g>
		<g id="&lt;Group&gt;">
			<path id="&lt;Path&gt;" class="s4" d="m1400.7 603.3c0 24.8-13.9 26.6-31 26.6-17.1 0-31-1.8-31-26.6 0-24.7 13.9-76.4 31-76.4 17.1 0 31 51.7 31 76.4z"/>
			<path id="&lt;Path&gt;" class="s6" d="m1400.7 603.3c0 24.8-13.9 26.6-31 26.6-17.1 0-31-1.8-31-26.6 0-24.7 13.9-76.4 31-76.4 17.1 0 31 51.7 31 76.4z"/>
			<path id="&lt;Path&gt;" class="s3" d="m1380.2 614.6l-5.2 0.3 13.4-9-9.6 4.8 1.4-3.7-4.4 5.3-5.1 2.6-0.4-17.8 2.7-6.6-2.8 3.7-0.2-10.3 8.5-11.3-8.6 8.7-0.5-22.6-0.5 14.5-5.4-6.1 5.4 8.9-0.8 22.9-4.7-3.1-4.3-7.6 1.7 6-8.5-5.6 15.7 13.6-2.4 75.4h6.5l-1.3-59.8 1.4-1z"/>
		</g>
		<g id="&lt;Group&gt;">
			<path id="&lt;Path&gt;" class="s4" d="m137.3 582.4c0 24.7-13.8 26.6-31 26.6-17.1 0-31-1.9-31-26.6 0-24.7 13.9-76.5 31-76.5 17.2 0 31 51.8 31 76.5z"/>
			<path id="&lt;Path&gt;" class="s6" d="m137.3 582.4c0 24.7-13.8 26.6-31 26.6-17.1 0-31-1.9-31-26.6 0-24.7 13.9-76.5 31-76.5 17.2 0 31 51.8 31 76.5z"/>
			<path id="&lt;Path&gt;" class="s3" d="m116.8 593.6l-5.1 0.4 13.3-9-9.5 4.8 1.3-3.8-4.3 5.3-5.2 2.6-0.4-17.7 2.7-6.6-2.7 3.7-0.3-10.3 8.5-11.3-8.5 8.7-0.5-22.7-0.5 14.5-5.4-6 5.3 8.8-0.7 23-4.8-3.1-4.3-7.6 1.8 5.9-8.5-5.5 15.7 13.5-2.4 75.5h6.5l-1.4-59.8 1.5-1z"/>
		</g>
		<g id="&lt;Group&gt;">
			<path id="&lt;Path&gt;" class="s4" d="m290.9 526.3c-47.9 0-86.7 38.5-86.7 86.1 0 22.1 8.4 42.2 22.1 57.4 6.3-0.9 17.7-1.5 30.4 2.8 16.7 5.7 27.2 15 29.4 17.2h7.8c2.3-2.2 12.8-11.5 29.5-17.2 13.8-4.7 26.1-3.5 31.9-2.5 13.9-15.3 22.3-35.5 22.3-57.7 0-47.6-38.8-86.1-86.7-86.1z"/>
			<path id="&lt;Path&gt;" class="s5" d="m290.9 526.3c-47.9 0-86.7 38.5-86.7 86.1 0 22.1 8.4 42.2 22.1 57.4 6.3-0.9 17.7-1.5 30.4 2.8 16.7 5.7 27.2 15 29.4 17.2h7.8c2.3-2.2 12.8-11.5 29.5-17.2 13.8-4.7 26.1-3.5 31.9-2.5 13.9-15.3 22.3-35.5 22.3-57.7 0-47.6-38.8-86.1-86.7-86.1z"/>
			<path id="&lt;Path&gt;" class="s3" d="m331.3 647q-4 1.9-7.9 4c-2.7 1.4-5.2 2.9-7.6 4.6q-1.4 1-2.7 2l14.2-26.5-19.5 30.5q-2.9 2.4-5.8 4.9-4.7 4.1-9.2 8.4l-1-28.7 20.4-31.1-20.5 26.8-0.9-25.7-1.5 28.7-1.5 28.8q-3.9-3.7-7.9-7.2-3.2-2.8-6.6-5.5l-18.4-31.5 13.5 27.8q-1.1-0.8-2.3-1.7c-2.4-1.7-5-3.2-7.6-4.6q-3.9-2.1-7.9-4c-5.4-2.6-10.8-5-16.4-7 5.4 2.3 10.7 5 15.8 7.9q3.8 2.2 7.5 4.5c2.5 1.5 4.8 3.1 7.1 4.9 4.5 3.6 8.7 7.5 12.7 11.5 3.5 3.5 7 7.1 10.2 10.8l-1.8 36.6h8.5l-1.2-35.1c3.7-4.2 7.6-8.3 11.6-12.3 4-4 8.2-7.9 12.7-11.5 2.2-1.8 4.6-3.4 7-4.9q3.7-2.3 7.6-4.5c5.1-2.9 10.3-5.6 15.8-7.9-5.6 2-11.1 4.4-16.4 7z"/>
		</g>
	</g>
	<g id="Text">
		<g id="&lt;Group&gt;">
			<path id="&lt;Compound Path&gt;" fill-rule="evenodd" class="s3" d="m531.7 783.3v-79.4h-103.3v-50.8l88.6-209.9h75.6v211.2h32.7v49.5h-32.7v79.4zm-52.1-128.9h52.1v-144.4z"/>
			<path id="&lt;Compound Path&gt;" fill-rule="evenodd" class="s3" d="m747.1 783.5q-30.7 0-50.8-12.6-20.2-12.6-30.3-34.7-10-22-10-51v-152.4q-0.1-29.8 9.6-52.2 9.7-22.5 29.8-35.1 20.2-12.6 51.7-12.6 31 0 51 12.6 19.9 12.6 29.6 35.1 9.6 22.4 9.6 52.2v152.4q0 29-10 51-10.1 22.1-30.3 34.7-20.1 12.6-49.9 12.6zm0-57.1q11.3 0 16.3-7.2 5.1-7.1 6.8-17 1.6-9.8 1.6-18.2v-149.9q0-9.3-1.4-19.3-1.5-10.1-6.5-17.5-5.1-7.3-16.8-7.3-11.8 0-17 7.3-5.3 7.4-6.8 17.5-1.4 10-1.4 19.3v149.9q0 8.4 1.6 18.2 1.7 9.9 7.2 17 5.4 7.2 16.4 7.2z"/>
			<path id="&lt;Compound Path&gt;" fill-rule="evenodd" class="s3" d="m975.9 783.3v-79.4h-103.3v-50.8l88.6-209.9h75.6v211.2h32.7v49.5h-32.7v79.4zm-52.1-128.9h52.1v-144.4z"/>
		</g>
	</g>
	<g id="Floor">
		<g id="&lt;Group&gt;">
			<path id="&lt;Path&gt;" class="s1" d="m1440.2 619.3c-130.7 85.7-389 144-686.2 144-306.3 0-571.2-61.9-697.9-152v344.7h1384.1z"/>
			<path id="&lt;Path&gt;" class="s2" d="m1411.8 636.4c-137.6 76.3-380.8 126.9-657.8 126.9-306.3 0-571.2-61.9-697.9-152"/>
			<path id="&lt;Path&gt;" class="s2" d="m1440.8 618.9q-8.8 5.8-18.4 11.5"/>
		</g>
	</g>
	<g id="Trees 1">
		<g id="&lt;Group&gt;">
			<g id="&lt;Group&gt;">
				<path id="&lt;Path&gt;" class="s4" d="m1356.7 599.3c0 50.6-28.3 54.4-63.3 54.4-35 0-63.3-3.8-63.3-54.4 0-50.6 28.3-156.2 63.3-156.2 35 0 63.3 105.6 63.3 156.2z"/>
				<path id="&lt;Path&gt;" class="s3" d="m1314.8 622.2l-10.5 0.8 27.3-18.4-19.5 9.8 2.7-7.7-8.9 10.9-10.4 5.3-0.9-36.4 5.6-13.4-5.7 7.6-0.5-21.1 17.4-23.1-17.5 17.9-1.1-46.4-0.9 29.7-11.1-12.4 10.9 18.1-1.5 47-9.6-6.4-8.9-15.6 3.6 12.2-17.4-11.4 32.1 27.7-4.8 154.2h13.2l-2.8-122.2 3.1-2.1z"/>
			</g>
			<path id="&lt;Path&gt;" class="s3" d="m1289.1 752.5c0 0-23.3-24.2-16.8-23.5 6.6 0.7 18.9 18.8 18.9 18.8 0 0 0.1-39.9 6-31.2 5.8 8.8-1.4 31.4-1.4 31.4 0 0 16.7-26 16.7-21.8-0.1 13.2-12.9 23.5-12.9 23.5 0 0 26.7-19.8 22.3-11.8-4.3 8-21.4 15.6-21.4 15.6 0 0 30.8-6.2 19.8-1.8-10.9 4.3-21.3 7.3-21.3 7.3h-8.5c0 0-29.1-14.5-18.1-12.4 10.9 2.2 16.7 5.9 16.7 5.9z"/>
		</g>
		<g id="&lt;Group&gt;">
			<path id="&lt;Path&gt;" class="s3" d="m169.4 722.4c0 0-20.2-20.9-14.5-20.3 5.7 0.6 16.3 16.3 16.3 16.3 0 0 0.1-34.5 5.2-27 5 7.6-1.2 27.1-1.2 27.1 0 0 14.5-22.5 14.4-18.8-0.1 11.4-11.1 20.3-11.1 20.3 0 0 23.1-17.1 19.3-10.2-3.8 6.9-18.5 13.5-18.5 13.5 0 0 26.6-5.4 17.1-1.6-9.4 3.8-18.4 6.4-18.4 6.4h-7.4c0 0-25.1-12.6-15.7-10.7 9.5 1.9 14.5 5 14.5 5z"/>
			<g id="&lt;Group&gt;">
				<path id="&lt;Path&gt;" class="s4" d="m242.5 571.7c0 50.7-28.4 54.5-63.4 54.5-35 0-63.4-3.8-63.4-54.5 0-50.6 28.4-156.4 63.4-156.4 35 0 63.4 105.8 63.4 156.4z"/>
				<path id="&lt;Path&gt;" class="s3" d="m200.6 594.7l-10.5 0.7 27.3-18.4-19.5 9.9 2.7-7.7-9 10.8-10.4 5.3-0.8-36.3 5.5-13.5-5.7 7.6-0.5-21.1 17.4-23.2-17.5 18-1-46.4-1 29.7-11.1-12.5 10.9 18.2-1.4 47-9.7-6.4-8.9-15.6 3.6 12.2-17.4-11.4 32.1 27.8-4.8 154.3h13.2l-2.8-122.4 3.1-2z"/>
			</g>
		</g>
	</g>
	<g id="Plants">
		<path id="&lt;Path&gt;" class="s3" d="m390.8 775c0 0-20.2-20.9-14.6-20.3 5.7 0.6 16.3 16.3 16.3 16.3 0 0 0.2-34.5 5.2-27 5.1 7.6-1.1 27.1-1.1 27.1 0 0 14.4-22.4 14.4-18.8-0.1 11.4-11.2 20.3-11.2 20.3 0 0 23.1-17.1 19.4-10.2-3.8 7-18.6 13.5-18.6 13.5 0 0 26.6-5.4 17.2-1.6-9.5 3.8-18.5 6.4-18.5 6.4h-7.3c0 0-25.2-12.6-15.7-10.7 9.4 1.9 14.5 5 14.5 5z"/>
		<path id="&lt;Path&gt;" class="s3" d="m498.1 820.9c0 0-20.2-20.9-14.6-20.3 5.7 0.6 16.3 16.3 16.3 16.3 0 0 0.2-34.5 5.2-27 5.1 7.6-1.1 27.1-1.1 27.1 0 0 14.4-22.4 14.4-18.8-0.1 11.4-11.2 20.3-11.2 20.3 0 0 23.1-17.1 19.4-10.2-3.8 7-18.6 13.5-18.6 13.5 0 0 26.6-5.4 17.2-1.6-9.5 3.8-18.5 6.4-18.5 6.4h-7.3c0 0-25.2-12.6-15.7-10.7 9.4 1.9 14.5 5 14.5 5z"/>
		<path id="&lt;Path&gt;" class="s3" d="m785.9 790.1c0 0-14.6-15.1-10.5-14.6 4.1 0.4 11.7 11.7 11.7 11.7 0 0 0.2-24.9 3.8-19.4 3.6 5.4-0.8 19.5-0.8 19.5 0 0 10.4-16.2 10.3-13.6 0 8.2-8 14.6-8 14.6 0 0 16.7-12.3 14-7.3-2.8 5-13.4 9.7-13.4 9.7 0 0 19.2-3.8 12.3-1.1-6.8 2.7-13.3 4.6-13.3 4.6h-5.3c0 0-18.1-9.1-11.3-7.7 6.8 1.3 10.5 3.6 10.5 3.6z"/>
		<path id="&lt;Path&gt;" class="s3" d="m1351.9 754c0 0-11.3-11.8-8.1-11.4 3.2 0.3 9.1 9.1 9.1 9.1 0 0 0.1-19.4 2.9-15.1 2.9 4.2-0.6 15.2-0.6 15.2 0 0 8.1-12.6 8.1-10.6-0.1 6.4-6.3 11.4-6.3 11.4 0 0 13-9.6 10.9-5.7-2.2 3.9-10.4 7.5-10.4 7.5 0 0 14.9-3 9.6-0.8-5.3 2.1-10.4 3.5-10.4 3.5h-4.1c0 0-14.1-7-8.8-6 5.3 1.1 8.1 2.9 8.1 2.9z"/>
		<path id="&lt;Path&gt;" class="s4" d="m587.8 790.2c0 0-20.2-21-14.5-20.3 5.6 0.6 16.3 16.3 16.3 16.3 0 0 0.1-34.6 5.1-27 5.1 7.6-1.1 27.1-1.1 27.1 0 0 14.4-22.5 14.4-18.8-0.1 11.4-11.1 20.2-11.1 20.2 0 0 23.1-17.1 19.3-10.1-3.8 6.9-18.6 13.5-18.6 13.5 0 0 26.6-5.4 17.2-1.6-9.5 3.8-18.5 6.4-18.5 6.4h-7.3c0 0-25.2-12.6-15.7-10.8 9.5 1.9 14.5 5.1 14.5 5.1z"/>
		<path id="&lt;Path&gt;" class="s4" d="m441.9 776.3c0 0-13.5-14.1-9.7-13.7 3.8 0.5 10.9 11 10.9 11 0 0 0.1-23.2 3.5-18.1 3.4 5.1-0.8 18.2-0.8 18.2 0 0 9.7-15.1 9.7-12.6-0.1 7.6-7.5 13.5-7.5 13.5 0 0 15.5-11.4 12.9-6.8-2.5 4.7-12.4 9.1-12.4 9.1 0 0 17.9-3.6 11.5-1.1-6.3 2.5-12.4 4.3-12.4 4.3h-4.9c0 0-16.8-8.5-10.5-7.2 6.3 1.3 9.7 3.4 9.7 3.4z"/>
		<path id="&lt;Path&gt;" class="s4" d="m272.5 831.8c0 0-13.5-14.1-9.7-13.7 3.8 0.5 10.9 11 10.9 11 0 0 0.1-23.2 3.5-18.1 3.4 5-0.8 18.2-0.8 18.2 0 0 9.7-15.1 9.7-12.7-0.1 7.7-7.5 13.6-7.5 13.6 0 0 15.5-11.5 13-6.8-2.6 4.6-12.5 9-12.5 9 0 0 17.9-3.6 11.5-1-6.3 2.5-12.4 4.3-12.4 4.3h-4.9c0 0-16.8-8.5-10.5-7.2 6.3 1.2 9.7 3.4 9.7 3.4z"/>
		<path id="&lt;Path&gt;" class="s4" d="m726.1 834.5c0 0-13.6-14.1-9.8-13.6 3.8 0.4 10.9 10.9 10.9 10.9 0 0 0.1-23.2 3.5-18.1 3.4 5.1-0.8 18.2-0.8 18.2 0 0 9.7-15.1 9.7-12.6-0.1 7.6-7.5 13.5-7.5 13.5 0 0 15.5-11.4 13-6.8-2.6 4.7-12.5 9.1-12.5 9.1 0 0 17.9-3.6 11.6-1.1-6.4 2.5-12.4 4.3-12.4 4.3h-5c0 0-16.8-8.5-10.5-7.2 6.4 1.3 9.8 3.4 9.8 3.4z"/>
		<path id="&lt;Path&gt;" class="s4" d="m946 835.2c0 0-13.5-14-9.7-13.6 3.8 0.4 10.9 10.9 10.9 10.9 0 0 0.1-23.1 3.5-18.1 3.3 5.1-0.8 18.2-0.8 18.2 0 0 9.7-15.1 9.6-12.6 0 7.6-7.4 13.6-7.4 13.6 0 0 15.5-11.5 12.9-6.8-2.5 4.6-12.4 9-12.4 9 0 0 17.8-3.6 11.5-1.1-6.3 2.6-12.4 4.3-12.4 4.3h-4.9c0 0-16.9-8.4-10.5-7.2 6.3 1.3 9.7 3.4 9.7 3.4z"/>
		<path id="&lt;Path&gt;" class="s4" d="m1354.9 791.3c0 0-20.6-21.4-14.8-20.8 5.8 0.7 16.6 16.7 16.6 16.7 0 0 0.2-35.3 5.3-27.6 5.2 7.8-1.2 27.7-1.2 27.7 0 0 14.8-23 14.7-19.2-0.1 11.6-11.3 20.7-11.3 20.7 0 0 23.6-17.5 19.7-10.4-3.9 7.1-18.9 13.8-18.9 13.8 0 0 27.1-5.5 17.5-1.7-9.7 3.9-18.9 6.6-18.9 6.6h-7.5c0 0-25.6-12.9-16-11 9.7 2 14.8 5.2 14.8 5.2z"/>
		<path id="&lt;Path&gt;" class="s4" d="m125.1 791.3c0 0-20.7-21.4-14.9-20.8 5.8 0.7 16.7 16.7 16.7 16.7 0 0 0.1-35.3 5.3-27.6 5.1 7.8-1.2 27.7-1.2 27.7 0 0 14.7-23 14.7-19.2-0.1 11.6-11.4 20.7-11.4 20.7 0 0 23.6-17.5 19.7-10.4-3.8 7.1-18.9 13.8-18.9 13.8 0 0 27.2-5.5 17.5-1.7-9.6 3.9-18.8 6.6-18.8 6.6h-7.5c0 0-25.7-12.9-16-11 9.6 2 14.8 5.2 14.8 5.2z"/>
		<g id="&lt;Group&gt;">
			<path id="&lt;Path&gt;" class="s4" d="m226.9 761.1c0 0-21.1-36.5-15.1-39.3 6-2.8 18.5 24.9 18.5 24.9 0 0-2.4-52.2 3.2-47.4 5.6 4.9 10.8 41.8 10.8 41.8 0 0 11.3-40.2 14.9-31.7 3.6 8.4-2.9 33.9-2.9 33.9 0 0 16.1-30.7 17.8-20.7 1.6 10.1-7.7 26.5-7.7 26.5 0 0 21.3-21.2 22.9-12.8 1.6 8.4-5.6 16.9-5.6 16.9 0 0 28.1-15.3 21.3-6.9-6.8 8.5-16.9 19.3-16.9 19.3 0 0 26.9-9.6 23.7-4-3.2 5.6-15.3 11.6-15.3 11.6 0 0 22.1-4 19.7-0.4-2.4 3.7-8 7.2-8 7.2h-100c0 0-26.5-9.6-16.1-10.4 10.5-0.8 20.1 3.6 20.1 3.6 0 0-32.5-22-17.3-23.6 15.3-1.7 27.7 17.6 27.7 17.6 0 0-21.6-30.5-14-25.7z"/>
			<path id="&lt;Path&gt;" class="s7" d="m228.3 771.4c0 0-27.3-28.2-19.7-27.4 7.7 0.9 22 22 22 22 0 0 0.2-46.6 7-36.4 6.8 10.2-1.5 36.6-1.5 36.6 0 0 19.4-30.3 19.4-25.4-0.2 15.4-15 27.3-15 27.3 0 0 31.1-23 26-13.7-5.1 9.4-25 18.2-25 18.2 0 0 35.9-7.2 23.2-2.1-12.8 5.1-24.9 8.6-24.9 8.6h-10c0 0-33.9-17-21.1-14.5 12.7 2.6 19.6 6.8 19.6 6.8z"/>
		</g>
		<g id="&lt;Group&gt;">
			<path id="&lt;Path&gt;" class="s4" d="m1126.4 825.2c0 0-39.9-68.9-28.5-74.2 11.4-5.3 34.9 47.1 34.9 47.1 0 0-4.6-98.7 6.1-89.6 10.6 9.1 20.5 78.9 20.5 78.9 0 0 21.2-75.9 28.1-59.9 6.8 15.9-5.5 64.1-5.5 64.1 0 0 30.5-58.1 33.5-39.1 3.1 19-14.4 50.1-14.4 50.1 0 0 40.3-40.2 43.3-24.3 3 16-10.6 31.9-10.6 31.9 0 0 53.1-28.8 40.2-12.9-12.9 16-31.9 36.4-31.9 36.4 0 0 50.9-18.2 44.8-7.5-6.1 10.6-28.8 22-28.8 22 0 0 41.7-7.6 37.2-0.8-4.6 6.8-15.2 13.6-15.2 13.6h-189.1c0 0-50.1-18.1-30.3-19.7 19.7-1.5 37.9 6.9 37.9 6.9 0 0-61.5-41.8-32.6-44.8 28.8-3.1 52.4 33.4 52.4 33.4 0 0-41-57.7-26.6-48.6z"/>
			<path id="&lt;Path&gt;" class="s7" d="m1129 844.8c0 0-51.6-53.5-37.1-51.9 14.5 1.7 41.5 41.6 41.5 41.6 0 0 0.4-88 13.3-68.8 12.8 19.3-3 69.2-3 69.2 0 0 36.8-57.4 36.7-48-0.2 29-28.3 51.6-28.3 51.6 0 0 58.9-43.6 49.2-25.9-9.6 17.7-47.3 34.4-47.3 34.4 0 0 67.9-13.7 43.8-4.1-24.1 9.7-47.1 16.3-47.1 16.3h-18.7c0 0-64.1-32.1-40-27.3 24.1 4.8 37 12.9 37 12.9z"/>
		</g>
	</g>
	<g id="Rocks">
		<g id="&lt;Group&gt;">
			<g id="&lt;Group&gt;">
				<path id="&lt;Path&gt;" class="s8" d="m295.7 763.1c0 0 4.1-3.7 7.6-3.7 3.5 0 14.2 5.2 14.2 5.2 0 0 4.3 6.6 4.6 7 0.4 0.4 5.7 2.6 6.1 3.5 0.4 1 1.1 4 1.1 4h-32.6l-6.1-15.8z"/>
				<path id="&lt;Path&gt;" class="s3" d="m303.3 759.4l-0.2 3.2c0 0 8.3 4.8 8.2 6.6-0.2 1.7-2 5.8-2 5.8l4.3 4.5h-22.8l1.8-13.4c0 0 4.8-7 10.7-6.7z"/>
			</g>
			<g id="&lt;Group&gt;">
				<path id="&lt;Path&gt;" class="s8" d="m253.1 761.2c0 0 16.3-24.5 20-24.9 3.7-0.4 11.5 2.7 14.4 7.8 2.9 5 5.7 15 5.9 15.5 0.2 0.6 0.9 1 5.4 8.2 4.5 7.2 4.3 11.3 4.3 11.3h-63.2c0 0 1.3-6.4 3.7-10.1 2.3-3.7 7.7-5.1 7.7-5.1z"/>
				<path id="&lt;Path&gt;" class="s3" d="m278.2 778.7c0 0-1.8-4.3-2-4.9-0.2-0.5-0.2-6.2-0.7-8.5-0.6-2.4-5.5-9.6-5.5-9.6l3.5-10.1-1.7-1.3 2.9-7.2-1.6-0.8c-3.9 0.7-20 24.9-20 24.9l-1.8 2.7c0 0-5.4 1.4-7.7 5.1-2 3.1-3.3 8.3-3.6 9.7z"/>
			</g>
		</g>
		<g id="&lt;Group&gt;">
			<g id="&lt;Group&gt;">
				<path id="&lt;Path&gt;" class="s8" d="m925.7 769.2c0 0 2.5-2.3 4.7-2.3 2.2 0 8.9 3.2 8.9 3.2 0 0 2.7 4.2 3 4.4 0.2 0.3 3.5 1.7 3.7 2.3 0.3 0.5 0.8 2.4 0.8 2.4h-20.5l-3.8-9.9z"/>
				<path id="&lt;Path&gt;" class="s3" d="m930.4 766.9l-0.1 2c0 0 5.3 3 5.1 4.1-0.1 1.1-1.2 3.7-1.2 3.7l2.7 2.8h-14.3l1.1-8.4c0 0 3.1-4.4 6.7-4.2z"/>
			</g>
			<g id="&lt;Group&gt;">
				<path id="&lt;Path&gt;" class="s8" d="m899 768c0 0 10.2-15.4 12.5-15.6 2.3-0.2 7.2 1.7 9.1 4.9 1.8 3.2 3.5 9.4 3.6 9.7 0.1 0.4 0.6 0.7 3.4 5.2 2.8 4.5 2.7 7 2.7 7h-39.6c0 0 0.8-4 2.3-6.3 1.5-2.3 4.9-3.2 4.9-3.2z"/>
				<path id="&lt;Path&gt;" class="s3" d="m914.7 779c0 0-1.1-2.7-1.2-3.1-0.1-0.3-0.1-3.9-0.5-5.3-0.4-1.5-3.4-6-3.4-6l2.2-6.3-1.1-0.9 1.8-4.5-1-0.5c-2.4 0.4-12.5 15.6-12.5 15.6l-1.1 1.7c0 0-3.4 0.9-4.9 3.2-1.3 2-2.1 5.2-2.3 6.1z"/>
			</g>
		</g>
		<g id="&lt;Group&gt;">
			<g id="&lt;Group&gt;">
				<path id="&lt;Path&gt;" class="s8" d="m1256.4 829.1c0 0 7.8-7 14.4-7 6.6 0 26.8 9.7 26.8 9.7 0 0 8.1 12.5 8.8 13.2 0.8 0.8 10.7 5 11.4 6.7 0.8 1.8 2.2 7.5 2.2 7.5h-61.7l-11.4-29.9z"/>
				<path id="&lt;Path&gt;" class="s3" d="m1270.8 822.1l-0.4 5.9c0 0 15.8 9.2 15.5 12.5-0.4 3.3-3.7 11-3.7 11l8.1 8.5h-43l3.3-25.4c0 0 9.2-13.2 20.2-12.5z"/>
			</g>
			<g id="&lt;Group&gt;">
				<path id="&lt;Path&gt;" class="s8" d="m1175.9 825.4c0 0 30.9-46.3 37.9-47.1 7-0.7 21.7 5.2 27.2 14.7 5.5 9.6 10.7 28.4 11 29.5 0.4 1.1 1.9 1.8 10.3 15.4 8.5 13.6 8.1 21.3 8.1 21.3h-119.5c0 0 2.6-12.1 7-19.1 4.4-7 14.7-9.6 14.7-9.6z"/>
				<path id="&lt;Path&gt;" class="s3" d="m1223.4 858.5c0 0-3.4-8.1-3.7-9.2-0.4-1.1-0.4-11.8-1.5-16.2-1.1-4.4-10.3-18-10.3-18l6.6-19.1-3.3-2.6 5.5-13.6-3-1.4c-7.3 1.3-37.8 47-37.8 47l-3.3 5.1c0 0-10.3 2.6-14.7 9.6-3.8 6-6.2 15.7-6.8 18.4z"/>
			</g>
		</g>
	</g>
</svg>